<svg xmlns="http://www.w3.org/2000/svg" xmlns:xlink="http://www.w3.org/1999/xlink" width="1080" zoomAndPan="magnify" viewBox="0 0 810 809.999993" height="1080" preserveAspectRatio="xMidYMid meet" version="1.0"><defs><g/><clipPath id="56b1a44980"><path d="M 352.738281 572.015625 L 778.722656 572.015625 L 778.722656 650.765625 L 352.738281 650.765625 Z M 352.738281 572.015625 " clip-rule="nonzero"/></clipPath><clipPath id="9e302788aa"><path d="M 375.238281 572.015625 L 756.148438 572.015625 C 762.113281 572.015625 767.835938 574.386719 772.054688 578.605469 C 776.277344 582.824219 778.644531 588.546875 778.644531 594.515625 L 778.644531 628.070312 C 778.644531 634.035156 776.277344 639.757812 772.054688 643.976562 C 767.835938 648.195312 762.113281 650.566406 756.148438 650.566406 L 375.238281 650.566406 C 369.269531 650.566406 363.546875 648.195312 359.328125 643.976562 C 355.109375 639.757812 352.738281 634.035156 352.738281 628.070312 L 352.738281 594.515625 C 352.738281 588.546875 355.109375 582.824219 359.328125 578.605469 C 363.546875 574.386719 369.269531 572.015625 375.238281 572.015625 Z M 375.238281 572.015625 " clip-rule="nonzero"/></clipPath><clipPath id="4bc0f5a435"><path d="M 303.070312 5.675781 L 792.820312 5.675781 L 792.820312 124.925781 L 303.070312 124.925781 Z M 303.070312 5.675781 " clip-rule="nonzero"/></clipPath><clipPath id="68358bdacc"><path d="M 740.125 341.480469 L 778.375 341.480469 L 778.375 379.730469 L 740.125 379.730469 Z M 740.125 341.480469 " clip-rule="nonzero"/></clipPath><clipPath id="f89be859bb"><path d="M 759.398438 341.480469 L 765.527344 354.617188 L 778.667969 360.75 L 765.527344 366.882812 L 759.398438 380.023438 L 753.265625 366.882812 L 740.125 360.75 L 753.265625 354.617188 Z M 759.398438 341.480469 " clip-rule="nonzero"/></clipPath><clipPath id="788ffd4934"><path d="M 281.546875 410.167969 L 318.261719 410.167969 L 318.261719 446.882812 L 281.546875 446.882812 Z M 281.546875 410.167969 " clip-rule="nonzero"/></clipPath><clipPath id="6aaa7e988f"><path d="M 299.90625 410.167969 L 305.746094 422.683594 L 318.261719 428.523438 L 305.746094 434.367188 L 299.90625 446.882812 L 294.066406 434.367188 L 281.546875 428.523438 L 294.066406 422.683594 Z M 299.90625 410.167969 " clip-rule="nonzero"/></clipPath><clipPath id="b8b4944286"><path d="M 405 677.347656 L 447 677.347656 L 447 719.347656 L 405 719.347656 Z M 405 677.347656 " clip-rule="nonzero"/></clipPath><clipPath id="5135784f4b"><path d="M 426.140625 677.347656 L 432.867188 691.761719 L 447.28125 698.488281 L 432.867188 705.214844 L 426.140625 719.628906 L 419.414062 705.214844 L 405 698.488281 L 419.414062 691.761719 Z M 426.140625 677.347656 " clip-rule="nonzero"/></clipPath><clipPath id="68c3b71243"><path d="M 206.546875 107.441406 L 241.597656 107.441406 L 241.597656 142.492188 L 206.546875 142.492188 Z M 206.546875 107.441406 " clip-rule="nonzero"/></clipPath><clipPath id="c03064e5e2"><path d="M 224.074219 107.441406 C 214.394531 107.441406 206.546875 115.285156 206.546875 124.964844 C 206.546875 134.644531 214.394531 142.492188 224.074219 142.492188 C 233.753906 142.492188 241.597656 134.644531 241.597656 124.964844 C 241.597656 115.285156 233.753906 107.441406 224.074219 107.441406 Z M 224.074219 107.441406 " clip-rule="nonzero"/></clipPath><clipPath id="36a07e1581"><path d="M 774.945312 736.640625 L 809.996094 736.640625 L 809.996094 771.691406 L 774.945312 771.691406 Z M 774.945312 736.640625 " clip-rule="nonzero"/></clipPath><clipPath id="5a988c5ce5"><path d="M 792.46875 736.640625 C 782.789062 736.640625 774.945312 744.484375 774.945312 754.164062 C 774.945312 763.84375 782.789062 771.691406 792.46875 771.691406 C 802.148438 771.691406 809.996094 763.84375 809.996094 754.164062 C 809.996094 744.484375 802.148438 736.640625 792.46875 736.640625 Z M 792.46875 736.640625 " clip-rule="nonzero"/></clipPath><clipPath id="5b1eeb9e7d"><path d="M 220.585938 238.988281 L 237.429688 238.988281 L 237.429688 252.75 L 220.585938 252.75 Z M 206.550781 252.75 L 251.464844 252.75 L 251.464844 269.265625 L 206.550781 269.265625 Z M 220.585938 269.265625 L 237.429688 269.265625 L 237.429688 283.027344 L 220.585938 283.027344 Z M 220.585938 269.265625 " clip-rule="nonzero"/></clipPath><clipPath id="e86eb5c623"><path d="M 135.183594 191.992188 L 147.625 191.992188 L 147.625 202.160156 L 135.183594 202.160156 Z M 124.816406 202.160156 L 157.816406 202.160156 L 157.816406 214.355469 L 124.816406 214.355469 Z M 135.183594 214.355469 L 147.625 214.355469 L 147.625 224.242188 L 135.183594 224.242188 Z M 135.183594 214.355469 " clip-rule="nonzero"/></clipPath><clipPath id="4799a8c533"><path d="M 96.902344 736.640625 L 112.125 736.640625 L 112.125 749.082031 L 96.902344 749.082031 Z M 84.214844 749.082031 L 124.714844 749.082031 L 124.714844 764.007812 L 84.214844 764.007812 Z M 96.902344 764.007812 L 112.125 764.007812 L 112.125 776.390625 L 96.902344 776.390625 Z M 96.902344 764.007812 " clip-rule="nonzero"/></clipPath><clipPath id="4f359528d6"><path d="M 0 314.210938 L 283.4375 314.210938 L 283.4375 719.363281 L 0 719.363281 Z M 0 314.210938 " clip-rule="nonzero"/></clipPath><clipPath id="320fca217f"><path d="M 80.996094 314.210938 C -30.957031 314.210938 -121.714844 404.96875 -121.714844 516.921875 C -121.714844 628.878906 -30.957031 719.636719 80.996094 719.636719 C 192.953125 719.636719 283.710938 628.878906 283.710938 516.921875 C 283.710938 404.96875 192.953125 314.210938 80.996094 314.210938 Z M 80.996094 314.210938 " clip-rule="nonzero"/></clipPath></defs><g clip-path="url(#56b1a44980)"><g clip-path="url(#9e302788aa)"><path stroke-linecap="butt" transform="matrix(0.75, 0, 0, 0.75, 352.739194, 572.016543)" fill="none" stroke-linejoin="miter" d="M 29.998783 -0.0012243 L 537.878984 -0.0012243 C 545.832109 -0.0012243 553.462317 3.160234 559.087317 8.785234 C 564.717526 14.410234 567.873776 22.040442 567.873776 29.998775 L 567.873776 74.738358 C 567.873776 82.691483 564.717526 90.321691 559.087317 95.946691 C 553.462317 101.571691 545.832109 104.733149 537.878984 104.733149 L 29.998783 104.733149 C 22.04045 104.733149 14.410241 101.571691 8.785242 95.946691 C 3.160242 90.321691 -0.00121667 82.691483 -0.00121667 74.738358 L -0.00121667 29.998775 C -0.00121667 22.040442 3.160242 14.410234 8.785242 8.785234 C 14.410241 3.160234 22.04045 -0.0012243 29.998783 -0.0012243 Z M 29.998783 -0.0012243 " stroke="#1d2633" stroke-width="12" stroke-opacity="1" stroke-miterlimit="4"/></g></g><g clip-path="url(#4bc0f5a435)"><path fill="#1d2633" d="M 310.941406 109.128906 C 315.289062 109.128906 318.808594 112.644531 318.808594 116.996094 C 318.808594 121.347656 315.289062 124.863281 310.941406 124.863281 C 306.589844 124.863281 303.070312 121.40625 303.070312 117.054688 C 303.070312 112.644531 306.589844 109.128906 310.941406 109.128906 Z M 303.070312 65.320312 C 303.070312 69.671875 306.589844 73.1875 310.941406 73.1875 C 315.289062 73.1875 318.808594 69.671875 318.808594 65.320312 C 318.808594 60.96875 315.289062 57.453125 310.941406 57.453125 C 306.589844 57.453125 303.070312 60.96875 303.070312 65.320312 Z M 303.070312 13.585938 C 303.070312 17.933594 306.589844 21.453125 310.941406 21.453125 C 315.289062 21.453125 318.808594 17.933594 318.808594 13.585938 C 318.867188 9.234375 315.351562 5.714844 310.941406 5.714844 C 306.527344 5.714844 303.070312 9.234375 303.070312 13.585938 Z M 350.457031 117.054688 C 350.457031 121.40625 353.972656 124.921875 358.324219 124.921875 C 362.675781 124.921875 366.191406 121.40625 366.191406 117.054688 C 366.191406 112.703125 362.675781 109.1875 358.324219 109.1875 C 353.972656 109.1875 350.457031 112.644531 350.457031 117.054688 Z M 350.457031 65.320312 C 350.457031 69.671875 353.972656 73.1875 358.324219 73.1875 C 362.675781 73.1875 366.25 69.671875 366.25 65.320312 C 366.25 60.96875 362.734375 57.453125 358.382812 57.453125 C 354.03125 57.453125 350.457031 60.96875 350.457031 65.320312 Z M 350.457031 13.585938 C 350.457031 17.933594 353.972656 21.453125 358.324219 21.453125 C 362.675781 21.453125 366.25 17.996094 366.25 13.585938 C 366.25 9.234375 362.675781 5.714844 358.324219 5.714844 C 353.972656 5.714844 350.457031 9.234375 350.457031 13.585938 Z M 397.78125 117.054688 C 397.78125 121.40625 401.296875 124.921875 405.648438 124.921875 C 410 124.921875 413.515625 121.40625 413.515625 117.054688 C 413.515625 112.703125 410 109.1875 405.648438 109.1875 C 401.355469 109.128906 397.78125 112.644531 397.78125 117.054688 Z M 397.78125 65.320312 C 397.78125 69.671875 401.296875 73.1875 405.648438 73.1875 C 410 73.1875 413.515625 69.671875 413.515625 65.320312 C 413.515625 60.96875 410 57.453125 405.648438 57.453125 C 401.355469 57.453125 397.78125 60.96875 397.78125 65.320312 Z M 397.78125 13.585938 C 397.78125 17.933594 401.296875 21.453125 405.648438 21.453125 C 410 21.453125 413.515625 17.933594 413.515625 13.585938 C 413.515625 9.234375 410 5.714844 405.648438 5.714844 C 401.355469 5.714844 397.78125 9.234375 397.78125 13.585938 Z M 445.164062 117.054688 C 445.164062 121.40625 448.679688 124.921875 453.03125 124.921875 C 457.382812 124.921875 460.898438 121.40625 460.898438 117.054688 C 460.898438 112.703125 457.382812 109.1875 453.03125 109.1875 C 448.679688 109.1875 445.164062 112.644531 445.164062 117.054688 Z M 445.164062 65.320312 C 445.164062 69.671875 448.679688 73.1875 453.03125 73.1875 C 457.382812 73.1875 460.898438 69.671875 460.898438 65.320312 C 460.898438 60.96875 457.382812 57.453125 453.03125 57.453125 C 448.679688 57.453125 445.164062 60.96875 445.164062 65.320312 Z M 445.164062 13.585938 C 445.164062 17.933594 448.679688 21.453125 453.03125 21.453125 C 457.382812 21.453125 460.898438 17.933594 460.898438 13.585938 C 460.960938 9.234375 457.441406 5.714844 453.09375 5.714844 C 448.742188 5.714844 445.164062 9.234375 445.164062 13.585938 Z M 492.550781 117.054688 C 492.550781 121.40625 496.066406 124.921875 500.417969 124.921875 C 504.769531 124.921875 508.285156 121.40625 508.285156 117.054688 C 508.285156 112.703125 504.769531 109.1875 500.417969 109.1875 C 496.066406 109.1875 492.550781 112.644531 492.550781 117.054688 Z M 492.550781 65.320312 C 492.550781 69.671875 496.066406 73.1875 500.417969 73.1875 C 504.769531 73.1875 508.285156 69.671875 508.285156 65.320312 C 508.285156 60.96875 504.769531 57.453125 500.417969 57.453125 C 496.066406 57.453125 492.550781 60.96875 492.550781 65.320312 Z M 492.550781 13.585938 C 492.550781 17.933594 496.066406 21.453125 500.417969 21.453125 C 504.769531 21.453125 508.285156 17.933594 508.285156 13.585938 C 508.285156 9.234375 504.769531 5.714844 500.417969 5.714844 C 496.066406 5.714844 492.550781 9.234375 492.550781 13.585938 Z M 539.933594 117.054688 C 539.933594 121.40625 543.449219 124.921875 547.800781 124.921875 C 552.152344 124.921875 555.667969 121.40625 555.667969 117.054688 C 555.667969 112.703125 552.152344 109.1875 547.800781 109.1875 C 543.449219 109.128906 539.933594 112.644531 539.933594 117.054688 Z M 539.933594 65.320312 C 539.933594 69.671875 543.449219 73.1875 547.800781 73.1875 C 552.152344 73.1875 555.667969 69.671875 555.667969 65.320312 C 555.667969 60.96875 552.152344 57.453125 547.800781 57.453125 C 543.449219 57.453125 539.933594 60.96875 539.933594 65.320312 Z M 539.933594 13.585938 C 539.933594 17.933594 543.449219 21.453125 547.800781 21.453125 C 552.152344 21.453125 555.667969 17.933594 555.667969 13.585938 C 555.667969 9.234375 552.152344 5.714844 547.800781 5.714844 C 543.449219 5.714844 539.933594 9.234375 539.933594 13.585938 Z M 587.257812 117.054688 C 587.257812 121.40625 590.773438 124.921875 595.125 124.921875 C 599.476562 124.921875 602.992188 121.40625 602.992188 117.054688 C 602.992188 112.703125 599.476562 109.1875 595.125 109.1875 C 590.773438 109.1875 587.257812 112.644531 587.257812 117.054688 Z M 587.257812 65.320312 C 587.257812 69.671875 590.773438 73.1875 595.125 73.1875 C 599.476562 73.1875 602.992188 69.671875 602.992188 65.320312 C 602.992188 60.96875 599.476562 57.453125 595.125 57.453125 C 590.773438 57.453125 587.257812 60.96875 587.257812 65.320312 Z M 587.257812 13.585938 C 587.257812 17.933594 590.773438 21.453125 595.125 21.453125 C 599.476562 21.453125 602.992188 17.933594 602.992188 13.585938 C 602.992188 9.234375 599.476562 5.714844 595.125 5.714844 C 590.773438 5.714844 587.257812 9.234375 587.257812 13.585938 Z M 634.640625 117.054688 C 634.640625 121.40625 638.160156 124.921875 642.511719 124.921875 C 646.859375 124.921875 650.378906 121.40625 650.378906 117.054688 C 650.378906 112.703125 646.859375 109.1875 642.511719 109.1875 C 638.160156 109.128906 634.640625 112.644531 634.640625 117.054688 Z M 634.640625 65.320312 C 634.640625 69.671875 638.160156 73.1875 642.511719 73.1875 C 646.859375 73.1875 650.378906 69.671875 650.378906 65.320312 C 650.378906 60.96875 646.859375 57.453125 642.511719 57.453125 C 638.160156 57.453125 634.640625 60.96875 634.640625 65.320312 Z M 634.640625 13.585938 C 634.640625 17.933594 638.160156 21.453125 642.511719 21.453125 C 646.859375 21.453125 650.378906 17.933594 650.378906 13.585938 C 650.378906 9.234375 646.859375 5.714844 642.511719 5.714844 C 638.160156 5.714844 634.640625 9.234375 634.640625 13.585938 Z M 682.027344 117.054688 C 682.027344 121.40625 685.542969 124.921875 689.894531 124.921875 C 694.246094 124.921875 697.761719 121.40625 697.761719 117.054688 C 697.761719 112.703125 694.246094 109.1875 689.894531 109.1875 C 685.542969 109.128906 682.027344 112.644531 682.027344 117.054688 Z M 682.027344 65.320312 C 682.027344 69.671875 685.542969 73.1875 689.894531 73.1875 C 694.246094 73.1875 697.761719 69.671875 697.761719 65.320312 C 697.761719 60.96875 694.246094 57.453125 689.894531 57.453125 C 685.542969 57.453125 682.027344 60.96875 682.027344 65.320312 Z M 682.027344 13.585938 C 682.027344 17.933594 685.542969 21.453125 689.894531 21.453125 C 694.246094 21.453125 697.761719 17.933594 697.761719 13.585938 C 697.820312 9.234375 694.246094 5.714844 689.894531 5.714844 C 685.542969 5.714844 682.027344 9.234375 682.027344 13.585938 Z M 729.351562 117.054688 C 729.351562 121.40625 732.867188 124.921875 737.21875 124.921875 C 741.570312 124.921875 745.085938 121.40625 745.085938 117.054688 C 745.085938 112.703125 741.570312 109.1875 737.21875 109.1875 C 732.925781 109.128906 729.351562 112.644531 729.351562 117.054688 Z M 729.351562 65.320312 C 729.351562 69.671875 732.867188 73.1875 737.21875 73.1875 C 741.570312 73.1875 745.085938 69.671875 745.085938 65.320312 C 745.085938 60.96875 741.570312 57.453125 737.21875 57.453125 C 732.925781 57.453125 729.351562 60.96875 729.351562 65.320312 Z M 729.351562 13.585938 C 729.351562 17.933594 732.867188 21.453125 737.21875 21.453125 C 741.570312 21.453125 745.085938 17.933594 745.085938 13.585938 C 745.085938 9.234375 741.570312 5.714844 737.21875 5.714844 C 732.925781 5.714844 729.351562 9.234375 729.351562 13.585938 Z M 776.734375 117.054688 C 776.734375 121.40625 780.25 124.921875 784.601562 124.921875 C 788.953125 124.921875 792.46875 121.40625 792.46875 117.054688 C 792.46875 112.703125 788.953125 109.1875 784.601562 109.1875 C 780.25 109.1875 776.734375 112.644531 776.734375 117.054688 Z M 776.734375 65.320312 C 776.734375 69.671875 780.25 73.1875 784.601562 73.1875 C 788.953125 73.1875 792.46875 69.671875 792.46875 65.320312 C 792.46875 60.96875 788.953125 57.453125 784.601562 57.453125 C 780.25 57.453125 776.734375 60.96875 776.734375 65.320312 Z M 776.734375 13.585938 C 776.734375 17.933594 780.25 21.453125 784.601562 21.453125 C 788.953125 21.453125 792.46875 17.933594 792.46875 13.585938 C 792.46875 9.234375 788.953125 5.714844 784.601562 5.714844 C 780.25 5.714844 776.734375 9.234375 776.734375 13.585938 Z M 776.734375 13.585938 " fill-opacity="1" fill-rule="nonzero"/></g><g clip-path="url(#68358bdacc)"><g clip-path="url(#f89be859bb)"><path stroke-linecap="butt" transform="matrix(0.75, 0, 0, 0.75, 740.125454, 341.479719)" fill="none" stroke-linejoin="miter" d="M 25.697312 0.000999906 L 33.869188 17.516626 L 51.390022 25.69371 L 33.869188 33.870793 L 25.697312 51.391627 L 17.520229 33.870793 L -0.000605687 25.69371 L 17.520229 17.516626 Z M 25.697312 0.000999906 " stroke="#1d2633" stroke-width="6" stroke-opacity="1" stroke-miterlimit="4"/></g></g><g clip-path="url(#788ffd4934)"><g clip-path="url(#6aaa7e988f)"><path stroke-linecap="butt" transform="matrix(0.75, 0, 0, 0.75, 281.548525, 410.167079)" fill="none" stroke-linejoin="miter" d="M 24.476967 0.00118585 L 32.263426 16.688687 L 48.950927 24.475145 L 32.263426 32.266812 L 24.476967 48.954313 L 16.690509 32.266812 L -0.00220045 24.475145 L 16.690509 16.688687 Z M 24.476967 0.00118585 " stroke="#1d2633" stroke-width="6" stroke-opacity="1" stroke-miterlimit="4"/></g></g><g clip-path="url(#b8b4944286)"><g clip-path="url(#5135784f4b)"><path stroke-linecap="butt" transform="matrix(0.75, 0, 0, 0.75, 404.999983, 677.34877)" fill="none" stroke-linejoin="miter" d="M 28.187524 -0.0014849 L 37.156274 19.217266 L 56.375025 28.186017 L 37.156274 37.154767 L 28.187524 56.373518 L 19.218773 37.154767 L 0.0000225 28.186017 L 19.218773 19.217266 Z M 28.187524 -0.0014849 " stroke="#1d2633" stroke-width="6" stroke-opacity="1" stroke-miterlimit="4"/></g></g><g clip-path="url(#68c3b71243)"><g clip-path="url(#c03064e5e2)"><path stroke-linecap="butt" transform="matrix(0.75, 0, 0, 0.75, 206.548644, 107.440467)" fill="none" stroke-linejoin="miter" d="M 23.367434 0.00125287 C 10.461183 0.00125287 -0.00235908 10.459587 -0.00235908 23.365837 C -0.00235908 36.272088 10.461183 46.73563 23.367434 46.73563 C 36.273684 46.73563 46.732018 36.272088 46.732018 23.365837 C 46.732018 10.459587 36.273684 0.00125287 23.367434 0.00125287 Z M 23.367434 0.00125287 " stroke="#1d2633" stroke-width="8" stroke-opacity="1" stroke-miterlimit="4"/></g></g><g clip-path="url(#36a07e1581)"><g clip-path="url(#5a988c5ce5)"><path stroke-linecap="butt" transform="matrix(0.75, 0, 0, 0.75, 774.944437, 736.638967)" fill="none" stroke-linejoin="miter" d="M 23.365752 0.00221075 C 10.459502 0.00221075 0.00116798 10.460545 0.00116798 23.366795 C 0.00116798 36.273046 10.459502 46.736588 23.365752 46.736588 C 36.272003 46.736588 46.735545 36.273046 46.735545 23.366795 C 46.735545 10.460545 36.272003 0.00221075 23.365752 0.00221075 Z M 23.365752 0.00221075 " stroke="#1d2633" stroke-width="8" stroke-opacity="1" stroke-miterlimit="4"/></g></g><g clip-path="url(#5b1eeb9e7d)"><path stroke-linecap="butt" transform="matrix(0.75, 0, 0, 0.75, 206.550228, 238.988622)" fill="none" stroke-linejoin="miter" d="M 41.172612 -0.000453769 L 18.714279 -0.000453769 L 18.714279 18.348504 L 0.000737255 18.348504 L 0.000737255 40.369337 L 18.714279 40.369337 L 18.714279 58.718295 L 41.172612 58.718295 L 41.172612 40.369337 L 59.886153 40.369337 L 59.886153 18.348504 L 41.172612 18.348504 Z M 41.172612 -0.000453769 " stroke="#1d2633" stroke-width="8" stroke-opacity="1" stroke-miterlimit="4"/></g><g clip-path="url(#e86eb5c623)"><path stroke-linecap="butt" transform="matrix(0.75, 0, 0, 0.75, 124.817136, 191.993727)" fill="none" stroke-linejoin="miter" d="M 30.410489 -0.00205285 L 13.821946 -0.00205285 L 13.821946 13.55524 L -0.000972494 13.55524 L -0.000972494 29.815659 L 13.821946 29.815659 L 13.821946 43.372952 L 30.410489 43.372952 L 30.410489 29.815659 L 44.233408 29.815659 L 44.233408 13.55524 L 30.410489 13.55524 Z M 30.410489 -0.00205285 " stroke="#1d2633" stroke-width="8" stroke-opacity="1" stroke-miterlimit="4"/></g><g clip-path="url(#4799a8c533)"><path stroke-linecap="butt" transform="matrix(0.75, 0, 0, 0.75, 84.215111, 736.642135)" fill="none" stroke-linejoin="miter" d="M 37.213187 -0.00201325 L 16.916311 -0.00201325 L 16.916311 16.586529 L -0.000356684 16.586529 L -0.000356684 36.487572 L 16.916311 36.487572 L 16.916311 53.070906 L 37.213187 53.070906 L 37.213187 36.487572 L 54.124646 36.487572 L 54.124646 16.586529 L 37.213187 16.586529 Z M 37.213187 -0.00201325 " stroke="#1d2633" stroke-width="8" stroke-opacity="1" stroke-miterlimit="4"/></g><g fill="#66a80f" fill-opacity="1"><g transform="translate(467.769198, 625.070648)"><g><path d="M 13.640625 -15.140625 L 24.328125 -15.140625 L 24.328125 -1.15625 C 22.597656 -0.59375 20.96875 -0.195312 19.4375 0.03125 C 17.90625 0.257812 16.335938 0.375 14.734375 0.375 C 10.671875 0.375 7.5625 -0.820312 5.40625 -3.21875 C 3.257812 -5.613281 2.1875 -9.046875 2.1875 -13.515625 C 2.1875 -17.867188 3.429688 -21.265625 5.921875 -23.703125 C 8.421875 -26.140625 11.878906 -27.359375 16.296875 -27.359375 C 19.054688 -27.359375 21.722656 -26.804688 24.296875 -25.703125 L 22.390625 -21.125 C 20.421875 -22.101562 18.375 -22.59375 16.25 -22.59375 C 13.78125 -22.59375 11.800781 -21.765625 10.3125 -20.109375 C 8.820312 -18.453125 8.078125 -16.21875 8.078125 -13.40625 C 8.078125 -10.476562 8.675781 -8.242188 9.875 -6.703125 C 11.070312 -5.160156 12.816406 -4.390625 15.109375 -4.390625 C 16.296875 -4.390625 17.507812 -4.515625 18.75 -4.765625 L 18.75 -10.390625 L 13.640625 -10.390625 Z M 13.640625 -15.140625 "/></g></g><g transform="translate(495.130053, 625.070648)"><g><path d="M 7.4375 -10.34375 C 7.4375 -8.300781 7.769531 -6.757812 8.4375 -5.71875 C 9.113281 -4.675781 10.207031 -4.15625 11.71875 -4.15625 C 13.21875 -4.15625 14.296875 -4.671875 14.953125 -5.703125 C 15.609375 -6.742188 15.9375 -8.289062 15.9375 -10.34375 C 15.9375 -12.382812 15.601562 -13.914062 14.9375 -14.9375 C 14.28125 -15.957031 13.191406 -16.46875 11.671875 -16.46875 C 10.171875 -16.46875 9.085938 -15.960938 8.421875 -14.953125 C 7.765625 -13.941406 7.4375 -12.40625 7.4375 -10.34375 Z M 21.6875 -10.34375 C 21.6875 -6.988281 20.800781 -4.363281 19.03125 -2.46875 C 17.257812 -0.570312 14.796875 0.375 11.640625 0.375 C 9.660156 0.375 7.910156 -0.0546875 6.390625 -0.921875 C 4.878906 -1.796875 3.71875 -3.046875 2.90625 -4.671875 C 2.101562 -6.296875 1.703125 -8.1875 1.703125 -10.34375 C 1.703125 -13.71875 2.578125 -16.335938 4.328125 -18.203125 C 6.085938 -20.078125 8.5625 -21.015625 11.75 -21.015625 C 13.726562 -21.015625 15.472656 -20.582031 16.984375 -19.71875 C 18.503906 -18.851562 19.664062 -17.613281 20.46875 -16 C 21.28125 -14.394531 21.6875 -12.507812 21.6875 -10.34375 Z M 21.6875 -10.34375 "/></g></g><g transform="translate(518.52423, 625.070648)"><g/></g><g transform="translate(528.339452, 625.070648)"><g><path d="M 11.640625 -4.109375 C 12.617188 -4.109375 13.800781 -4.328125 15.1875 -4.765625 L 15.1875 -0.578125 C 13.78125 0.0546875 12.054688 0.375 10.015625 0.375 C 7.765625 0.375 6.125 -0.191406 5.09375 -1.328125 C 4.070312 -2.472656 3.5625 -4.179688 3.5625 -6.453125 L 3.5625 -16.40625 L 0.859375 -16.40625 L 0.859375 -18.78125 L 3.96875 -20.65625 L 5.59375 -25.015625 L 9.1875 -25.015625 L 9.1875 -20.625 L 14.96875 -20.625 L 14.96875 -16.40625 L 9.1875 -16.40625 L 9.1875 -6.453125 C 9.1875 -5.648438 9.410156 -5.054688 9.859375 -4.671875 C 10.304688 -4.296875 10.898438 -4.109375 11.640625 -4.109375 Z M 11.640625 -4.109375 "/></g></g><g transform="translate(544.741205, 625.070648)"><g><path d="M 7.4375 -10.34375 C 7.4375 -8.300781 7.769531 -6.757812 8.4375 -5.71875 C 9.113281 -4.675781 10.207031 -4.15625 11.71875 -4.15625 C 13.21875 -4.15625 14.296875 -4.671875 14.953125 -5.703125 C 15.609375 -6.742188 15.9375 -8.289062 15.9375 -10.34375 C 15.9375 -12.382812 15.601562 -13.914062 14.9375 -14.9375 C 14.28125 -15.957031 13.191406 -16.46875 11.671875 -16.46875 C 10.171875 -16.46875 9.085938 -15.960938 8.421875 -14.953125 C 7.765625 -13.941406 7.4375 -12.40625 7.4375 -10.34375 Z M 21.6875 -10.34375 C 21.6875 -6.988281 20.800781 -4.363281 19.03125 -2.46875 C 17.257812 -0.570312 14.796875 0.375 11.640625 0.375 C 9.660156 0.375 7.910156 -0.0546875 6.390625 -0.921875 C 4.878906 -1.796875 3.71875 -3.046875 2.90625 -4.671875 C 2.101562 -6.296875 1.703125 -8.1875 1.703125 -10.34375 C 1.703125 -13.71875 2.578125 -16.335938 4.328125 -18.203125 C 6.085938 -20.078125 8.5625 -21.015625 11.75 -21.015625 C 13.726562 -21.015625 15.472656 -20.582031 16.984375 -19.71875 C 18.503906 -18.851562 19.664062 -17.613281 20.46875 -16 C 21.28125 -14.394531 21.6875 -12.507812 21.6875 -10.34375 Z M 21.6875 -10.34375 "/></g></g><g transform="translate(568.135382, 625.070648)"><g/></g><g transform="translate(577.950605, 625.070648)"><g><path d="M 3.390625 -26.96875 L 11.78125 -26.96875 C 15.613281 -26.96875 18.390625 -26.421875 20.109375 -25.328125 C 21.835938 -24.242188 22.703125 -22.515625 22.703125 -20.140625 C 22.703125 -18.535156 22.320312 -17.210938 21.5625 -16.171875 C 20.8125 -15.140625 19.8125 -14.519531 18.5625 -14.3125 L 18.5625 -14.125 C 20.269531 -13.75 21.5 -13.035156 22.25 -11.984375 C 23.007812 -10.941406 23.390625 -9.554688 23.390625 -7.828125 C 23.390625 -5.359375 22.5 -3.4375 20.71875 -2.0625 C 18.945312 -0.6875 16.535156 0 13.484375 0 L 3.390625 0 Z M 9.109375 -16.296875 L 12.4375 -16.296875 C 13.988281 -16.296875 15.109375 -16.535156 15.796875 -17.015625 C 16.492188 -17.492188 16.84375 -18.285156 16.84375 -19.390625 C 16.84375 -20.421875 16.460938 -21.160156 15.703125 -21.609375 C 14.953125 -22.054688 13.757812 -22.28125 12.125 -22.28125 L 9.109375 -22.28125 Z M 9.109375 -11.75 L 9.109375 -4.71875 L 12.84375 -4.71875 C 14.414062 -4.71875 15.578125 -5.019531 16.328125 -5.625 C 17.078125 -6.226562 17.453125 -7.148438 17.453125 -8.390625 C 17.453125 -10.628906 15.851562 -11.75 12.65625 -11.75 Z M 9.109375 -11.75 "/></g></g><g transform="translate(603.337345, 625.070648)"><g><path d="M 8.578125 0 L 2.953125 0 L 2.953125 -28.703125 L 8.578125 -28.703125 Z M 8.578125 0 "/></g></g><g transform="translate(614.868386, 625.070648)"><g><path d="M 16.046875 0 L 14.96875 -2.796875 L 14.8125 -2.796875 C 13.863281 -1.609375 12.890625 -0.78125 11.890625 -0.3125 C 10.890625 0.144531 9.582031 0.375 7.96875 0.375 C 5.988281 0.375 4.429688 -0.191406 3.296875 -1.328125 C 2.160156 -2.460938 1.59375 -4.070312 1.59375 -6.15625 C 1.59375 -8.351562 2.359375 -9.96875 3.890625 -11 C 5.421875 -12.039062 7.726562 -12.617188 10.8125 -12.734375 L 14.390625 -12.84375 L 14.390625 -13.75 C 14.390625 -15.832031 13.316406 -16.875 11.171875 -16.875 C 9.523438 -16.875 7.59375 -16.378906 5.375 -15.390625 L 3.5 -19.1875 C 5.875 -20.425781 8.507812 -21.046875 11.40625 -21.046875 C 14.164062 -21.046875 16.285156 -20.441406 17.765625 -19.234375 C 19.242188 -18.035156 19.984375 -16.207031 19.984375 -13.75 L 19.984375 0 Z M 14.390625 -9.5625 L 12.21875 -9.484375 C 10.582031 -9.429688 9.363281 -9.132812 8.5625 -8.59375 C 7.757812 -8.050781 7.359375 -7.226562 7.359375 -6.125 C 7.359375 -4.539062 8.269531 -3.75 10.09375 -3.75 C 11.394531 -3.75 12.4375 -4.125 13.21875 -4.875 C 14 -5.625 14.390625 -6.617188 14.390625 -7.859375 Z M 14.390625 -9.5625 "/></g></g><g transform="translate(637.690623, 625.070648)"><g><path d="M 17.34375 -6.125 C 17.34375 -4.007812 16.609375 -2.394531 15.140625 -1.28125 C 13.671875 -0.175781 11.472656 0.375 8.546875 0.375 C 7.046875 0.375 5.765625 0.269531 4.703125 0.0625 C 3.648438 -0.132812 2.660156 -0.429688 1.734375 -0.828125 L 1.734375 -5.484375 C 2.773438 -4.984375 3.953125 -4.566406 5.265625 -4.234375 C 6.578125 -3.910156 7.726562 -3.75 8.71875 -3.75 C 10.757812 -3.75 11.78125 -4.335938 11.78125 -5.515625 C 11.78125 -5.960938 11.644531 -6.320312 11.375 -6.59375 C 11.101562 -6.875 10.632812 -7.1875 9.96875 -7.53125 C 9.3125 -7.882812 8.429688 -8.296875 7.328125 -8.765625 C 5.734375 -9.429688 4.566406 -10.046875 3.828125 -10.609375 C 3.085938 -11.171875 2.546875 -11.816406 2.203125 -12.546875 C 1.867188 -13.285156 1.703125 -14.1875 1.703125 -15.25 C 1.703125 -17.082031 2.410156 -18.5 3.828125 -19.5 C 5.242188 -20.507812 7.257812 -21.015625 9.875 -21.015625 C 12.351562 -21.015625 14.769531 -20.472656 17.125 -19.390625 L 15.421875 -15.328125 C 14.390625 -15.773438 13.421875 -16.140625 12.515625 -16.421875 C 11.617188 -16.703125 10.707031 -16.84375 9.78125 -16.84375 C 8.113281 -16.84375 7.28125 -16.394531 7.28125 -15.5 C 7.28125 -14.988281 7.546875 -14.550781 8.078125 -14.1875 C 8.617188 -13.820312 9.796875 -13.273438 11.609375 -12.546875 C 13.210938 -11.890625 14.390625 -11.28125 15.140625 -10.71875 C 15.890625 -10.15625 16.441406 -9.503906 16.796875 -8.765625 C 17.160156 -8.023438 17.34375 -7.144531 17.34375 -6.125 Z M 17.34375 -6.125 "/></g></g><g transform="translate(656.472383, 625.070648)"><g><path d="M 11.640625 -4.109375 C 12.617188 -4.109375 13.800781 -4.328125 15.1875 -4.765625 L 15.1875 -0.578125 C 13.78125 0.0546875 12.054688 0.375 10.015625 0.375 C 7.765625 0.375 6.125 -0.191406 5.09375 -1.328125 C 4.070312 -2.472656 3.5625 -4.179688 3.5625 -6.453125 L 3.5625 -16.40625 L 0.859375 -16.40625 L 0.859375 -18.78125 L 3.96875 -20.65625 L 5.59375 -25.015625 L 9.1875 -25.015625 L 9.1875 -20.625 L 14.96875 -20.625 L 14.96875 -16.40625 L 9.1875 -16.40625 L 9.1875 -6.453125 C 9.1875 -5.648438 9.410156 -5.054688 9.859375 -4.671875 C 10.304688 -4.296875 10.898438 -4.109375 11.640625 -4.109375 Z M 11.640625 -4.109375 "/></g></g></g><g fill="#1d2633" fill-opacity="1"><g transform="translate(318.274439, 227.742703)"><g><path d="M 16.203125 -26.671875 L 19.484375 -26.671875 C 22.691406 -26.671875 25.0625 -27.203125 26.59375 -28.265625 C 28.125 -29.335938 28.890625 -31.023438 28.890625 -33.328125 C 28.890625 -35.597656 28.109375 -37.210938 26.546875 -38.171875 C 24.984375 -39.140625 22.5625 -39.625 19.28125 -39.625 L 16.203125 -39.625 Z M 16.203125 -18.40625 L 16.203125 0 L 6.03125 0 L 6.03125 -47.953125 L 20 -47.953125 C 26.519531 -47.953125 31.34375 -46.765625 34.46875 -44.390625 C 37.59375 -42.015625 39.15625 -38.414062 39.15625 -33.59375 C 39.15625 -30.769531 38.378906 -28.257812 36.828125 -26.0625 C 35.273438 -23.863281 33.078125 -22.140625 30.234375 -20.890625 C 37.453125 -10.109375 42.15625 -3.144531 44.34375 0 L 33.0625 0 L 21.609375 -18.40625 Z M 16.203125 -18.40625 "/></g></g></g><g fill="#1d2633" fill-opacity="1"><g transform="translate(362.61653, 227.742703)"><g><path d="M 45.0625 -47.953125 L 45.0625 -16.921875 C 45.0625 -13.378906 44.269531 -10.273438 42.6875 -7.609375 C 41.101562 -4.941406 38.8125 -2.894531 35.8125 -1.46875 C 32.820312 -0.0507812 29.28125 0.65625 25.1875 0.65625 C 19.019531 0.65625 14.226562 -0.921875 10.8125 -4.078125 C 7.40625 -7.242188 5.703125 -11.570312 5.703125 -17.0625 L 5.703125 -47.953125 L 15.84375 -47.953125 L 15.84375 -18.59375 C 15.84375 -14.894531 16.582031 -12.179688 18.0625 -10.453125 C 19.550781 -8.734375 22.015625 -7.875 25.453125 -7.875 C 28.773438 -7.875 31.1875 -8.742188 32.6875 -10.484375 C 34.1875 -12.222656 34.9375 -14.945312 34.9375 -18.65625 L 34.9375 -47.953125 Z M 45.0625 -47.953125 "/></g></g></g><g fill="#1d2633" fill-opacity="1"><g transform="translate(413.386912, 227.742703)"><g><path d="M 48.578125 0 L 35.65625 0 L 14.796875 -36.28125 L 14.5 -36.28125 C 14.914062 -29.875 15.125 -25.300781 15.125 -22.5625 L 15.125 0 L 6.03125 0 L 6.03125 -47.953125 L 18.859375 -47.953125 L 39.6875 -12.03125 L 39.921875 -12.03125 C 39.585938 -18.269531 39.421875 -22.675781 39.421875 -25.25 L 39.421875 -47.953125 L 48.578125 -47.953125 Z M 48.578125 0 "/></g></g></g><g fill="#1d2633" fill-opacity="1"><g transform="translate(467.994596, 227.742703)"><g/></g></g><g fill="#1d2633" fill-opacity="1"><g transform="translate(485.442816, 227.742703)"><g><path d="M 35.390625 0 L 31.90625 -11.40625 L 14.4375 -11.40625 L 10.953125 0 L 0 0 L 16.921875 -48.15625 L 29.359375 -48.15625 L 46.34375 0 Z M 29.484375 -19.9375 C 26.273438 -30.28125 24.46875 -36.128906 24.0625 -37.484375 C 23.65625 -38.835938 23.363281 -39.910156 23.1875 -40.703125 C 22.46875 -37.898438 20.398438 -30.976562 16.984375 -19.9375 Z M 29.484375 -19.9375 "/></g></g></g><g fill="#1d2633" fill-opacity="1"><g transform="translate(531.785554, 227.742703)"><g/></g></g><g fill="#1d2633" fill-opacity="1"><g transform="translate(549.233773, 227.742703)"><g><path d="M 6.03125 -47.953125 L 20.953125 -47.953125 C 27.753906 -47.953125 32.691406 -46.984375 35.765625 -45.046875 C 38.835938 -43.109375 40.375 -40.03125 40.375 -35.8125 C 40.375 -32.945312 39.703125 -30.597656 38.359375 -28.765625 C 37.015625 -26.929688 35.226562 -25.828125 33 -25.453125 L 33 -25.125 C 36.03125 -24.445312 38.21875 -23.175781 39.5625 -21.3125 C 40.914062 -19.457031 41.59375 -16.988281 41.59375 -13.90625 C 41.59375 -9.53125 40.007812 -6.117188 36.84375 -3.671875 C 33.6875 -1.222656 29.394531 0 23.96875 0 L 6.03125 0 Z M 16.203125 -28.96875 L 22.109375 -28.96875 C 24.859375 -28.96875 26.847656 -29.390625 28.078125 -30.234375 C 29.316406 -31.085938 29.9375 -32.5 29.9375 -34.46875 C 29.9375 -36.3125 29.265625 -37.628906 27.921875 -38.421875 C 26.578125 -39.222656 24.453125 -39.625 21.546875 -39.625 L 16.203125 -39.625 Z M 16.203125 -20.890625 L 16.203125 -8.390625 L 22.828125 -8.390625 C 25.628906 -8.390625 27.695312 -8.925781 29.03125 -10 C 30.363281 -11.070312 31.03125 -12.710938 31.03125 -14.921875 C 31.03125 -18.898438 28.1875 -20.890625 22.5 -20.890625 Z M 16.203125 -20.890625 "/></g></g></g><g fill="#1d2633" fill-opacity="1"><g transform="translate(594.363002, 227.742703)"><g><path d="M 6.03125 0 L 6.03125 -47.953125 L 16.203125 -47.953125 L 16.203125 -8.390625 L 35.65625 -8.390625 L 35.65625 0 Z M 6.03125 0 "/></g></g></g><g fill="#1d2633" fill-opacity="1"><g transform="translate(632.309617, 227.742703)"><g><path d="M 35.390625 0 L 31.90625 -11.40625 L 14.4375 -11.40625 L 10.953125 0 L 0 0 L 16.921875 -48.15625 L 29.359375 -48.15625 L 46.34375 0 Z M 29.484375 -19.9375 C 26.273438 -30.28125 24.46875 -36.128906 24.0625 -37.484375 C 23.65625 -38.835938 23.363281 -39.910156 23.1875 -40.703125 C 22.46875 -37.898438 20.398438 -30.976562 16.984375 -19.9375 Z M 29.484375 -19.9375 "/></g></g></g><g fill="#1d2633" fill-opacity="1"><g transform="translate(678.652343, 227.742703)"><g><path d="M 34.34375 -13.3125 C 34.34375 -8.988281 32.785156 -5.578125 29.671875 -3.078125 C 26.554688 -0.585938 22.21875 0.65625 16.65625 0.65625 C 11.539062 0.65625 7.015625 -0.304688 3.078125 -2.234375 L 3.078125 -11.671875 C 6.316406 -10.234375 9.054688 -9.21875 11.296875 -8.625 C 13.535156 -8.03125 15.585938 -7.734375 17.453125 -7.734375 C 19.679688 -7.734375 21.390625 -8.160156 22.578125 -9.015625 C 23.773438 -9.867188 24.375 -11.140625 24.375 -12.828125 C 24.375 -13.765625 24.109375 -14.597656 23.578125 -15.328125 C 23.054688 -16.066406 22.285156 -16.773438 21.265625 -17.453125 C 20.253906 -18.128906 18.179688 -19.210938 15.046875 -20.703125 C 12.117188 -22.078125 9.921875 -23.394531 8.453125 -24.65625 C 6.992188 -25.925781 5.828125 -27.40625 4.953125 -29.09375 C 4.078125 -30.78125 3.640625 -32.75 3.640625 -35 C 3.640625 -39.238281 5.078125 -42.570312 7.953125 -45 C 10.828125 -47.425781 14.800781 -48.640625 19.875 -48.640625 C 22.363281 -48.640625 24.738281 -48.34375 27 -47.75 C 29.269531 -47.164062 31.640625 -46.335938 34.109375 -45.265625 L 30.828125 -37.359375 C 28.273438 -38.410156 26.160156 -39.140625 24.484375 -39.546875 C 22.804688 -39.960938 21.160156 -40.171875 19.546875 -40.171875 C 17.617188 -40.171875 16.140625 -39.722656 15.109375 -38.828125 C 14.085938 -37.929688 13.578125 -36.765625 13.578125 -35.328125 C 13.578125 -34.429688 13.785156 -33.648438 14.203125 -32.984375 C 14.617188 -32.316406 15.28125 -31.671875 16.1875 -31.046875 C 17.09375 -30.421875 19.238281 -29.300781 22.625 -27.6875 C 27.113281 -25.539062 30.1875 -23.390625 31.84375 -21.234375 C 33.507812 -19.078125 34.34375 -16.4375 34.34375 -13.3125 Z M 34.34375 -13.3125 "/></g></g></g><g fill="#1d2633" fill-opacity="1"><g transform="translate(715.647815, 227.742703)"><g><path d="M 24.53125 0 L 14.359375 0 L 14.359375 -39.484375 L 1.34375 -39.484375 L 1.34375 -47.953125 L 37.546875 -47.953125 L 37.546875 -39.484375 L 24.53125 -39.484375 Z M 24.53125 0 "/></g></g></g><g fill="#1d2633" fill-opacity="1"><g transform="translate(318.274439, 321.417808)"><g><path d="M 16.03125 0 L 6.03125 0 L 6.03125 -47.953125 L 33.515625 -47.953125 L 33.515625 -39.625 L 16.03125 -39.625 L 16.03125 -27.25 L 32.3125 -27.25 L 32.3125 -18.953125 L 16.03125 -18.953125 Z M 16.03125 0 "/></g></g></g><g fill="#1d2633" fill-opacity="1"><g transform="translate(355.138722, 321.417808)"><g><path d="M 49.5625 -24.046875 C 49.5625 -16.109375 47.59375 -10.003906 43.65625 -5.734375 C 39.71875 -1.472656 34.078125 0.65625 26.734375 0.65625 C 19.378906 0.65625 13.734375 -1.472656 9.796875 -5.734375 C 5.867188 -10.003906 3.90625 -16.128906 3.90625 -24.109375 C 3.90625 -32.085938 5.878906 -38.179688 9.828125 -42.390625 C 13.773438 -46.597656 19.429688 -48.703125 26.796875 -48.703125 C 34.160156 -48.703125 39.796875 -46.582031 43.703125 -42.34375 C 47.609375 -38.101562 49.5625 -32.003906 49.5625 -24.046875 Z M 14.5625 -24.046875 C 14.5625 -18.679688 15.578125 -14.644531 17.609375 -11.9375 C 19.640625 -9.226562 22.679688 -7.875 26.734375 -7.875 C 34.847656 -7.875 38.90625 -13.265625 38.90625 -24.046875 C 38.90625 -34.847656 34.867188 -40.25 26.796875 -40.25 C 22.753906 -40.25 19.703125 -38.882812 17.640625 -36.15625 C 15.585938 -33.4375 14.5625 -29.398438 14.5625 -24.046875 Z M 14.5625 -24.046875 "/></g></g></g><g fill="#1d2633" fill-opacity="1"><g transform="translate(408.598491, 321.417808)"><g><path d="M 16.203125 -26.671875 L 19.484375 -26.671875 C 22.691406 -26.671875 25.0625 -27.203125 26.59375 -28.265625 C 28.125 -29.335938 28.890625 -31.023438 28.890625 -33.328125 C 28.890625 -35.597656 28.109375 -37.210938 26.546875 -38.171875 C 24.984375 -39.140625 22.5625 -39.625 19.28125 -39.625 L 16.203125 -39.625 Z M 16.203125 -18.40625 L 16.203125 0 L 6.03125 0 L 6.03125 -47.953125 L 20 -47.953125 C 26.519531 -47.953125 31.34375 -46.765625 34.46875 -44.390625 C 37.59375 -42.015625 39.15625 -38.414062 39.15625 -33.59375 C 39.15625 -30.769531 38.378906 -28.257812 36.828125 -26.0625 C 35.273438 -23.863281 33.078125 -22.140625 30.234375 -20.890625 C 37.453125 -10.109375 42.15625 -3.144531 44.34375 0 L 33.0625 0 L 21.609375 -18.40625 Z M 16.203125 -18.40625 "/></g></g></g><g fill="#1d2633" fill-opacity="1"><g transform="translate(452.940582, 321.417808)"><g/></g></g><g fill="#1d2633" fill-opacity="1"><g transform="translate(470.388801, 321.417808)"><g><path d="M 24.53125 0 L 14.359375 0 L 14.359375 -39.484375 L 1.34375 -39.484375 L 1.34375 -47.953125 L 37.546875 -47.953125 L 37.546875 -39.484375 L 24.53125 -39.484375 Z M 24.53125 0 "/></g></g></g><g fill="#1d2633" fill-opacity="1"><g transform="translate(509.286523, 321.417808)"><g><path d="M 45.328125 0 L 35.1875 0 L 35.1875 -20.703125 L 16.203125 -20.703125 L 16.203125 0 L 6.03125 0 L 6.03125 -47.953125 L 16.203125 -47.953125 L 16.203125 -29.15625 L 35.1875 -29.15625 L 35.1875 -47.953125 L 45.328125 -47.953125 Z M 45.328125 0 "/></g></g></g><g fill="#1d2633" fill-opacity="1"><g transform="translate(560.680062, 321.417808)"><g><path d="M 6.03125 0 L 6.03125 -47.953125 L 16.203125 -47.953125 L 16.203125 0 Z M 6.03125 0 "/></g></g></g><g fill="#1d2633" fill-opacity="1"><g transform="translate(582.91669, 321.417808)"><g><path d="M 34.34375 -13.3125 C 34.34375 -8.988281 32.785156 -5.578125 29.671875 -3.078125 C 26.554688 -0.585938 22.21875 0.65625 16.65625 0.65625 C 11.539062 0.65625 7.015625 -0.304688 3.078125 -2.234375 L 3.078125 -11.671875 C 6.316406 -10.234375 9.054688 -9.21875 11.296875 -8.625 C 13.535156 -8.03125 15.585938 -7.734375 17.453125 -7.734375 C 19.679688 -7.734375 21.390625 -8.160156 22.578125 -9.015625 C 23.773438 -9.867188 24.375 -11.140625 24.375 -12.828125 C 24.375 -13.765625 24.109375 -14.597656 23.578125 -15.328125 C 23.054688 -16.066406 22.285156 -16.773438 21.265625 -17.453125 C 20.253906 -18.128906 18.179688 -19.210938 15.046875 -20.703125 C 12.117188 -22.078125 9.921875 -23.394531 8.453125 -24.65625 C 6.992188 -25.925781 5.828125 -27.40625 4.953125 -29.09375 C 4.078125 -30.78125 3.640625 -32.75 3.640625 -35 C 3.640625 -39.238281 5.078125 -42.570312 7.953125 -45 C 10.828125 -47.425781 14.800781 -48.640625 19.875 -48.640625 C 22.363281 -48.640625 24.738281 -48.34375 27 -47.75 C 29.269531 -47.164062 31.640625 -46.335938 34.109375 -45.265625 L 30.828125 -37.359375 C 28.273438 -38.410156 26.160156 -39.140625 24.484375 -39.546875 C 22.804688 -39.960938 21.160156 -40.171875 19.546875 -40.171875 C 17.617188 -40.171875 16.140625 -39.722656 15.109375 -38.828125 C 14.085938 -37.929688 13.578125 -36.765625 13.578125 -35.328125 C 13.578125 -34.429688 13.785156 -33.648438 14.203125 -32.984375 C 14.617188 -32.316406 15.28125 -31.671875 16.1875 -31.046875 C 17.09375 -30.421875 19.238281 -29.300781 22.625 -27.6875 C 27.113281 -25.539062 30.1875 -23.390625 31.84375 -21.234375 C 33.507812 -19.078125 34.34375 -16.4375 34.34375 -13.3125 Z M 34.34375 -13.3125 "/></g></g></g><g fill="#1d2633" fill-opacity="1"><g transform="translate(318.274439, 415.092912)"><g><path d="M 34.34375 -13.3125 C 34.34375 -8.988281 32.785156 -5.578125 29.671875 -3.078125 C 26.554688 -0.585938 22.21875 0.65625 16.65625 0.65625 C 11.539062 0.65625 7.015625 -0.304688 3.078125 -2.234375 L 3.078125 -11.671875 C 6.316406 -10.234375 9.054688 -9.21875 11.296875 -8.625 C 13.535156 -8.03125 15.585938 -7.734375 17.453125 -7.734375 C 19.679688 -7.734375 21.390625 -8.160156 22.578125 -9.015625 C 23.773438 -9.867188 24.375 -11.140625 24.375 -12.828125 C 24.375 -13.765625 24.109375 -14.597656 23.578125 -15.328125 C 23.054688 -16.066406 22.285156 -16.773438 21.265625 -17.453125 C 20.253906 -18.128906 18.179688 -19.210938 15.046875 -20.703125 C 12.117188 -22.078125 9.921875 -23.394531 8.453125 -24.65625 C 6.992188 -25.925781 5.828125 -27.40625 4.953125 -29.09375 C 4.078125 -30.78125 3.640625 -32.75 3.640625 -35 C 3.640625 -39.238281 5.078125 -42.570312 7.953125 -45 C 10.828125 -47.425781 14.800781 -48.640625 19.875 -48.640625 C 22.363281 -48.640625 24.738281 -48.34375 27 -47.75 C 29.269531 -47.164062 31.640625 -46.335938 34.109375 -45.265625 L 30.828125 -37.359375 C 28.273438 -38.410156 26.160156 -39.140625 24.484375 -39.546875 C 22.804688 -39.960938 21.160156 -40.171875 19.546875 -40.171875 C 17.617188 -40.171875 16.140625 -39.722656 15.109375 -38.828125 C 14.085938 -37.929688 13.578125 -36.765625 13.578125 -35.328125 C 13.578125 -34.429688 13.785156 -33.648438 14.203125 -32.984375 C 14.617188 -32.316406 15.28125 -31.671875 16.1875 -31.046875 C 17.09375 -30.421875 19.238281 -29.300781 22.625 -27.6875 C 27.113281 -25.539062 30.1875 -23.390625 31.84375 -21.234375 C 33.507812 -19.078125 34.34375 -16.4375 34.34375 -13.3125 Z M 34.34375 -13.3125 "/></g></g></g><g fill="#1d2633" fill-opacity="1"><g transform="translate(355.269911, 415.092912)"><g><path d="M 33.65625 0 L 6.03125 0 L 6.03125 -47.953125 L 33.65625 -47.953125 L 33.65625 -39.625 L 16.203125 -39.625 L 16.203125 -29.09375 L 32.4375 -29.09375 L 32.4375 -20.765625 L 16.203125 -20.765625 L 16.203125 -8.390625 L 33.65625 -8.390625 Z M 33.65625 0 "/></g></g></g><g fill="#1d2633" fill-opacity="1"><g transform="translate(392.88854, 415.092912)"><g><path d="M 49.5625 -24.046875 C 49.5625 -18.398438 48.5625 -13.664062 46.5625 -9.84375 C 44.5625 -6.03125 41.625 -3.238281 37.75 -1.46875 L 49.296875 11.40625 L 36.28125 11.40625 L 27.484375 0.65625 L 26.734375 0.65625 C 19.378906 0.65625 13.734375 -1.472656 9.796875 -5.734375 C 5.867188 -10.003906 3.90625 -16.128906 3.90625 -24.109375 C 3.90625 -32.085938 5.878906 -38.179688 9.828125 -42.390625 C 13.773438 -46.597656 19.429688 -48.703125 26.796875 -48.703125 C 34.160156 -48.703125 39.796875 -46.582031 43.703125 -42.34375 C 47.609375 -38.101562 49.5625 -32.003906 49.5625 -24.046875 Z M 14.5625 -24.046875 C 14.5625 -18.679688 15.578125 -14.644531 17.609375 -11.9375 C 19.640625 -9.226562 22.679688 -7.875 26.734375 -7.875 C 34.847656 -7.875 38.90625 -13.265625 38.90625 -24.046875 C 38.90625 -34.847656 34.867188 -40.25 26.796875 -40.25 C 22.753906 -40.25 19.703125 -38.882812 17.640625 -36.15625 C 15.585938 -33.4375 14.5625 -29.398438 14.5625 -24.046875 Z M 14.5625 -24.046875 "/></g></g></g><g fill="#1d2633" fill-opacity="1"><g transform="translate(446.348309, 415.092912)"><g><path d="M 45.0625 -47.953125 L 45.0625 -16.921875 C 45.0625 -13.378906 44.269531 -10.273438 42.6875 -7.609375 C 41.101562 -4.941406 38.8125 -2.894531 35.8125 -1.46875 C 32.820312 -0.0507812 29.28125 0.65625 25.1875 0.65625 C 19.019531 0.65625 14.226562 -0.921875 10.8125 -4.078125 C 7.40625 -7.242188 5.703125 -11.570312 5.703125 -17.0625 L 5.703125 -47.953125 L 15.84375 -47.953125 L 15.84375 -18.59375 C 15.84375 -14.894531 16.582031 -12.179688 18.0625 -10.453125 C 19.550781 -8.734375 22.015625 -7.875 25.453125 -7.875 C 28.773438 -7.875 31.1875 -8.742188 32.6875 -10.484375 C 34.1875 -12.222656 34.9375 -14.945312 34.9375 -18.65625 L 34.9375 -47.953125 Z M 45.0625 -47.953125 "/></g></g></g><g fill="#1d2633" fill-opacity="1"><g transform="translate(497.118691, 415.092912)"><g><path d="M 33.65625 0 L 6.03125 0 L 6.03125 -47.953125 L 33.65625 -47.953125 L 33.65625 -39.625 L 16.203125 -39.625 L 16.203125 -29.09375 L 32.4375 -29.09375 L 32.4375 -20.765625 L 16.203125 -20.765625 L 16.203125 -8.390625 L 33.65625 -8.390625 Z M 33.65625 0 "/></g></g></g><g fill="#1d2633" fill-opacity="1"><g transform="translate(534.737308, 415.092912)"><g><path d="M 48.578125 0 L 35.65625 0 L 14.796875 -36.28125 L 14.5 -36.28125 C 14.914062 -29.875 15.125 -25.300781 15.125 -22.5625 L 15.125 0 L 6.03125 0 L 6.03125 -47.953125 L 18.859375 -47.953125 L 39.6875 -12.03125 L 39.921875 -12.03125 C 39.585938 -18.269531 39.421875 -22.675781 39.421875 -25.25 L 39.421875 -47.953125 L 48.578125 -47.953125 Z M 48.578125 0 "/></g></g></g><g fill="#1d2633" fill-opacity="1"><g transform="translate(589.345004, 415.092912)"><g><path d="M 26.40625 -40.171875 C 22.570312 -40.171875 19.601562 -38.734375 17.5 -35.859375 C 15.40625 -32.984375 14.359375 -28.976562 14.359375 -23.84375 C 14.359375 -13.15625 18.375 -7.8125 26.40625 -7.8125 C 29.769531 -7.8125 33.847656 -8.648438 38.640625 -10.328125 L 38.640625 -1.796875 C 34.703125 -0.160156 30.304688 0.65625 25.453125 0.65625 C 18.472656 0.65625 13.132812 -1.457031 9.4375 -5.6875 C 5.75 -9.914062 3.90625 -15.988281 3.90625 -23.90625 C 3.90625 -28.894531 4.8125 -33.265625 6.625 -37.015625 C 8.4375 -40.765625 11.039062 -43.640625 14.4375 -45.640625 C 17.84375 -47.640625 21.832031 -48.640625 26.40625 -48.640625 C 31.0625 -48.640625 35.738281 -47.515625 40.4375 -45.265625 L 37.15625 -37 C 35.363281 -37.851562 33.5625 -38.59375 31.75 -39.21875 C 29.9375 -39.851562 28.15625 -40.171875 26.40625 -40.171875 Z M 26.40625 -40.171875 "/></g></g></g><g fill="#1d2633" fill-opacity="1"><g transform="translate(632.145635, 415.092912)"><g><path d="M 33.65625 0 L 6.03125 0 L 6.03125 -47.953125 L 33.65625 -47.953125 L 33.65625 -39.625 L 16.203125 -39.625 L 16.203125 -29.09375 L 32.4375 -29.09375 L 32.4375 -20.765625 L 16.203125 -20.765625 L 16.203125 -8.390625 L 33.65625 -8.390625 Z M 33.65625 0 "/></g></g></g><g fill="#1d2633" fill-opacity="1"><g transform="translate(318.274439, 483.261039)"><g><path d="M 13.796875 0 L 8.078125 0 L 8.078125 -22.21875 L 0.75 -22.21875 L 0.75 -26.96875 L 21.125 -26.96875 L 21.125 -22.21875 L 13.796875 -22.21875 Z M 13.796875 0 "/></g></g><g transform="translate(340.155743, 483.261039)"><g><path d="M 7.4375 -10.34375 C 7.4375 -8.300781 7.769531 -6.757812 8.4375 -5.71875 C 9.113281 -4.675781 10.207031 -4.15625 11.71875 -4.15625 C 13.21875 -4.15625 14.296875 -4.671875 14.953125 -5.703125 C 15.609375 -6.742188 15.9375 -8.289062 15.9375 -10.34375 C 15.9375 -12.382812 15.601562 -13.914062 14.9375 -14.9375 C 14.28125 -15.957031 13.191406 -16.46875 11.671875 -16.46875 C 10.171875 -16.46875 9.085938 -15.960938 8.421875 -14.953125 C 7.765625 -13.941406 7.4375 -12.40625 7.4375 -10.34375 Z M 21.6875 -10.34375 C 21.6875 -6.988281 20.800781 -4.363281 19.03125 -2.46875 C 17.257812 -0.570312 14.796875 0.375 11.640625 0.375 C 9.660156 0.375 7.910156 -0.0546875 6.390625 -0.921875 C 4.878906 -1.796875 3.71875 -3.046875 2.90625 -4.671875 C 2.101562 -6.296875 1.703125 -8.1875 1.703125 -10.34375 C 1.703125 -13.71875 2.578125 -16.335938 4.328125 -18.203125 C 6.085938 -20.078125 8.5625 -21.015625 11.75 -21.015625 C 13.726562 -21.015625 15.472656 -20.582031 16.984375 -19.71875 C 18.503906 -18.851562 19.664062 -17.613281 20.46875 -16 C 21.28125 -14.394531 21.6875 -12.507812 21.6875 -10.34375 Z M 21.6875 -10.34375 "/></g></g><g transform="translate(363.54992, 483.261039)"><g/></g><g transform="translate(373.365143, 483.261039)"><g><path d="M 7.859375 0 L 0 -20.625 L 5.890625 -20.625 L 9.875 -8.875 C 10.3125 -7.382812 10.585938 -5.976562 10.703125 -4.65625 L 10.8125 -4.65625 C 10.875 -5.832031 11.148438 -7.238281 11.640625 -8.875 L 15.609375 -20.625 L 21.484375 -20.625 L 13.640625 0 Z M 7.859375 0 "/></g></g><g transform="translate(394.859004, 483.261039)"><g><path d="M 11.5 -17.015625 C 10.300781 -17.015625 9.363281 -16.632812 8.6875 -15.875 C 8.007812 -15.113281 7.625 -14.039062 7.53125 -12.65625 L 15.421875 -12.65625 C 15.398438 -14.039062 15.035156 -15.113281 14.328125 -15.875 C 13.628906 -16.632812 12.6875 -17.015625 11.5 -17.015625 Z M 12.28125 0.375 C 8.96875 0.375 6.375 -0.539062 4.5 -2.375 C 2.632812 -4.207031 1.703125 -6.804688 1.703125 -10.171875 C 1.703125 -13.617188 2.5625 -16.285156 4.28125 -18.171875 C 6.007812 -20.066406 8.398438 -21.015625 11.453125 -21.015625 C 14.367188 -21.015625 16.640625 -20.179688 18.265625 -18.515625 C 19.890625 -16.859375 20.703125 -14.566406 20.703125 -11.640625 L 20.703125 -8.90625 L 7.390625 -8.90625 C 7.453125 -7.3125 7.925781 -6.0625 8.8125 -5.15625 C 9.695312 -4.257812 10.941406 -3.8125 12.546875 -3.8125 C 13.785156 -3.8125 14.957031 -3.941406 16.0625 -4.203125 C 17.175781 -4.460938 18.332031 -4.875 19.53125 -5.4375 L 19.53125 -1.09375 C 18.550781 -0.59375 17.5 -0.222656 16.375 0.015625 C 15.257812 0.253906 13.894531 0.375 12.28125 0.375 Z M 12.28125 0.375 "/></g></g><g transform="translate(417.1831, 483.261039)"><g><path d="M 14.46875 -21.015625 C 15.226562 -21.015625 15.859375 -20.957031 16.359375 -20.84375 L 15.9375 -15.5625 C 15.476562 -15.6875 14.925781 -15.75 14.28125 -15.75 C 12.476562 -15.75 11.078125 -15.285156 10.078125 -14.359375 C 9.078125 -13.441406 8.578125 -12.15625 8.578125 -10.5 L 8.578125 0 L 2.953125 0 L 2.953125 -20.625 L 7.21875 -20.625 L 8.046875 -17.15625 L 8.3125 -17.15625 C 8.957031 -18.3125 9.820312 -19.242188 10.90625 -19.953125 C 12 -20.660156 13.1875 -21.015625 14.46875 -21.015625 Z M 14.46875 -21.015625 "/></g></g><g transform="translate(434.341289, 483.261039)"><g><path d="M 2.71875 -25.953125 C 2.71875 -27.785156 3.738281 -28.703125 5.78125 -28.703125 C 7.820312 -28.703125 8.84375 -27.785156 8.84375 -25.953125 C 8.84375 -25.078125 8.585938 -24.394531 8.078125 -23.90625 C 7.566406 -23.425781 6.800781 -23.1875 5.78125 -23.1875 C 3.738281 -23.1875 2.71875 -24.109375 2.71875 -25.953125 Z M 8.578125 0 L 2.953125 0 L 2.953125 -20.625 L 8.578125 -20.625 Z M 8.578125 0 "/></g></g><g transform="translate(445.87233, 483.261039)"><g><path d="M 14.359375 -16.40625 L 9.484375 -16.40625 L 9.484375 0 L 3.859375 0 L 3.859375 -16.40625 L 0.75 -16.40625 L 0.75 -19.109375 L 3.859375 -20.625 L 3.859375 -22.140625 C 3.859375 -24.484375 4.4375 -26.195312 5.59375 -27.28125 C 6.75 -28.363281 8.597656 -28.90625 11.140625 -28.90625 C 13.085938 -28.90625 14.816406 -28.617188 16.328125 -28.046875 L 14.890625 -23.90625 C 13.753906 -24.257812 12.707031 -24.4375 11.75 -24.4375 C 10.945312 -24.4375 10.367188 -24.195312 10.015625 -23.71875 C 9.660156 -23.25 9.484375 -22.648438 9.484375 -21.921875 L 9.484375 -20.625 L 14.359375 -20.625 Z M 14.359375 -16.40625 "/></g></g><g transform="translate(460.502915, 483.261039)"><g><path d="M 0 -20.625 L 6.15625 -20.625 L 10.046875 -9.015625 C 10.378906 -8.015625 10.609375 -6.820312 10.734375 -5.4375 L 10.84375 -5.4375 C 10.976562 -6.707031 11.242188 -7.898438 11.640625 -9.015625 L 15.453125 -20.625 L 21.484375 -20.625 L 12.765625 2.640625 C 11.960938 4.785156 10.820312 6.394531 9.34375 7.46875 C 7.863281 8.539062 6.132812 9.078125 4.15625 9.078125 C 3.175781 9.078125 2.222656 8.972656 1.296875 8.765625 L 1.296875 4.296875 C 1.972656 4.453125 2.707031 4.53125 3.5 4.53125 C 4.5 4.53125 5.367188 4.226562 6.109375 3.625 C 6.859375 3.019531 7.441406 2.097656 7.859375 0.859375 L 8.1875 -0.140625 Z M 0 -20.625 "/></g></g><g transform="translate(481.996776, 483.261039)"><g/></g><g transform="translate(491.811999, 483.261039)"><g><path d="M 11.640625 -4.109375 C 12.617188 -4.109375 13.800781 -4.328125 15.1875 -4.765625 L 15.1875 -0.578125 C 13.78125 0.0546875 12.054688 0.375 10.015625 0.375 C 7.765625 0.375 6.125 -0.191406 5.09375 -1.328125 C 4.070312 -2.472656 3.5625 -4.179688 3.5625 -6.453125 L 3.5625 -16.40625 L 0.859375 -16.40625 L 0.859375 -18.78125 L 3.96875 -20.65625 L 5.59375 -25.015625 L 9.1875 -25.015625 L 9.1875 -20.625 L 14.96875 -20.625 L 14.96875 -16.40625 L 9.1875 -16.40625 L 9.1875 -6.453125 C 9.1875 -5.648438 9.410156 -5.054688 9.859375 -4.671875 C 10.304688 -4.296875 10.898438 -4.109375 11.640625 -4.109375 Z M 11.640625 -4.109375 "/></g></g><g transform="translate(508.213752, 483.261039)"><g><path d="M 21.984375 0 L 16.359375 0 L 16.359375 -12.046875 C 16.359375 -15.023438 15.253906 -16.515625 13.046875 -16.515625 C 11.472656 -16.515625 10.332031 -15.976562 9.625 -14.90625 C 8.925781 -13.832031 8.578125 -12.097656 8.578125 -9.703125 L 8.578125 0 L 2.953125 0 L 2.953125 -28.703125 L 8.578125 -28.703125 L 8.578125 -22.859375 C 8.578125 -22.398438 8.535156 -21.328125 8.453125 -19.640625 L 8.3125 -17.984375 L 8.609375 -17.984375 C 9.867188 -20.003906 11.863281 -21.015625 14.59375 -21.015625 C 17.007812 -21.015625 18.84375 -20.359375 20.09375 -19.046875 C 21.351562 -17.742188 21.984375 -15.878906 21.984375 -13.453125 Z M 21.984375 0 "/></g></g><g transform="translate(533.047003, 483.261039)"><g><path d="M 11.5 -17.015625 C 10.300781 -17.015625 9.363281 -16.632812 8.6875 -15.875 C 8.007812 -15.113281 7.625 -14.039062 7.53125 -12.65625 L 15.421875 -12.65625 C 15.398438 -14.039062 15.035156 -15.113281 14.328125 -15.875 C 13.628906 -16.632812 12.6875 -17.015625 11.5 -17.015625 Z M 12.28125 0.375 C 8.96875 0.375 6.375 -0.539062 4.5 -2.375 C 2.632812 -4.207031 1.703125 -6.804688 1.703125 -10.171875 C 1.703125 -13.617188 2.5625 -16.285156 4.28125 -18.171875 C 6.007812 -20.066406 8.398438 -21.015625 11.453125 -21.015625 C 14.367188 -21.015625 16.640625 -20.179688 18.265625 -18.515625 C 19.890625 -16.859375 20.703125 -14.566406 20.703125 -11.640625 L 20.703125 -8.90625 L 7.390625 -8.90625 C 7.453125 -7.3125 7.925781 -6.0625 8.8125 -5.15625 C 9.695312 -4.257812 10.941406 -3.8125 12.546875 -3.8125 C 13.785156 -3.8125 14.957031 -3.941406 16.0625 -4.203125 C 17.175781 -4.460938 18.332031 -4.875 19.53125 -5.4375 L 19.53125 -1.09375 C 18.550781 -0.59375 17.5 -0.222656 16.375 0.015625 C 15.257812 0.253906 13.894531 0.375 12.28125 0.375 Z M 12.28125 0.375 "/></g></g><g transform="translate(555.371098, 483.261039)"><g/></g><g transform="translate(565.186321, 483.261039)"><g><path d="M 16.046875 0 L 14.96875 -2.796875 L 14.8125 -2.796875 C 13.863281 -1.609375 12.890625 -0.78125 11.890625 -0.3125 C 10.890625 0.144531 9.582031 0.375 7.96875 0.375 C 5.988281 0.375 4.429688 -0.191406 3.296875 -1.328125 C 2.160156 -2.460938 1.59375 -4.070312 1.59375 -6.15625 C 1.59375 -8.351562 2.359375 -9.96875 3.890625 -11 C 5.421875 -12.039062 7.726562 -12.617188 10.8125 -12.734375 L 14.390625 -12.84375 L 14.390625 -13.75 C 14.390625 -15.832031 13.316406 -16.875 11.171875 -16.875 C 9.523438 -16.875 7.59375 -16.378906 5.375 -15.390625 L 3.5 -19.1875 C 5.875 -20.425781 8.507812 -21.046875 11.40625 -21.046875 C 14.164062 -21.046875 16.285156 -20.441406 17.765625 -19.234375 C 19.242188 -18.035156 19.984375 -16.207031 19.984375 -13.75 L 19.984375 0 Z M 14.390625 -9.5625 L 12.21875 -9.484375 C 10.582031 -9.429688 9.363281 -9.132812 8.5625 -8.59375 C 7.757812 -8.050781 7.359375 -7.226562 7.359375 -6.125 C 7.359375 -4.539062 8.269531 -3.75 10.09375 -3.75 C 11.394531 -3.75 12.4375 -4.125 13.21875 -4.875 C 14 -5.625 14.390625 -6.617188 14.390625 -7.859375 Z M 14.390625 -9.5625 "/></g></g><g transform="translate(588.008558, 483.261039)"><g><path d="M 8.578125 0 L 2.953125 0 L 2.953125 -28.703125 L 8.578125 -28.703125 Z M 8.578125 0 "/></g></g><g transform="translate(599.539599, 483.261039)"><g><path d="M 2.71875 -25.953125 C 2.71875 -27.785156 3.738281 -28.703125 5.78125 -28.703125 C 7.820312 -28.703125 8.84375 -27.785156 8.84375 -25.953125 C 8.84375 -25.078125 8.585938 -24.394531 8.078125 -23.90625 C 7.566406 -23.425781 6.800781 -23.1875 5.78125 -23.1875 C 3.738281 -23.1875 2.71875 -24.109375 2.71875 -25.953125 Z M 8.578125 0 L 2.953125 0 L 2.953125 -20.625 L 8.578125 -20.625 Z M 8.578125 0 "/></g></g><g transform="translate(611.070641, 483.261039)"><g><path d="M 20.90625 -20.625 L 20.90625 -17.765625 L 17.671875 -16.9375 C 18.265625 -16.007812 18.5625 -14.972656 18.5625 -13.828125 C 18.5625 -11.617188 17.785156 -9.894531 16.234375 -8.65625 C 14.691406 -7.425781 12.550781 -6.8125 9.8125 -6.8125 L 8.796875 -6.859375 L 7.96875 -6.953125 C 7.394531 -6.515625 7.109375 -6.023438 7.109375 -5.484375 C 7.109375 -4.671875 8.140625 -4.265625 10.203125 -4.265625 L 13.703125 -4.265625 C 15.960938 -4.265625 17.6875 -3.773438 18.875 -2.796875 C 20.0625 -1.828125 20.65625 -0.40625 20.65625 1.46875 C 20.65625 3.882812 19.648438 5.753906 17.640625 7.078125 C 15.628906 8.410156 12.742188 9.078125 8.984375 9.078125 C 6.109375 9.078125 3.910156 8.570312 2.390625 7.5625 C 0.867188 6.5625 0.109375 5.160156 0.109375 3.359375 C 0.109375 2.117188 0.492188 1.078125 1.265625 0.234375 C 2.046875 -0.597656 3.1875 -1.191406 4.6875 -1.546875 C 4.101562 -1.796875 3.597656 -2.195312 3.171875 -2.75 C 2.742188 -3.3125 2.53125 -3.90625 2.53125 -4.53125 C 2.53125 -5.320312 2.753906 -5.976562 3.203125 -6.5 C 3.660156 -7.019531 4.320312 -7.535156 5.1875 -8.046875 C 4.101562 -8.515625 3.242188 -9.265625 2.609375 -10.296875 C 1.972656 -11.328125 1.65625 -12.546875 1.65625 -13.953125 C 1.65625 -16.203125 2.382812 -17.941406 3.84375 -19.171875 C 5.3125 -20.398438 7.40625 -21.015625 10.125 -21.015625 C 10.707031 -21.015625 11.394531 -20.960938 12.1875 -20.859375 C 12.976562 -20.753906 13.484375 -20.675781 13.703125 -20.625 Z M 4.984375 2.921875 C 4.984375 3.691406 5.351562 4.296875 6.09375 4.734375 C 6.84375 5.179688 7.882812 5.40625 9.21875 5.40625 C 11.238281 5.40625 12.820312 5.128906 13.96875 4.578125 C 15.113281 4.023438 15.6875 3.269531 15.6875 2.3125 C 15.6875 1.53125 15.347656 0.992188 14.671875 0.703125 C 13.992188 0.410156 12.945312 0.265625 11.53125 0.265625 L 8.609375 0.265625 C 7.578125 0.265625 6.710938 0.503906 6.015625 0.984375 C 5.328125 1.472656 4.984375 2.117188 4.984375 2.921875 Z M 7.03125 -13.875 C 7.03125 -12.75 7.285156 -11.859375 7.796875 -11.203125 C 8.304688 -10.554688 9.082031 -10.234375 10.125 -10.234375 C 11.1875 -10.234375 11.960938 -10.554688 12.453125 -11.203125 C 12.941406 -11.859375 13.1875 -12.75 13.1875 -13.875 C 13.1875 -16.351562 12.164062 -17.59375 10.125 -17.59375 C 8.0625 -17.59375 7.03125 -16.351562 7.03125 -13.875 Z M 7.03125 -13.875 "/></g></g><g transform="translate(632.416904, 483.261039)"><g><path d="M 21.984375 0 L 16.359375 0 L 16.359375 -12.046875 C 16.359375 -13.535156 16.09375 -14.648438 15.5625 -15.390625 C 15.039062 -16.140625 14.203125 -16.515625 13.046875 -16.515625 C 11.472656 -16.515625 10.332031 -15.988281 9.625 -14.9375 C 8.925781 -13.882812 8.578125 -12.140625 8.578125 -9.703125 L 8.578125 0 L 2.953125 0 L 2.953125 -20.625 L 7.25 -20.625 L 8 -17.984375 L 8.3125 -17.984375 C 8.945312 -18.984375 9.8125 -19.738281 10.90625 -20.25 C 12.007812 -20.757812 13.265625 -21.015625 14.671875 -21.015625 C 17.066406 -21.015625 18.882812 -20.363281 20.125 -19.0625 C 21.363281 -17.769531 21.984375 -15.898438 21.984375 -13.453125 Z M 21.984375 0 "/></g></g><g transform="translate(657.250155, 483.261039)"><g><path d="M 21.421875 0 L 15.796875 0 L 15.796875 -12.046875 C 15.796875 -13.535156 15.546875 -14.648438 15.046875 -15.390625 C 14.546875 -16.140625 13.757812 -16.515625 12.6875 -16.515625 C 11.25 -16.515625 10.203125 -15.984375 9.546875 -14.921875 C 8.898438 -13.867188 8.578125 -12.128906 8.578125 -9.703125 L 8.578125 0 L 2.953125 0 L 2.953125 -20.625 L 7.25 -20.625 L 8 -17.984375 L 8.3125 -17.984375 C 8.875 -18.929688 9.675781 -19.671875 10.71875 -20.203125 C 11.757812 -20.742188 12.957031 -21.015625 14.3125 -21.015625 C 17.40625 -21.015625 19.5 -20.003906 20.59375 -17.984375 L 21.078125 -17.984375 C 21.640625 -18.941406 22.457031 -19.6875 23.53125 -20.21875 C 24.601562 -20.75 25.816406 -21.015625 27.171875 -21.015625 C 29.503906 -21.015625 31.269531 -20.414062 32.46875 -19.21875 C 33.675781 -18.019531 34.28125 -16.097656 34.28125 -13.453125 L 34.28125 0 L 28.625 0 L 28.625 -12.046875 C 28.625 -13.535156 28.375 -14.648438 27.875 -15.390625 C 27.382812 -16.140625 26.601562 -16.515625 25.53125 -16.515625 C 24.15625 -16.515625 23.125 -16.019531 22.4375 -15.03125 C 21.757812 -14.050781 21.421875 -12.488281 21.421875 -10.34375 Z M 21.421875 0 "/></g></g><g transform="translate(694.352433, 483.261039)"><g><path d="M 11.5 -17.015625 C 10.300781 -17.015625 9.363281 -16.632812 8.6875 -15.875 C 8.007812 -15.113281 7.625 -14.039062 7.53125 -12.65625 L 15.421875 -12.65625 C 15.398438 -14.039062 15.035156 -15.113281 14.328125 -15.875 C 13.628906 -16.632812 12.6875 -17.015625 11.5 -17.015625 Z M 12.28125 0.375 C 8.96875 0.375 6.375 -0.539062 4.5 -2.375 C 2.632812 -4.207031 1.703125 -6.804688 1.703125 -10.171875 C 1.703125 -13.617188 2.5625 -16.285156 4.28125 -18.171875 C 6.007812 -20.066406 8.398438 -21.015625 11.453125 -21.015625 C 14.367188 -21.015625 16.640625 -20.179688 18.265625 -18.515625 C 19.890625 -16.859375 20.703125 -14.566406 20.703125 -11.640625 L 20.703125 -8.90625 L 7.390625 -8.90625 C 7.453125 -7.3125 7.925781 -6.0625 8.8125 -5.15625 C 9.695312 -4.257812 10.941406 -3.8125 12.546875 -3.8125 C 13.785156 -3.8125 14.957031 -3.941406 16.0625 -4.203125 C 17.175781 -4.460938 18.332031 -4.875 19.53125 -5.4375 L 19.53125 -1.09375 C 18.550781 -0.59375 17.5 -0.222656 16.375 0.015625 C 15.257812 0.253906 13.894531 0.375 12.28125 0.375 Z M 12.28125 0.375 "/></g></g><g transform="translate(716.676529, 483.261039)"><g><path d="M 21.984375 0 L 16.359375 0 L 16.359375 -12.046875 C 16.359375 -13.535156 16.09375 -14.648438 15.5625 -15.390625 C 15.039062 -16.140625 14.203125 -16.515625 13.046875 -16.515625 C 11.472656 -16.515625 10.332031 -15.988281 9.625 -14.9375 C 8.925781 -13.882812 8.578125 -12.140625 8.578125 -9.703125 L 8.578125 0 L 2.953125 0 L 2.953125 -20.625 L 7.25 -20.625 L 8 -17.984375 L 8.3125 -17.984375 C 8.945312 -18.984375 9.8125 -19.738281 10.90625 -20.25 C 12.007812 -20.757812 13.265625 -21.015625 14.671875 -21.015625 C 17.066406 -21.015625 18.882812 -20.363281 20.125 -19.0625 C 21.363281 -17.769531 21.984375 -15.898438 21.984375 -13.453125 Z M 21.984375 0 "/></g></g><g transform="translate(741.509779, 483.261039)"><g><path d="M 11.640625 -4.109375 C 12.617188 -4.109375 13.800781 -4.328125 15.1875 -4.765625 L 15.1875 -0.578125 C 13.78125 0.0546875 12.054688 0.375 10.015625 0.375 C 7.765625 0.375 6.125 -0.191406 5.09375 -1.328125 C 4.070312 -2.472656 3.5625 -4.179688 3.5625 -6.453125 L 3.5625 -16.40625 L 0.859375 -16.40625 L 0.859375 -18.78125 L 3.96875 -20.65625 L 5.59375 -25.015625 L 9.1875 -25.015625 L 9.1875 -20.625 L 14.96875 -20.625 L 14.96875 -16.40625 L 9.1875 -16.40625 L 9.1875 -6.453125 C 9.1875 -5.648438 9.410156 -5.054688 9.859375 -4.671875 C 10.304688 -4.296875 10.898438 -4.109375 11.640625 -4.109375 Z M 11.640625 -4.109375 "/></g></g><g transform="translate(757.911532, 483.261039)"><g/></g><g transform="translate(767.726755, 483.261039)"><g><path d="M 7.4375 -10.34375 C 7.4375 -8.300781 7.769531 -6.757812 8.4375 -5.71875 C 9.113281 -4.675781 10.207031 -4.15625 11.71875 -4.15625 C 13.21875 -4.15625 14.296875 -4.671875 14.953125 -5.703125 C 15.609375 -6.742188 15.9375 -8.289062 15.9375 -10.34375 C 15.9375 -12.382812 15.601562 -13.914062 14.9375 -14.9375 C 14.28125 -15.957031 13.191406 -16.46875 11.671875 -16.46875 C 10.171875 -16.46875 9.085938 -15.960938 8.421875 -14.953125 C 7.765625 -13.941406 7.4375 -12.40625 7.4375 -10.34375 Z M 21.6875 -10.34375 C 21.6875 -6.988281 20.800781 -4.363281 19.03125 -2.46875 C 17.257812 -0.570312 14.796875 0.375 11.640625 0.375 C 9.660156 0.375 7.910156 -0.0546875 6.390625 -0.921875 C 4.878906 -1.796875 3.71875 -3.046875 2.90625 -4.671875 C 2.101562 -6.296875 1.703125 -8.1875 1.703125 -10.34375 C 1.703125 -13.71875 2.578125 -16.335938 4.328125 -18.203125 C 6.085938 -20.078125 8.5625 -21.015625 11.75 -21.015625 C 13.726562 -21.015625 15.472656 -20.582031 16.984375 -19.71875 C 18.503906 -18.851562 19.664062 -17.613281 20.46875 -16 C 21.28125 -14.394531 21.6875 -12.507812 21.6875 -10.34375 Z M 21.6875 -10.34375 "/></g></g><g transform="translate(791.120932, 483.261039)"><g><path d="M 14.359375 -16.40625 L 9.484375 -16.40625 L 9.484375 0 L 3.859375 0 L 3.859375 -16.40625 L 0.75 -16.40625 L 0.75 -19.109375 L 3.859375 -20.625 L 3.859375 -22.140625 C 3.859375 -24.484375 4.4375 -26.195312 5.59375 -27.28125 C 6.75 -28.363281 8.597656 -28.90625 11.140625 -28.90625 C 13.085938 -28.90625 14.816406 -28.617188 16.328125 -28.046875 L 14.890625 -23.90625 C 13.753906 -24.257812 12.707031 -24.4375 11.75 -24.4375 C 10.945312 -24.4375 10.367188 -24.195312 10.015625 -23.71875 C 9.660156 -23.25 9.484375 -22.648438 9.484375 -21.921875 L 9.484375 -20.625 L 14.359375 -20.625 Z M 14.359375 -16.40625 "/></g></g></g><g fill="#1d2633" fill-opacity="1"><g transform="translate(318.274439, 536.002484)"><g><path d="M 11.640625 -4.109375 C 12.617188 -4.109375 13.800781 -4.328125 15.1875 -4.765625 L 15.1875 -0.578125 C 13.78125 0.0546875 12.054688 0.375 10.015625 0.375 C 7.765625 0.375 6.125 -0.191406 5.09375 -1.328125 C 4.070312 -2.472656 3.5625 -4.179688 3.5625 -6.453125 L 3.5625 -16.40625 L 0.859375 -16.40625 L 0.859375 -18.78125 L 3.96875 -20.65625 L 5.59375 -25.015625 L 9.1875 -25.015625 L 9.1875 -20.625 L 14.96875 -20.625 L 14.96875 -16.40625 L 9.1875 -16.40625 L 9.1875 -6.453125 C 9.1875 -5.648438 9.410156 -5.054688 9.859375 -4.671875 C 10.304688 -4.296875 10.898438 -4.109375 11.640625 -4.109375 Z M 11.640625 -4.109375 "/></g></g><g transform="translate(334.676193, 536.002484)"><g><path d="M 21.984375 0 L 16.359375 0 L 16.359375 -12.046875 C 16.359375 -15.023438 15.253906 -16.515625 13.046875 -16.515625 C 11.472656 -16.515625 10.332031 -15.976562 9.625 -14.90625 C 8.925781 -13.832031 8.578125 -12.097656 8.578125 -9.703125 L 8.578125 0 L 2.953125 0 L 2.953125 -28.703125 L 8.578125 -28.703125 L 8.578125 -22.859375 C 8.578125 -22.398438 8.535156 -21.328125 8.453125 -19.640625 L 8.3125 -17.984375 L 8.609375 -17.984375 C 9.867188 -20.003906 11.863281 -21.015625 14.59375 -21.015625 C 17.007812 -21.015625 18.84375 -20.359375 20.09375 -19.046875 C 21.351562 -17.742188 21.984375 -15.878906 21.984375 -13.453125 Z M 21.984375 0 "/></g></g><g transform="translate(359.509443, 536.002484)"><g><path d="M 2.71875 -25.953125 C 2.71875 -27.785156 3.738281 -28.703125 5.78125 -28.703125 C 7.820312 -28.703125 8.84375 -27.785156 8.84375 -25.953125 C 8.84375 -25.078125 8.585938 -24.394531 8.078125 -23.90625 C 7.566406 -23.425781 6.800781 -23.1875 5.78125 -23.1875 C 3.738281 -23.1875 2.71875 -24.109375 2.71875 -25.953125 Z M 8.578125 0 L 2.953125 0 L 2.953125 -20.625 L 8.578125 -20.625 Z M 8.578125 0 "/></g></g><g transform="translate(371.040484, 536.002484)"><g><path d="M 17.34375 -6.125 C 17.34375 -4.007812 16.609375 -2.394531 15.140625 -1.28125 C 13.671875 -0.175781 11.472656 0.375 8.546875 0.375 C 7.046875 0.375 5.765625 0.269531 4.703125 0.0625 C 3.648438 -0.132812 2.660156 -0.429688 1.734375 -0.828125 L 1.734375 -5.484375 C 2.773438 -4.984375 3.953125 -4.566406 5.265625 -4.234375 C 6.578125 -3.910156 7.726562 -3.75 8.71875 -3.75 C 10.757812 -3.75 11.78125 -4.335938 11.78125 -5.515625 C 11.78125 -5.960938 11.644531 -6.320312 11.375 -6.59375 C 11.101562 -6.875 10.632812 -7.1875 9.96875 -7.53125 C 9.3125 -7.882812 8.429688 -8.296875 7.328125 -8.765625 C 5.734375 -9.429688 4.566406 -10.046875 3.828125 -10.609375 C 3.085938 -11.171875 2.546875 -11.816406 2.203125 -12.546875 C 1.867188 -13.285156 1.703125 -14.1875 1.703125 -15.25 C 1.703125 -17.082031 2.410156 -18.5 3.828125 -19.5 C 5.242188 -20.507812 7.257812 -21.015625 9.875 -21.015625 C 12.351562 -21.015625 14.769531 -20.472656 17.125 -19.390625 L 15.421875 -15.328125 C 14.390625 -15.773438 13.421875 -16.140625 12.515625 -16.421875 C 11.617188 -16.703125 10.707031 -16.84375 9.78125 -16.84375 C 8.113281 -16.84375 7.28125 -16.394531 7.28125 -15.5 C 7.28125 -14.988281 7.546875 -14.550781 8.078125 -14.1875 C 8.617188 -13.820312 9.796875 -13.273438 11.609375 -12.546875 C 13.210938 -11.890625 14.390625 -11.28125 15.140625 -10.71875 C 15.890625 -10.15625 16.441406 -9.503906 16.796875 -8.765625 C 17.160156 -8.023438 17.34375 -7.144531 17.34375 -6.125 Z M 17.34375 -6.125 "/></g></g><g transform="translate(389.822244, 536.002484)"><g/></g><g transform="translate(399.637467, 536.002484)"><g><path d="M 17.34375 -6.125 C 17.34375 -4.007812 16.609375 -2.394531 15.140625 -1.28125 C 13.671875 -0.175781 11.472656 0.375 8.546875 0.375 C 7.046875 0.375 5.765625 0.269531 4.703125 0.0625 C 3.648438 -0.132812 2.660156 -0.429688 1.734375 -0.828125 L 1.734375 -5.484375 C 2.773438 -4.984375 3.953125 -4.566406 5.265625 -4.234375 C 6.578125 -3.910156 7.726562 -3.75 8.71875 -3.75 C 10.757812 -3.75 11.78125 -4.335938 11.78125 -5.515625 C 11.78125 -5.960938 11.644531 -6.320312 11.375 -6.59375 C 11.101562 -6.875 10.632812 -7.1875 9.96875 -7.53125 C 9.3125 -7.882812 8.429688 -8.296875 7.328125 -8.765625 C 5.734375 -9.429688 4.566406 -10.046875 3.828125 -10.609375 C 3.085938 -11.171875 2.546875 -11.816406 2.203125 -12.546875 C 1.867188 -13.285156 1.703125 -14.1875 1.703125 -15.25 C 1.703125 -17.082031 2.410156 -18.5 3.828125 -19.5 C 5.242188 -20.507812 7.257812 -21.015625 9.875 -21.015625 C 12.351562 -21.015625 14.769531 -20.472656 17.125 -19.390625 L 15.421875 -15.328125 C 14.390625 -15.773438 13.421875 -16.140625 12.515625 -16.421875 C 11.617188 -16.703125 10.707031 -16.84375 9.78125 -16.84375 C 8.113281 -16.84375 7.28125 -16.394531 7.28125 -15.5 C 7.28125 -14.988281 7.546875 -14.550781 8.078125 -14.1875 C 8.617188 -13.820312 9.796875 -13.273438 11.609375 -12.546875 C 13.210938 -11.890625 14.390625 -11.28125 15.140625 -10.71875 C 15.890625 -10.15625 16.441406 -9.503906 16.796875 -8.765625 C 17.160156 -8.023438 17.34375 -7.144531 17.34375 -6.125 Z M 17.34375 -6.125 "/></g></g><g transform="translate(418.419227, 536.002484)"><g><path d="M 11.5 -17.015625 C 10.300781 -17.015625 9.363281 -16.632812 8.6875 -15.875 C 8.007812 -15.113281 7.625 -14.039062 7.53125 -12.65625 L 15.421875 -12.65625 C 15.398438 -14.039062 15.035156 -15.113281 14.328125 -15.875 C 13.628906 -16.632812 12.6875 -17.015625 11.5 -17.015625 Z M 12.28125 0.375 C 8.96875 0.375 6.375 -0.539062 4.5 -2.375 C 2.632812 -4.207031 1.703125 -6.804688 1.703125 -10.171875 C 1.703125 -13.617188 2.5625 -16.285156 4.28125 -18.171875 C 6.007812 -20.066406 8.398438 -21.015625 11.453125 -21.015625 C 14.367188 -21.015625 16.640625 -20.179688 18.265625 -18.515625 C 19.890625 -16.859375 20.703125 -14.566406 20.703125 -11.640625 L 20.703125 -8.90625 L 7.390625 -8.90625 C 7.453125 -7.3125 7.925781 -6.0625 8.8125 -5.15625 C 9.695312 -4.257812 10.941406 -3.8125 12.546875 -3.8125 C 13.785156 -3.8125 14.957031 -3.941406 16.0625 -4.203125 C 17.175781 -4.460938 18.332031 -4.875 19.53125 -5.4375 L 19.53125 -1.09375 C 18.550781 -0.59375 17.5 -0.222656 16.375 0.015625 C 15.257812 0.253906 13.894531 0.375 12.28125 0.375 Z M 12.28125 0.375 "/></g></g><g transform="translate(440.743323, 536.002484)"><g><path d="M 11.5 -4.046875 C 12.925781 -4.046875 13.96875 -4.453125 14.625 -5.265625 C 15.289062 -6.085938 15.65625 -7.519531 15.71875 -9.5625 L 15.71875 -10.234375 C 15.71875 -12.453125 15.375 -14.039062 14.6875 -15 C 14.007812 -15.957031 12.914062 -16.4375 11.40625 -16.4375 C 8.757812 -16.4375 7.4375 -14.359375 7.4375 -10.203125 C 7.4375 -8.140625 7.765625 -6.597656 8.421875 -5.578125 C 9.078125 -4.554688 10.101562 -4.046875 11.5 -4.046875 Z M 9.484375 0.375 C 7.046875 0.375 5.140625 -0.5625 3.765625 -2.4375 C 2.390625 -4.3125 1.703125 -6.925781 1.703125 -10.28125 C 1.703125 -13.644531 2.40625 -16.273438 3.8125 -18.171875 C 5.21875 -20.066406 7.144531 -21.015625 9.59375 -21.015625 C 10.894531 -21.015625 12.03125 -20.765625 13 -20.265625 C 13.976562 -19.773438 14.832031 -19.015625 15.5625 -17.984375 L 15.71875 -17.984375 L 16.21875 -20.625 L 20.96875 -20.625 L 20.96875 9.078125 L 15.328125 9.078125 L 15.328125 0.421875 C 15.328125 -0.328125 15.40625 -1.359375 15.5625 -2.671875 L 15.328125 -2.671875 C 14.722656 -1.679688 13.921875 -0.925781 12.921875 -0.40625 C 11.929688 0.113281 10.785156 0.375 9.484375 0.375 Z M 9.484375 0.375 "/></g></g><g transform="translate(464.65409, 536.002484)"><g><path d="M 17.5625 0 L 16.8125 -2.640625 L 16.515625 -2.640625 C 15.910156 -1.679688 15.050781 -0.9375 13.9375 -0.40625 C 12.832031 0.113281 11.578125 0.375 10.171875 0.375 C 7.742188 0.375 5.914062 -0.273438 4.6875 -1.578125 C 3.457031 -2.878906 2.84375 -4.742188 2.84375 -7.171875 L 2.84375 -20.625 L 8.46875 -20.625 L 8.46875 -8.578125 C 8.46875 -7.085938 8.726562 -5.96875 9.25 -5.21875 C 9.78125 -4.476562 10.625 -4.109375 11.78125 -4.109375 C 13.363281 -4.109375 14.503906 -4.632812 15.203125 -5.6875 C 15.898438 -6.738281 16.25 -8.484375 16.25 -10.921875 L 16.25 -20.625 L 21.875 -20.625 L 21.875 0 Z M 17.5625 0 "/></g></g><g transform="translate(489.48734, 536.002484)"><g><path d="M 11.5 -17.015625 C 10.300781 -17.015625 9.363281 -16.632812 8.6875 -15.875 C 8.007812 -15.113281 7.625 -14.039062 7.53125 -12.65625 L 15.421875 -12.65625 C 15.398438 -14.039062 15.035156 -15.113281 14.328125 -15.875 C 13.628906 -16.632812 12.6875 -17.015625 11.5 -17.015625 Z M 12.28125 0.375 C 8.96875 0.375 6.375 -0.539062 4.5 -2.375 C 2.632812 -4.207031 1.703125 -6.804688 1.703125 -10.171875 C 1.703125 -13.617188 2.5625 -16.285156 4.28125 -18.171875 C 6.007812 -20.066406 8.398438 -21.015625 11.453125 -21.015625 C 14.367188 -21.015625 16.640625 -20.179688 18.265625 -18.515625 C 19.890625 -16.859375 20.703125 -14.566406 20.703125 -11.640625 L 20.703125 -8.90625 L 7.390625 -8.90625 C 7.453125 -7.3125 7.925781 -6.0625 8.8125 -5.15625 C 9.695312 -4.257812 10.941406 -3.8125 12.546875 -3.8125 C 13.785156 -3.8125 14.957031 -3.941406 16.0625 -4.203125 C 17.175781 -4.460938 18.332031 -4.875 19.53125 -5.4375 L 19.53125 -1.09375 C 18.550781 -0.59375 17.5 -0.222656 16.375 0.015625 C 15.257812 0.253906 13.894531 0.375 12.28125 0.375 Z M 12.28125 0.375 "/></g></g><g transform="translate(511.811436, 536.002484)"><g><path d="M 21.984375 0 L 16.359375 0 L 16.359375 -12.046875 C 16.359375 -13.535156 16.09375 -14.648438 15.5625 -15.390625 C 15.039062 -16.140625 14.203125 -16.515625 13.046875 -16.515625 C 11.472656 -16.515625 10.332031 -15.988281 9.625 -14.9375 C 8.925781 -13.882812 8.578125 -12.140625 8.578125 -9.703125 L 8.578125 0 L 2.953125 0 L 2.953125 -20.625 L 7.25 -20.625 L 8 -17.984375 L 8.3125 -17.984375 C 8.945312 -18.984375 9.8125 -19.738281 10.90625 -20.25 C 12.007812 -20.757812 13.265625 -21.015625 14.671875 -21.015625 C 17.066406 -21.015625 18.882812 -20.363281 20.125 -19.0625 C 21.363281 -17.769531 21.984375 -15.898438 21.984375 -13.453125 Z M 21.984375 0 "/></g></g><g transform="translate(536.644687, 536.002484)"><g><path d="M 11.328125 0.375 C 4.910156 0.375 1.703125 -3.148438 1.703125 -10.203125 C 1.703125 -13.703125 2.570312 -16.378906 4.3125 -18.234375 C 6.0625 -20.085938 8.566406 -21.015625 11.828125 -21.015625 C 14.210938 -21.015625 16.351562 -20.546875 18.25 -19.609375 L 16.578125 -15.25 C 15.691406 -15.613281 14.867188 -15.90625 14.109375 -16.125 C 13.347656 -16.351562 12.585938 -16.46875 11.828125 -16.46875 C 8.898438 -16.46875 7.4375 -14.390625 7.4375 -10.234375 C 7.4375 -6.203125 8.898438 -4.1875 11.828125 -4.1875 C 12.910156 -4.1875 13.910156 -4.332031 14.828125 -4.625 C 15.753906 -4.914062 16.675781 -5.367188 17.59375 -5.984375 L 17.59375 -1.15625 C 16.6875 -0.582031 15.769531 -0.1875 14.84375 0.03125 C 13.914062 0.257812 12.742188 0.375 11.328125 0.375 Z M 11.328125 0.375 "/></g></g><g transform="translate(556.072185, 536.002484)"><g><path d="M 11.5 -17.015625 C 10.300781 -17.015625 9.363281 -16.632812 8.6875 -15.875 C 8.007812 -15.113281 7.625 -14.039062 7.53125 -12.65625 L 15.421875 -12.65625 C 15.398438 -14.039062 15.035156 -15.113281 14.328125 -15.875 C 13.628906 -16.632812 12.6875 -17.015625 11.5 -17.015625 Z M 12.28125 0.375 C 8.96875 0.375 6.375 -0.539062 4.5 -2.375 C 2.632812 -4.207031 1.703125 -6.804688 1.703125 -10.171875 C 1.703125 -13.617188 2.5625 -16.285156 4.28125 -18.171875 C 6.007812 -20.066406 8.398438 -21.015625 11.453125 -21.015625 C 14.367188 -21.015625 16.640625 -20.179688 18.265625 -18.515625 C 19.890625 -16.859375 20.703125 -14.566406 20.703125 -11.640625 L 20.703125 -8.90625 L 7.390625 -8.90625 C 7.453125 -7.3125 7.925781 -6.0625 8.8125 -5.15625 C 9.695312 -4.257812 10.941406 -3.8125 12.546875 -3.8125 C 13.785156 -3.8125 14.957031 -3.941406 16.0625 -4.203125 C 17.175781 -4.460938 18.332031 -4.875 19.53125 -5.4375 L 19.53125 -1.09375 C 18.550781 -0.59375 17.5 -0.222656 16.375 0.015625 C 15.257812 0.253906 13.894531 0.375 12.28125 0.375 Z M 12.28125 0.375 "/></g></g></g><g clip-path="url(#4f359528d6)"><g clip-path="url(#320fca217f)"><path stroke-linecap="butt" transform="matrix(0.830233, 0, 0, 0.830233, -121.715081, 314.210013)" fill="none" stroke-linejoin="miter" d="M 244.161841 0.00111355 C 109.316383 0.00111355 0.000285494 109.317211 0.000285494 244.162669 C 0.000285494 379.012832 109.316383 488.32893 244.161841 488.32893 C 379.012004 488.32893 488.328102 379.012832 488.328102 244.162669 C 488.328102 109.317211 379.012004 0.00111355 244.161841 0.00111355 Z M 244.161841 0.00111355 " stroke="#66a80f" stroke-width="63.235275" stroke-opacity="1" stroke-miterlimit="4"/></g></g><path fill="#66a80f" d="M 120.46875 427.308594 L 121.796875 428.238281 C 130.398438 434.269531 136.488281 443.207031 139.113281 453.378906 C 140.667969 459.40625 144.425781 464.898438 150.164062 468.535156 C 161.390625 475.664062 176.414062 472.835938 184.308594 462.132812 C 192.828125 450.570312 190.125 434.324219 178.433594 426.125 C 173.253906 422.492188 167.191406 421.054688 161.351562 421.617188 C 150.667969 422.652344 139.984375 419.59375 131.191406 413.429688 L 130.527344 412.964844 C 119.15625 404.992188 112.347656 392.144531 111.667969 378.273438 C 111.03125 365.378906 104.613281 352.90625 93.140625 344.996094 C 74.019531 331.8125 47.609375 336.347656 33.992188 355.164062 C 19.914062 374.621094 24.519531 401.769531 44.117188 415.511719 C 55.5 423.496094 69.421875 425.179688 81.730469 421.292969 C 94.867188 417.144531 109.1875 419.398438 120.46875 427.308594 Z M 123.144531 490.175781 L 121.816406 489.242188 C 113.21875 483.210938 107.125 474.273438 104.5 464.101562 C 102.941406 458.074219 99.183594 452.582031 93.453125 448.945312 C 82.222656 441.816406 67.199219 444.640625 59.308594 455.351562 C 50.785156 466.914062 53.488281 483.15625 65.179688 491.359375 C 70.359375 494.988281 76.421875 496.425781 82.261719 495.859375 C 92.949219 494.832031 103.632812 497.882812 112.421875 504.050781 L 113.085938 504.515625 C 124.453125 512.492188 131.265625 525.335938 131.949219 539.210938 C 132.582031 552.105469 138.996094 564.578125 150.472656 572.488281 C 169.589844 585.671875 196.003906 581.128906 209.617188 562.320312 C 223.703125 542.859375 219.089844 515.714844 199.5 501.972656 C 188.113281 493.988281 174.191406 492.300781 161.878906 496.1875 C 148.746094 500.335938 134.421875 498.085938 123.144531 490.175781 Z M 38.855469 543.671875 L 40.183594 544.605469 C 48.785156 550.636719 54.871094 559.574219 57.5 569.746094 C 59.054688 575.773438 62.816406 581.265625 68.546875 584.902344 C 79.777344 592.03125 94.800781 589.207031 102.691406 578.5 C 111.214844 566.9375 108.515625 550.691406 96.816406 542.492188 C 91.636719 538.859375 85.574219 537.421875 79.738281 537.984375 C 69.050781 539.019531 58.367188 535.964844 49.578125 529.800781 L 48.914062 529.335938 C 37.542969 521.359375 30.734375 508.511719 30.050781 494.640625 C 29.417969 481.746094 23 469.273438 11.527344 461.363281 C -7.59375 448.179688 -34.003906 452.714844 -47.621094 471.53125 C -61.699219 490.988281 -57.09375 518.136719 -37.496094 531.878906 C -26.113281 539.863281 -12.191406 541.546875 0.117188 537.660156 C 13.253906 533.515625 27.574219 535.765625 38.855469 543.671875 Z M 80.265625 612.554688 C 92.582031 608.667969 106.496094 610.351562 117.882812 618.339844 C 137.480469 632.082031 142.085938 659.226562 128.007812 678.683594 C 114.390625 697.5 87.976562 702.039062 68.859375 688.855469 C 57.386719 680.945312 50.96875 668.472656 50.335938 655.578125 C 49.652344 641.707031 42.84375 628.859375 31.472656 620.882812 L 30.808594 620.417969 C 22.015625 614.253906 11.335938 611.199219 0.648438 612.230469 C -5.191406 612.796875 -11.253906 611.359375 -16.433594 607.726562 C -28.125 599.523438 -30.828125 583.28125 -22.304688 571.71875 C -14.414062 561.007812 0.609375 558.183594 11.839844 565.3125 C 17.570312 568.949219 21.332031 574.441406 22.886719 580.46875 C 25.511719 590.640625 31.601562 599.578125 40.203125 605.613281 L 41.53125 606.542969 C 52.808594 614.453125 67.132812 616.703125 80.265625 612.554688 " fill-opacity="1" fill-rule="nonzero"/></svg>