<svg width="247" height="255" xmlns="http://www.w3.org/2000/svg" xmlns:xlink="http://www.w3.org/1999/xlink" xml:space="preserve" overflow="hidden"><defs><clipPath id="clip0"><path d="M173.152 45.5424C106.681 45.5424 52.7913 99.2485 52.7913 165.492 52.7913 231.741 106.681 285.442 173.152 285.442 239.628 285.442 293.512 231.741 293.512 165.492 293.512 99.2485 239.628 45.5424 173.152 45.5424Z"/></clipPath></defs><g transform="translate(-50 -38)"><g><g clip-path="url(#clip0)"><path d="M119.948-0.00160224C53.7046-0.00160224-0.001522 53.7045-0.001522 119.948-0.001522 186.197 53.7046 239.898 119.948 239.898 186.197 239.898 239.898 186.197 239.898 119.948 239.898 53.7045 186.197-0.00160224 119.948-0.00160224Z" stroke="#66A80F" stroke-width="27.9447" fill="none" transform="matrix(1.00342 0 0 1 52.7928 45.544)"/></g></g><path d="M275.049 191.501 275.912 192.104C281.479 196.008 285.419 201.793 287.119 208.374 288.122 212.278 290.555 215.833 294.266 218.182 301.533 222.798 311.259 220.969 316.368 214.04 321.883 206.554 320.132 196.044 312.563 190.732 309.211 188.382 305.291 187.452 301.507 187.816 294.594 188.486 287.68 186.511 281.988 182.519L281.562 182.217C274.202 177.056 269.794 168.744 269.352 159.762 268.941 151.419 264.788 143.346 257.365 138.226 244.989 129.696 227.898 132.633 219.082 144.807 209.97 157.402 212.953 174.971 225.631 183.865 233.002 189.032 242.01 190.123 249.979 187.608 258.483 184.925 267.751 186.381 275.049 191.501ZM276.785 232.191 275.922 231.583C270.355 227.685 266.415 221.899 264.715 215.313 263.707 211.415 261.274 207.859 257.563 205.504 250.296 200.889 240.576 202.718 235.466 209.653 229.951 217.132 231.697 227.648 239.266 232.955 242.618 235.305 246.543 236.235 250.322 235.871 257.241 235.201 264.154 237.181 269.841 241.168L270.272 241.47C277.632 246.631 282.04 254.948 282.482 263.925 282.893 272.273 287.041 280.346 294.469 285.461 306.845 293.996 323.937 291.059 332.747 278.88 341.865 266.29 338.881 248.721 326.198 239.822 318.832 234.655 309.819 233.569 301.85 236.079 293.351 238.767 284.083 237.311 276.785 232.191ZM222.227 266.815 223.089 267.418C228.657 271.322 232.597 277.107 234.296 283.688 235.305 287.592 237.738 291.147 241.444 293.497 248.716 298.113 258.436 296.283 263.546 289.354 269.061 281.869 267.314 271.358 259.741 266.051 256.388 263.702 252.469 262.771 248.69 263.135 241.771 263.8 234.858 261.825 229.171 257.838L228.74 257.532C221.379 252.37 216.971 244.058 216.53 235.076 216.119 226.733 211.966 218.661 204.543 213.541 192.166 205.011 175.075 207.948 166.259 220.121 157.147 232.716 160.131 250.286 172.814 259.179 180.18 264.346 189.188 265.438 197.156 262.922 205.66 260.24 214.929 261.695 222.227 266.815ZM249.033 311.399C257.001 308.883 266.01 309.969 273.375 315.142 286.059 324.035 289.042 341.605 279.93 354.194 271.114 366.373 254.023 369.31 241.646 360.78 234.224 355.66 230.07 347.588 229.66 339.24 229.218 330.263 224.81 321.946 217.45 316.789L217.018 316.488C211.331 312.496 204.418 310.515 197.499 311.186 193.721 311.55 189.796 310.619 186.443 308.27 178.875 302.963 177.128 292.447 182.643 284.967 187.753 278.033 197.474 276.208 204.746 280.819 208.452 283.174 210.884 286.729 211.893 290.628 213.593 297.213 217.533 302.999 223.1 306.903L223.963 307.506C231.261 312.626 240.529 314.081 249.033 311.399" fill="#66A80F" transform="matrix(1.00342 0 0 1 -77.2028 -84.0084)"/></g></svg>