<svg width="350" height="68" xmlns="http://www.w3.org/2000/svg" xmlns:xlink="http://www.w3.org/1999/xlink" xml:space="preserve" overflow="hidden"><defs><clipPath id="clip0"><path d="M523.42 362.103C509.344 362.103 497.933 373.53 497.933 387.622 497.933 401.713 509.344 413.136 523.42 413.136 537.502 413.136 548.913 401.713 548.913 387.622 548.913 373.53 537.502 362.103 523.42 362.103Z"/></clipPath></defs><g transform="translate(-495 -354)"><path d="M3.12469 0 3.12469-29.5804 6.666-29.5804 22.4353-5.87441 22.4353-29.5804 25.9766-29.5804 25.9766 0 22.4353 0 6.666-23.706 6.666 0Z" fill="#606976" transform="matrix(1 0 0 1.00106 561.073 401.473)"/><path d="M1.27071 0 12.1655-29.5804 15.9359-29.5804 26.789 0 23.0185 0 20.3105-7.60341 7.72839-7.60341 4.97867 0ZM8.79079-10.4781 19.2689-10.4781 14.0194-25.1017Z" fill="#606976" transform="matrix(1 0 0 1.00106 596.73 401.473)"/><path d="M3.12469 0 3.12469-29.5804 6.666-29.5804 22.4353-5.87441 22.4353-29.5804 25.9766-29.5804 25.9766 0 22.4353 0 6.666-23.706 6.666 0Z" fill="#606976" transform="matrix(1 0 0 1.00106 631.33 401.473)"/><path d="M16.5608 0.49995C13.6549 0.49995 11.1135-0.135402 8.93661-1.41653 6.75453-2.69244 5.04637-4.48393 3.81212-6.79099 2.58828-9.10846 1.97897-11.7749 1.97897-14.7902 1.97897-17.8003 2.58828-20.4563 3.81212-22.7477 5.04637-25.0392 6.75453-26.8307 8.93661-28.1222 11.1135-29.4241 13.6549-30.0803 16.5608-30.0803 19.4876-30.0803 22.0447-29.4241 24.2267-28.1222 26.4036-26.8307 28.1014-25.0392 29.3096-22.7477 30.5282-20.4563 31.1427-17.8003 31.1427-14.7902 31.1427-11.7749 30.5282-9.10846 29.3096-6.79099 28.1014-4.48393 26.4036-2.69244 24.2267-1.41653 22.0447-0.135402 19.4876 0.49995 16.5608 0.49995ZM16.5608-2.62474C18.7273-2.62474 20.6281-3.10906 22.2686-4.08292 23.9195-5.05158 25.2058-6.44206 26.1224-8.24918 27.039-10.0667 27.4972-12.2488 27.4972-14.7902 27.4972-17.316 27.039-19.4824 26.1224-21.2895 25.2058-23.0914 23.9195-24.4819 22.2686-25.4558 20.6281-26.4244 18.7273-26.914 16.5608-26.914 14.3944-26.914 12.4831-26.4244 10.8322-25.4558 9.19179-24.4819 7.91587-23.0914 6.9993-21.2895 6.08273-19.4824 5.62444-17.316 5.62444-14.7902 5.62444-12.2488 6.08273-10.0667 6.9993-8.24918 7.91587-6.44206 9.19179-5.05158 10.8322-4.08292 12.4831-3.10906 14.3944-2.62474 16.5608-2.62474Z" fill="#606976" transform="matrix(1 0 0 1.00106 666.987 401.473)"/><path d="M15.7901 0.49995C13.0091 0.49995 10.5823-0.130195 8.49915-1.39569 6.41602-2.65598 4.79119-4.42143 3.62464-6.68683 2.4685-8.96264 1.89564-11.6082 1.89564-14.6235 1.89564-17.6649 2.48934-20.3417 3.68713-22.6644 4.89534-24.9819 6.60351-26.7942 8.81162-28.1014 11.0197-29.4189 13.6445-30.0803 16.6858-30.0803 20.1542-30.0803 23.0289-29.2471 25.31-27.5806 27.5858-25.9245 29.0648-23.6331 29.747-20.7063L23.706-20.7063C23.2477-22.0811 22.4248-23.1539 21.2479-23.9351 20.0657-24.7111 18.545-25.1017 16.6858-25.1017 13.7278-25.1017 11.4416-24.1642 9.83235-22.2894 8.23355-20.4146 7.43676-17.842 7.43676-14.5819 7.43676-11.301 8.22834-8.76996 9.81152-6.97847 11.4051-5.1974 13.5716-4.31207 16.3109-4.31207 18.9773-4.31207 20.9875-5.03075 22.3519-6.47852 23.7268-7.93671 24.5496-9.84276 24.8308-12.2071L17.3733-12.2071 17.3733-16.2692 30.2886-16.2692 30.2886 0 25.31 0 24.8725-3.89544C23.9247-2.47892 22.7321-1.38528 21.2895-0.624937 19.8574 0.124987 18.0242 0.49995 15.7901 0.49995Z" fill="#606976" transform="matrix(1 0 0 1.00106 706.668 401.473)"/><path d="M2.87471 0 2.87471-29.5804 22.1853-29.5804 22.1853-25.2266 8.27001-25.2266 8.27001-17.1025 20.9146-17.1025 20.9146-12.8945 8.27001-12.8945 8.27001-4.35373 22.1853-4.35373 22.1853 0Z" fill="#606976" transform="matrix(1 0 0 1.00106 745.873 401.473)"/><path d="M2.87471 0 2.87471-29.5804 8.27001-29.5804 22.1853-8.74912 22.1853-29.5804 27.5806-29.5804 27.5806 0 22.1853 0 8.27001-20.7896 8.27001 0Z" fill="#606976" transform="matrix(1 0 0 1.00106 776.841 401.473)"/><path d="M2.87471 0 2.87471-29.5804 22.1853-29.5804 22.1853-25.2266 8.27001-25.2266 8.27001-17.1025 20.9146-17.1025 20.9146-12.8945 8.27001-12.8945 8.27001-4.35373 22.1853-4.35373 22.1853 0Z" fill="#606976" transform="matrix(1 0 0 1.00106 813.849 401.473)"/><g><g clip-path="url(#clip0)"><path d="M25.4875-0.00222377C11.4108-0.00222377 0.000478976 11.4133 0.000478976 25.49 0.000478976 39.5667 11.4108 50.9771 25.4875 50.9771 39.5694 50.9771 50.9798 39.5667 50.9798 25.49 50.9798 11.4133 39.5694-0.00222377 25.4875-0.00222377Z" stroke="#606976" stroke-width="7.9992" fill="none" transform="matrix(1 0 0 1.00106 497.933 362.105)"/></g></g><g><path d="M113.036 238.695 113.202 238.809C114.285 239.57 115.051 240.695 115.379 241.971 115.577 242.731 116.051 243.418 116.77 243.877 118.181 244.772 120.071 244.418 121.066 243.075 122.134 241.616 121.795 239.575 120.327 238.544 119.676 238.091 118.91 237.908 118.176 237.976 116.832 238.106 115.488 237.726 114.384 236.95L114.301 236.893C112.874 235.888 112.015 234.273 111.932 232.529 111.848 230.909 111.041 229.342 109.598 228.347 107.198 226.686 103.875 227.259 102.162 229.623 100.391 232.071 100.974 235.482 103.438 237.211 104.87 238.216 106.62 238.424 108.166 237.94 109.817 237.419 111.619 237.7 113.036 238.695ZM113.374 246.6 113.207 246.481C112.124 245.725 111.359 244.601 111.031 243.319 110.833 242.564 110.359 241.872 109.64 241.413 108.229 240.518 106.338 240.872 105.349 242.221 104.276 243.674 104.615 245.715 106.083 246.746 106.734 247.204 107.5 247.387 108.234 247.314 109.578 247.184 110.921 247.569 112.025 248.345L112.109 248.402C113.536 249.402 114.395 251.022 114.478 252.766 114.561 254.386 115.369 255.954 116.811 256.948 119.212 258.604 122.535 258.037 124.248 255.672 126.019 253.225 125.435 249.808 122.972 248.085 121.54 247.079 119.79 246.866 118.243 247.355 116.593 247.876 114.791 247.595 113.374 246.6ZM102.776 253.324 102.943 253.443C104.021 254.204 104.792 255.323 105.12 256.605 105.312 257.36 105.786 258.052 106.51 258.511 107.921 259.406 109.812 259.052 110.801 257.703 111.874 256.25 111.536 254.209 110.062 253.178 109.411 252.72 108.651 252.537 107.916 252.61 106.573 252.74 105.229 252.355 104.125 251.579L104.042 251.522C102.61 250.522 101.755 248.902 101.667 247.158 101.589 245.538 100.782 243.97 99.339 242.976 96.933 241.32 93.6156 241.887 91.9023 244.257 90.1316 246.699 90.7097 250.116 93.173 251.845 94.6051 252.844 96.3549 253.058 97.9069 252.568 99.5577 252.048 101.354 252.329 102.776 253.324ZM107.984 261.984C109.531 261.5 111.281 261.708 112.713 262.713 115.176 264.442 115.754 267.853 113.983 270.301 112.27 272.665 108.953 273.238 106.547 271.582 105.104 270.588 104.297 269.015 104.219 267.395 104.13 265.651 103.276 264.036 101.849 263.031L101.761 262.974C100.657 262.198 99.313 261.818 97.9694 261.948 97.2351 262.015 96.4747 261.838 95.8237 261.38 94.3551 260.349 94.0114 258.307 95.0842 256.849 96.0789 255.506 97.9642 255.152 99.3807 256.047 100.099 256.506 100.573 257.193 100.766 257.953 101.099 259.229 101.865 260.354 102.943 261.115L103.109 261.229C104.531 262.224 106.328 262.51 107.984 261.984" fill="#606976" transform="matrix(1 0 0 1.00106 415.348 137.393)"/></g></g></svg>