<svg width="260" height="255" xmlns="http://www.w3.org/2000/svg" xmlns:xlink="http://www.w3.org/1999/xlink" xml:space="preserve" overflow="hidden"><defs><clipPath id="clip0"><rect x="356" y="49" width="241" height="240"/></clipPath><clipPath id="clip1"><path d="M476.565 49.2446C410.175 49.2446 356.35 102.944 356.35 169.192 356.35 235.435 410.175 289.14 476.565 289.14 542.961 289.14 596.78 235.435 596.78 169.192 596.78 102.944 542.961 49.2446 476.565 49.2446Z"/></clipPath></defs><g transform="translate(-345 -43)"><g clip-path="url(#clip0)"><g clip-path="url(#clip1)"><path d="M119.946 0.000602929C53.7036 0.000602929-0.00152197 53.7005-0.00152197 119.948-0.00152197 186.191 53.7036 239.896 119.946 239.896 186.194 239.896 239.894 186.191 239.894 119.948 239.894 53.7005 186.194 0.000602929 119.946 0.000602929Z" stroke="#1D2633" stroke-width="27.9441" fill="none" transform="matrix(1.00223 0 0 1 356.351 49.244)"/></g></g><path d="M275.044 147.076 275.907 147.679C281.474 151.587 285.414 157.368 287.113 163.953 288.116 167.852 290.549 171.407 294.26 173.762 301.527 178.378 311.253 176.543 316.362 169.619 321.877 162.134 320.125 151.619 312.557 146.312 309.205 143.962 305.285 143.032 301.501 143.396 294.588 144.066 287.675 142.086 281.983 138.099L281.557 137.797C274.196 132.636 269.789 124.319 269.347 115.342 268.936 107 264.783 98.922 257.36 93.8072 244.984 85.2722 227.893 88.209 219.077 100.388 209.965 112.977 212.949 130.551 225.627 139.445 232.998 144.612 242.006 145.703 249.974 143.188 258.478 140.5 267.746 141.961 275.044 147.076ZM276.78 187.765 275.917 187.162C270.35 183.258 266.41 177.473 264.71 170.893 263.702 166.989 261.269 163.439 257.558 161.084 250.291 156.468 240.571 158.298 235.461 165.227 229.946 172.712 231.693 183.222 239.261 188.534 242.614 190.884 246.538 191.814 250.317 191.445 257.236 190.78 264.149 192.755 269.835 196.747L270.267 197.049C277.627 202.21 282.035 210.522 282.477 219.504 282.887 227.846 287.035 235.919 294.463 241.039 306.839 249.574 323.93 246.632 332.741 234.458 341.858 221.864 338.874 204.295 326.191 195.401 318.826 190.234 309.813 189.143 301.844 191.658 293.346 194.34 284.078 192.885 276.78 187.765ZM222.222 222.389 223.085 222.992C228.652 226.9 232.592 232.68 234.292 239.266 235.3 243.165 237.733 246.72 241.439 249.075 248.711 253.691 258.431 251.861 263.541 244.932 269.056 237.447 267.309 226.932 259.736 221.624 256.383 219.275 252.464 218.345 248.685 218.708 241.766 219.379 234.853 217.404 229.167 213.412L228.735 213.11C221.375 207.949 216.967 199.632 216.525 190.655 216.115 182.312 211.962 174.24 204.539 169.12 192.163 160.585 175.072 163.522 166.256 175.701 157.144 188.29 160.128 205.864 172.811 214.758 180.176 219.925 189.184 221.016 197.153 218.501 205.656 215.818 214.924 217.274 222.222 222.389ZM249.028 266.971C256.996 264.455 266.004 265.547 273.37 270.714 286.053 279.607 289.037 297.176 279.925 309.771 271.109 321.95 254.018 324.887 241.642 316.352 234.219 311.232 230.066 303.159 229.655 294.817 229.213 285.84 224.806 277.523 217.445 272.362L217.014 272.06C211.327 268.073 204.414 266.093 197.496 266.763 193.717 267.127 189.792 266.197 186.44 263.847 178.871 258.54 177.125 248.025 182.64 240.54 187.75 233.611 197.47 231.781 204.742 236.397 208.448 238.752 210.88 242.307 211.889 246.206 213.588 252.786 217.528 258.571 223.095 262.475L223.958 263.078C231.256 268.198 240.524 269.659 249.028 266.971" fill="#1D2633" transform="matrix(1.00223 0 0 1 226.513 -35.8872)"/></g></svg>