<svg width="350" height="68" xmlns="http://www.w3.org/2000/svg" xmlns:xlink="http://www.w3.org/1999/xlink" xml:space="preserve" overflow="hidden"><defs><clipPath id="clip0"><path d="M76.941 362.103C62.8641 362.103 51.4536 373.53 51.4536 387.622 51.4536 401.713 62.8641 413.136 76.941 413.136 91.0231 413.136 102.434 401.713 102.434 387.622 102.434 373.53 91.0231 362.103 76.941 362.103Z"/></clipPath></defs><g transform="translate(-50 -354)"><g><g clip-path="url(#clip0)"><path d="M25.4879-0.0022238C11.411-0.0022238 0.000478983 11.4135 0.000478983 25.4904 0.000478983 39.5673 11.411 50.9778 25.4879 50.9778 39.57 50.9778 50.9805 39.5673 50.9805 25.4904 50.9805 11.4135 39.57-0.0022238 25.4879-0.0022238Z" stroke="#66A80F" stroke-width="7.99931" fill="none" transform="matrix(1 0 0 1.00104 51.4531 362.105)"/></g></g><g><path d="M113.037 238.698 113.204 238.813C114.287 239.573 115.053 240.698 115.381 241.974 115.579 242.734 116.053 243.422 116.771 243.88 118.183 244.776 120.073 244.422 121.068 243.078 122.135 241.62 121.797 239.578 120.328 238.547 119.677 238.094 118.912 237.912 118.177 237.98 116.834 238.11 115.49 237.73 114.386 236.954L114.303 236.896C112.876 235.891 112.016 234.277 111.933 232.532 111.85 230.912 111.043 229.345 109.6 228.35 107.199 226.689 103.877 227.262 102.163 229.626 100.392 232.074 100.976 235.485 103.439 237.214 104.871 238.219 106.621 238.427 108.168 237.943 109.819 237.422 111.621 237.704 113.037 238.698ZM113.376 246.604 113.209 246.484C112.126 245.729 111.36 244.604 111.032 243.323 110.834 242.568 110.36 241.875 109.642 241.417 108.23 240.521 106.34 240.875 105.35 242.224 104.278 243.677 104.616 245.719 106.085 246.75 106.736 247.208 107.501 247.39 108.236 247.317 109.579 247.187 110.923 247.573 112.027 248.349L112.11 248.406C113.537 249.406 114.396 251.025 114.48 252.77 114.563 254.39 115.37 255.957 116.813 256.952 119.214 258.608 122.536 258.04 124.25 255.676 126.02 253.228 125.437 249.812 122.974 248.088 121.542 247.083 119.792 246.869 118.245 247.359 116.594 247.88 114.792 247.599 113.376 246.604ZM102.778 253.327 102.944 253.447C104.022 254.207 104.793 255.327 105.121 256.608 105.314 257.363 105.788 258.056 106.512 258.514 107.923 259.41 109.814 259.056 110.803 257.707 111.876 256.254 111.537 254.213 110.063 253.181 109.412 252.723 108.652 252.541 107.918 252.614 106.574 252.744 105.231 252.359 104.126 251.583L104.043 251.525C102.611 250.525 101.757 248.906 101.668 247.161 101.59 245.541 100.783 243.974 99.3404 242.979 96.9344 241.323 93.617 241.891 91.9036 244.26 90.1329 246.703 90.711 250.119 93.1743 251.848 94.6065 252.848 96.3563 253.062 97.9083 252.572 99.5592 252.051 101.356 252.333 102.778 253.327ZM107.986 261.988C109.532 261.504 111.282 261.712 112.714 262.717 115.178 264.446 115.756 267.857 113.985 270.305 112.272 272.669 108.954 273.242 106.548 271.586 105.106 270.591 104.298 269.019 104.22 267.399 104.132 265.654 103.278 264.04 101.851 263.035L101.762 262.977C100.658 262.201 99.3144 261.821 97.9708 261.952 97.2365 262.019 96.4761 261.842 95.8251 261.384 94.3565 260.353 94.0128 258.311 95.0856 256.853 96.0803 255.509 97.9656 255.155 99.3821 256.051 100.101 256.509 100.575 257.197 100.767 257.957 101.101 259.233 101.866 260.358 102.944 261.118L103.111 261.233C104.533 262.228 106.329 262.514 107.986 261.988" fill="#66A80F" transform="matrix(1 0 0 1.00104 -31.133 137.393)"/></g><path d="M3.12473 0 3.12473-29.5808 6.6661-29.5808 22.4356-5.8745 22.4356-29.5808 25.9769-29.5808 25.9769 0 22.4356 0 6.6661-23.7063 6.6661 0Z" fill="#1D2633" transform="matrix(1 0 0 1.00104 114.594 401.473)"/><path d="M1.27072 0 12.1656-29.5808 15.9361-29.5808 26.7894 0 23.0189 0 20.3108-7.60351 7.7285-7.60351 4.97874 0ZM8.79091-10.4783 19.2692-10.4783 14.0196-25.102Z" fill="#1D2633" transform="matrix(1 0 0 1.00104 150.251 401.473)"/><path d="M3.12473 0 3.12473-29.5808 6.6661-29.5808 22.4356-5.8745 22.4356-29.5808 25.9769-29.5808 25.9769 0 22.4356 0 6.6661-23.7063 6.6661 0Z" fill="#1D2633" transform="matrix(1 0 0 1.00104 184.852 401.473)"/><path d="M16.5611 0.499957C13.6551 0.499957 11.1136-0.135404 8.93673-1.41655 6.75463-2.69248 5.04644-4.48399 3.81217-6.79108 2.58832-9.10859 1.979-11.775 1.979-14.7904 1.979-17.8006 2.58832-20.4566 3.81217-22.7481 5.04644-25.0395 6.75463-26.831 8.93673-28.1226 11.1136-29.4246 13.6551-30.0808 16.5611-30.0808 19.4879-30.0808 22.045-29.4246 24.2271-28.1226 26.404-26.831 28.1018-25.0395 29.31-22.7481 30.5286-20.4566 31.1432-17.8006 31.1432-14.7904 31.1432-11.775 30.5286-9.10859 29.31-6.79108 28.1018-4.48399 26.404-2.69248 24.2271-1.41655 22.045-0.135404 19.4879 0.499957 16.5611 0.499957ZM16.5611-2.62477C18.7276-2.62477 20.6284-3.10911 22.2689-4.08298 23.9198-5.05165 25.2062-6.44216 26.1228-8.24929 27.0393-10.0668 27.4976-12.249 27.4976-14.7904 27.4976-17.3162 27.0393-19.4827 26.1228-21.2898 25.2062-23.0918 23.9198-24.4823 22.2689-25.4562 20.6284-26.4248 18.7276-26.9144 16.5611-26.9144 14.3946-26.9144 12.4833-26.4248 10.8324-25.4562 9.19192-24.4823 7.91599-23.0918 6.9994-21.2898 6.08281-19.4827 5.62452-17.3162 5.62452-14.7904 5.62452-12.249 6.08281-10.0668 6.9994-8.24929 7.91599-6.44216 9.19192-5.05165 10.8324-4.08298 12.4833-3.10911 14.3946-2.62477 16.5611-2.62477Z" fill="#1D2633" transform="matrix(1 0 0 1.00104 220.51 401.473)"/><path d="M15.7903 0.499957C13.0093 0.499957 10.5824-0.130197 8.49927-1.39571 6.41612-2.65602 4.79126-4.4215 3.62469-6.68693 2.46854-8.96277 1.89567-11.6084 1.89567-14.6237 1.89567-17.6652 2.48937-20.342 3.68718-22.6647 4.89541-24.9822 6.6036-26.7946 8.81174-28.1018 11.0199-29.4194 13.6447-30.0808 16.6861-30.0808 20.1545-30.0808 23.0293-29.2475 25.3103-27.581 27.5862-25.9249 29.0652-23.6334 29.7474-20.7066L23.7063-20.7066C23.248-22.0814 22.4252-23.1543 21.2482-23.9354 20.066-24.7114 18.5453-25.102 16.6861-25.102 13.728-25.102 11.4417-24.1646 9.83249-22.2898 8.23367-20.4149 7.43686-17.8422 7.43686-14.5821 7.43686-11.3011 8.22846-8.77008 9.81166-6.97857 11.4053-5.19747 13.5718-4.31213 16.3111-4.31213 18.9775-4.31213 20.9878-5.03082 22.3523-6.47861 23.7271-7.93682 24.55-9.84291 24.8312-12.2073L17.3735-12.2073 17.3735-16.2694 30.2891-16.2694 30.2891 0 25.3103 0 24.8729-3.8955C23.925-2.47895 22.7324-1.3853 21.2898-0.624946 19.8577 0.124989 18.0245 0.499957 15.7903 0.499957Z" fill="#1D2633" transform="matrix(1 0 0 1.00104 260.191 401.473)"/><path d="M2.87475 0 2.87475-29.5808 22.1856-29.5808 22.1856-25.227 8.27012-25.227 8.27012-17.1027 20.9149-17.1027 20.9149-12.8947 8.27012-12.8947 8.27012-4.35379 22.1856-4.35379 22.1856 0Z" fill="#1D2633" transform="matrix(1 0 0 1.00104 299.397 401.473)"/><path d="M2.87475 0 2.87475-29.5808 8.27012-29.5808 22.1856-8.74925 22.1856-29.5808 27.581-29.5808 27.581 0 22.1856 0 8.27012-20.7899 8.27012 0Z" fill="#1D2633" transform="matrix(1 0 0 1.00104 330.365 401.473)"/><path d="M2.87475 0 2.87475-29.5808 22.1856-29.5808 22.1856-25.227 8.27012-25.227 8.27012-17.1027 20.9149-17.1027 20.9149-12.8947 8.27012-12.8947 8.27012-4.35379 22.1856-4.35379 22.1856 0Z" fill="#1D2633" transform="matrix(1 0 0 1.00104 367.374 401.473)"/></g></svg>