<svg xmlns="http://www.w3.org/2000/svg" xmlns:xlink="http://www.w3.org/1999/xlink" width="500" zoomAndPan="magnify" viewBox="0 0 375 374.999991" height="500" preserveAspectRatio="xMidYMid meet" version="1.0"><defs><g/><clipPath id="c9d10c325b"><path d="M 165.089844 112 L 187.589844 112 L 187.589844 141 L 165.089844 141 Z M 165.089844 112 " clip-rule="nonzero"/></clipPath><clipPath id="2e397b4bee"><path d="M 165.089844 49.300781 L 187.589844 49.300781 L 187.589844 78 L 165.089844 78 Z M 165.089844 49.300781 " clip-rule="nonzero"/></clipPath><clipPath id="e35f70079d"><path d="M 165.089844 174.316406 L 187.589844 174.316406 L 187.589844 203 L 165.089844 203 Z M 165.089844 174.316406 " clip-rule="nonzero"/></clipPath><clipPath id="9f676e63f1"><path d="M 165.089844 237 L 187.589844 237 L 187.589844 266 L 165.089844 266 Z M 165.089844 237 " clip-rule="nonzero"/></clipPath><clipPath id="ae5bfd2a0f"><path d="M 165.089844 299.226562 L 187.589844 299.226562 L 187.589844 328 L 165.089844 328 Z M 165.089844 299.226562 " clip-rule="nonzero"/></clipPath></defs><g fill="#66a80f" fill-opacity="1"><g transform="translate(44.903517, 140.659092)"><g><path d="M 2.984375 0 L 2.984375 -30.78125 L 8.625 -30.78125 L 23.078125 -9.09375 L 23.078125 -30.78125 L 28.71875 -30.78125 L 28.71875 0 L 23.078125 0 L 8.625 -21.625 L 8.625 0 Z M 2.984375 0 "/></g></g></g><g fill="#66a80f" fill-opacity="1"><g transform="translate(83.411442, 140.659092)"><g><path d="M 1.015625 0 L 12.265625 -30.78125 L 18.59375 -30.78125 L 29.859375 0 L 23.875 0 L 21.40625 -7.125 L 9.40625 -7.125 L 6.90625 0 Z M 10.953125 -11.515625 L 19.875 -11.515625 L 15.390625 -24.3125 Z M 10.953125 -11.515625 "/></g></g></g><g fill="#66a80f" fill-opacity="1"><g transform="translate(121.040219, 140.659092)"><g><path d="M 2.984375 0 L 2.984375 -30.78125 L 8.625 -30.78125 L 23.078125 -9.09375 L 23.078125 -30.78125 L 28.71875 -30.78125 L 28.71875 0 L 23.078125 0 L 8.625 -21.625 L 8.625 0 Z M 2.984375 0 "/></g></g></g><g fill="#66a80f" fill-opacity="1"><g transform="translate(159.548144, 140.659092)"><g><path d="M 17.40625 0.53125 C 14.332031 0.53125 11.644531 -0.140625 9.34375 -1.484375 C 7.039062 -2.835938 5.238281 -4.707031 3.9375 -7.09375 C 2.632812 -9.488281 1.984375 -12.253906 1.984375 -15.390625 C 1.984375 -18.523438 2.632812 -21.285156 3.9375 -23.671875 C 5.238281 -26.066406 7.039062 -27.9375 9.34375 -29.28125 C 11.644531 -30.632812 14.332031 -31.3125 17.40625 -31.3125 C 20.457031 -31.3125 23.140625 -30.632812 25.453125 -29.28125 C 27.773438 -27.9375 29.578125 -26.066406 30.859375 -23.671875 C 32.148438 -21.285156 32.796875 -18.523438 32.796875 -15.390625 C 32.796875 -12.253906 32.148438 -9.488281 30.859375 -7.09375 C 29.578125 -4.707031 27.773438 -2.835938 25.453125 -1.484375 C 23.140625 -0.140625 20.457031 0.53125 17.40625 0.53125 Z M 17.40625 -4.53125 C 20.34375 -4.53125 22.679688 -5.492188 24.421875 -7.421875 C 26.171875 -9.359375 27.046875 -12.015625 27.046875 -15.390625 C 27.046875 -18.765625 26.171875 -21.414062 24.421875 -23.34375 C 22.679688 -25.28125 20.34375 -26.25 17.40625 -26.25 C 14.476562 -26.25 12.132812 -25.28125 10.375 -23.34375 C 8.613281 -21.414062 7.734375 -18.765625 7.734375 -15.390625 C 7.734375 -12.015625 8.613281 -9.359375 10.375 -7.421875 C 12.132812 -5.492188 14.476562 -4.53125 17.40625 -4.53125 Z M 17.40625 -4.53125 "/></g></g></g><g fill="#1d2633" fill-opacity="1"><g transform="translate(201.137885, 140.659092)"><g><path d="M 16.4375 0.53125 C 13.539062 0.53125 11.003906 -0.125 8.828125 -1.4375 C 6.660156 -2.757812 4.976562 -4.601562 3.78125 -6.96875 C 2.582031 -9.332031 1.984375 -12.082031 1.984375 -15.21875 C 1.984375 -18.382812 2.601562 -21.175781 3.84375 -23.59375 C 5.09375 -26.007812 6.867188 -27.898438 9.171875 -29.265625 C 11.472656 -30.628906 14.207031 -31.3125 17.375 -31.3125 C 20.976562 -31.3125 23.96875 -30.445312 26.34375 -28.71875 C 28.71875 -26.988281 30.253906 -24.597656 30.953125 -21.546875 L 24.671875 -21.546875 C 24.203125 -22.984375 23.347656 -24.101562 22.109375 -24.90625 C 20.878906 -25.71875 19.300781 -26.125 17.375 -26.125 C 14.289062 -26.125 11.910156 -25.144531 10.234375 -23.1875 C 8.566406 -21.238281 7.734375 -18.566406 7.734375 -15.171875 C 7.734375 -11.765625 8.5625 -9.128906 10.21875 -7.265625 C 11.875 -5.410156 14.125 -4.484375 16.96875 -4.484375 C 19.757812 -4.484375 21.863281 -5.238281 23.28125 -6.75 C 24.695312 -8.257812 25.554688 -10.242188 25.859375 -12.703125 L 18.078125 -12.703125 L 18.078125 -16.921875 L 31.53125 -16.921875 L 31.53125 0 L 26.34375 0 L 25.890625 -4.046875 C 24.898438 -2.578125 23.65625 -1.445312 22.15625 -0.65625 C 20.664062 0.132812 18.757812 0.53125 16.4375 0.53125 Z M 16.4375 0.53125 "/></g></g></g><g fill="#1d2633" fill-opacity="1"><g transform="translate(241.931572, 140.659092)"><g><path d="M 2.984375 0 L 2.984375 -30.78125 L 23.078125 -30.78125 L 23.078125 -26.25 L 8.625 -26.25 L 8.625 -17.8125 L 21.765625 -17.8125 L 21.765625 -13.40625 L 8.625 -13.40625 L 8.625 -4.53125 L 23.078125 -4.53125 L 23.078125 0 Z M 2.984375 0 "/></g></g></g><g fill="#1d2633" fill-opacity="1"><g transform="translate(274.153624, 140.659092)"><g><path d="M 2.984375 0 L 2.984375 -30.78125 L 8.625 -30.78125 L 23.078125 -9.09375 L 23.078125 -30.78125 L 28.71875 -30.78125 L 28.71875 0 L 23.078125 0 L 8.625 -21.625 L 8.625 0 Z M 2.984375 0 "/></g></g></g><g fill="#1d2633" fill-opacity="1"><g transform="translate(312.661548, 140.659092)"><g><path d="M 2.984375 0 L 2.984375 -30.78125 L 23.078125 -30.78125 L 23.078125 -26.25 L 8.625 -26.25 L 8.625 -17.8125 L 21.765625 -17.8125 L 21.765625 -13.40625 L 8.625 -13.40625 L 8.625 -4.53125 L 23.078125 -4.53125 L 23.078125 0 Z M 2.984375 0 "/></g></g></g><g clip-path="url(#c9d10c325b)"><path fill="#66a80f" d="M 179.394531 119.371094 L 179.496094 119.445312 C 180.171875 119.917969 180.648438 120.621094 180.855469 121.417969 C 180.980469 121.890625 181.273438 122.324219 181.722656 122.609375 C 182.605469 123.167969 183.785156 122.945312 184.40625 122.105469 C 185.074219 121.199219 184.859375 119.921875 183.941406 119.277344 C 183.535156 118.992188 183.0625 118.878906 182.601562 118.925781 C 181.761719 119.007812 180.925781 118.765625 180.234375 118.28125 L 180.183594 118.246094 C 179.289062 117.621094 178.753906 116.609375 178.703125 115.523438 C 178.652344 114.511719 178.148438 113.53125 177.246094 112.910156 C 175.746094 111.875 173.671875 112.230469 172.605469 113.707031 C 171.5 115.234375 171.859375 117.367188 173.398438 118.445312 C 174.292969 119.074219 175.386719 119.203125 176.351562 118.898438 C 177.382812 118.574219 178.507812 118.75 179.394531 119.371094 Z M 179.601562 124.308594 L 179.5 124.234375 C 178.824219 123.761719 178.34375 123.058594 178.140625 122.261719 C 178.015625 121.785156 177.722656 121.355469 177.273438 121.070312 C 176.390625 120.511719 175.210938 120.730469 174.589844 121.574219 C 173.921875 122.480469 174.132812 123.757812 175.050781 124.398438 C 175.460938 124.683594 175.933594 124.796875 176.394531 124.753906 C 177.230469 124.671875 178.070312 124.910156 178.761719 125.394531 L 178.8125 125.433594 C 179.707031 126.058594 180.242188 127.066406 180.292969 128.15625 C 180.34375 129.167969 180.847656 130.148438 181.75 130.769531 C 183.25 131.804688 185.324219 131.445312 186.390625 129.96875 C 187.496094 128.441406 187.136719 126.3125 185.597656 125.234375 C 184.703125 124.605469 183.609375 124.472656 182.644531 124.777344 C 181.613281 125.105469 180.488281 124.929688 179.601562 124.308594 Z M 172.984375 128.507812 L 173.089844 128.578125 C 173.765625 129.054688 174.242188 129.753906 174.449219 130.554688 C 174.570312 131.027344 174.867188 131.457031 175.316406 131.742188 C 176.199219 132.304688 177.378906 132.082031 177.996094 131.242188 C 178.667969 130.332031 178.453125 129.058594 177.535156 128.414062 C 177.128906 128.128906 176.652344 128.015625 176.195312 128.058594 C 175.355469 128.140625 174.519531 127.902344 173.828125 127.417969 L 173.777344 127.382812 C 172.882812 126.753906 172.347656 125.746094 172.292969 124.65625 C 172.246094 123.644531 171.742188 122.664062 170.839844 122.046875 C 169.339844 121.011719 167.265625 121.367188 166.199219 122.84375 C 165.09375 124.371094 165.453125 126.5 166.992188 127.582031 C 167.886719 128.207031 168.976562 128.339844 169.945312 128.035156 C 170.976562 127.710938 172.101562 127.886719 172.984375 128.507812 Z M 176.238281 133.914062 C 177.203125 133.609375 178.296875 133.742188 179.191406 134.367188 C 180.726562 135.445312 181.089844 137.578125 179.984375 139.105469 C 178.914062 140.582031 176.84375 140.9375 175.339844 139.902344 C 174.441406 139.28125 173.9375 138.304688 173.886719 137.292969 C 173.832031 136.203125 173.300781 135.195312 172.40625 134.566406 L 172.355469 134.53125 C 171.664062 134.046875 170.824219 133.808594 169.988281 133.886719 C 169.527344 133.933594 169.050781 133.820312 168.644531 133.535156 C 167.726562 132.890625 167.515625 131.617188 168.183594 130.707031 C 168.804688 129.867188 169.984375 129.644531 170.863281 130.207031 C 171.316406 130.492188 171.609375 130.921875 171.730469 131.394531 C 171.9375 132.195312 172.417969 132.894531 173.089844 133.367188 L 173.195312 133.441406 C 174.082031 134.0625 175.207031 134.238281 176.238281 133.914062 " fill-opacity="1" fill-rule="nonzero"/></g><g fill="#1d2633" fill-opacity="1"><g transform="translate(44.903517, 78.103354)"><g><path d="M 2.984375 0 L 2.984375 -30.78125 L 8.625 -30.78125 L 23.078125 -9.09375 L 23.078125 -30.78125 L 28.71875 -30.78125 L 28.71875 0 L 23.078125 0 L 8.625 -21.625 L 8.625 0 Z M 2.984375 0 "/></g></g></g><g fill="#1d2633" fill-opacity="1"><g transform="translate(83.411442, 78.103354)"><g><path d="M 1.015625 0 L 12.265625 -30.78125 L 18.59375 -30.78125 L 29.859375 0 L 23.875 0 L 21.40625 -7.125 L 9.40625 -7.125 L 6.90625 0 Z M 10.953125 -11.515625 L 19.875 -11.515625 L 15.390625 -24.3125 Z M 10.953125 -11.515625 "/></g></g></g><g fill="#1d2633" fill-opacity="1"><g transform="translate(121.040219, 78.103354)"><g><path d="M 2.984375 0 L 2.984375 -30.78125 L 8.625 -30.78125 L 23.078125 -9.09375 L 23.078125 -30.78125 L 28.71875 -30.78125 L 28.71875 0 L 23.078125 0 L 8.625 -21.625 L 8.625 0 Z M 2.984375 0 "/></g></g></g><g fill="#1d2633" fill-opacity="1"><g transform="translate(159.548144, 78.103354)"><g><path d="M 17.40625 0.53125 C 14.332031 0.53125 11.644531 -0.140625 9.34375 -1.484375 C 7.039062 -2.835938 5.238281 -4.707031 3.9375 -7.09375 C 2.632812 -9.488281 1.984375 -12.253906 1.984375 -15.390625 C 1.984375 -18.523438 2.632812 -21.285156 3.9375 -23.671875 C 5.238281 -26.066406 7.039062 -27.9375 9.34375 -29.28125 C 11.644531 -30.632812 14.332031 -31.3125 17.40625 -31.3125 C 20.457031 -31.3125 23.140625 -30.632812 25.453125 -29.28125 C 27.773438 -27.9375 29.578125 -26.066406 30.859375 -23.671875 C 32.148438 -21.285156 32.796875 -18.523438 32.796875 -15.390625 C 32.796875 -12.253906 32.148438 -9.488281 30.859375 -7.09375 C 29.578125 -4.707031 27.773438 -2.835938 25.453125 -1.484375 C 23.140625 -0.140625 20.457031 0.53125 17.40625 0.53125 Z M 17.40625 -4.53125 C 20.34375 -4.53125 22.679688 -5.492188 24.421875 -7.421875 C 26.171875 -9.359375 27.046875 -12.015625 27.046875 -15.390625 C 27.046875 -18.765625 26.171875 -21.414062 24.421875 -23.34375 C 22.679688 -25.28125 20.34375 -26.25 17.40625 -26.25 C 14.476562 -26.25 12.132812 -25.28125 10.375 -23.34375 C 8.613281 -21.414062 7.734375 -18.765625 7.734375 -15.390625 C 7.734375 -12.015625 8.613281 -9.359375 10.375 -7.421875 C 12.132812 -5.492188 14.476562 -4.53125 17.40625 -4.53125 Z M 17.40625 -4.53125 "/></g></g></g><g fill="#66a80f" fill-opacity="1"><g transform="translate(201.137885, 78.103354)"><g><path d="M 16.4375 0.53125 C 13.539062 0.53125 11.003906 -0.125 8.828125 -1.4375 C 6.660156 -2.757812 4.976562 -4.601562 3.78125 -6.96875 C 2.582031 -9.332031 1.984375 -12.082031 1.984375 -15.21875 C 1.984375 -18.382812 2.601562 -21.175781 3.84375 -23.59375 C 5.09375 -26.007812 6.867188 -27.898438 9.171875 -29.265625 C 11.472656 -30.628906 14.207031 -31.3125 17.375 -31.3125 C 20.976562 -31.3125 23.96875 -30.445312 26.34375 -28.71875 C 28.71875 -26.988281 30.253906 -24.597656 30.953125 -21.546875 L 24.671875 -21.546875 C 24.203125 -22.984375 23.347656 -24.101562 22.109375 -24.90625 C 20.878906 -25.71875 19.300781 -26.125 17.375 -26.125 C 14.289062 -26.125 11.910156 -25.144531 10.234375 -23.1875 C 8.566406 -21.238281 7.734375 -18.566406 7.734375 -15.171875 C 7.734375 -11.765625 8.5625 -9.128906 10.21875 -7.265625 C 11.875 -5.410156 14.125 -4.484375 16.96875 -4.484375 C 19.757812 -4.484375 21.863281 -5.238281 23.28125 -6.75 C 24.695312 -8.257812 25.554688 -10.242188 25.859375 -12.703125 L 18.078125 -12.703125 L 18.078125 -16.921875 L 31.53125 -16.921875 L 31.53125 0 L 26.34375 0 L 25.890625 -4.046875 C 24.898438 -2.578125 23.65625 -1.445312 22.15625 -0.65625 C 20.664062 0.132812 18.757812 0.53125 16.4375 0.53125 Z M 16.4375 0.53125 "/></g></g></g><g fill="#66a80f" fill-opacity="1"><g transform="translate(241.931572, 78.103354)"><g><path d="M 2.984375 0 L 2.984375 -30.78125 L 23.078125 -30.78125 L 23.078125 -26.25 L 8.625 -26.25 L 8.625 -17.8125 L 21.765625 -17.8125 L 21.765625 -13.40625 L 8.625 -13.40625 L 8.625 -4.53125 L 23.078125 -4.53125 L 23.078125 0 Z M 2.984375 0 "/></g></g></g><g fill="#66a80f" fill-opacity="1"><g transform="translate(274.153624, 78.103354)"><g><path d="M 2.984375 0 L 2.984375 -30.78125 L 8.625 -30.78125 L 23.078125 -9.09375 L 23.078125 -30.78125 L 28.71875 -30.78125 L 28.71875 0 L 23.078125 0 L 8.625 -21.625 L 8.625 0 Z M 2.984375 0 "/></g></g></g><g fill="#66a80f" fill-opacity="1"><g transform="translate(312.661548, 78.103354)"><g><path d="M 2.984375 0 L 2.984375 -30.78125 L 23.078125 -30.78125 L 23.078125 -26.25 L 8.625 -26.25 L 8.625 -17.8125 L 21.765625 -17.8125 L 21.765625 -13.40625 L 8.625 -13.40625 L 8.625 -4.53125 L 23.078125 -4.53125 L 23.078125 0 Z M 2.984375 0 "/></g></g></g><g clip-path="url(#2e397b4bee)"><path fill="#1d2633" d="M 179.394531 56.816406 L 179.496094 56.890625 C 180.171875 57.363281 180.648438 58.0625 180.855469 58.863281 C 180.980469 59.335938 181.273438 59.765625 181.722656 60.050781 C 182.605469 60.613281 183.785156 60.390625 184.40625 59.550781 C 185.074219 58.640625 184.859375 57.367188 183.941406 56.722656 C 183.535156 56.4375 183.0625 56.324219 182.601562 56.367188 C 181.761719 56.449219 180.925781 56.210938 180.234375 55.726562 L 180.183594 55.691406 C 179.289062 55.0625 178.753906 54.054688 178.703125 52.964844 C 178.652344 51.953125 178.148438 50.976562 177.246094 50.355469 C 175.746094 49.320312 173.671875 49.675781 172.605469 51.152344 C 171.5 52.679688 171.859375 54.8125 173.398438 55.890625 C 174.292969 56.515625 175.386719 56.648438 176.351562 56.34375 C 177.382812 56.019531 178.507812 56.195312 179.394531 56.816406 Z M 179.601562 61.75 L 179.5 61.679688 C 178.824219 61.203125 178.34375 60.503906 178.140625 59.703125 C 178.015625 59.230469 177.722656 58.800781 177.273438 58.515625 C 176.390625 57.953125 175.210938 58.175781 174.589844 59.015625 C 173.921875 59.925781 174.132812 61.199219 175.050781 61.84375 C 175.460938 62.128906 175.933594 62.242188 176.394531 62.199219 C 177.230469 62.117188 178.070312 62.355469 178.761719 62.839844 L 178.8125 62.875 C 179.707031 63.503906 180.242188 64.511719 180.292969 65.601562 C 180.34375 66.613281 180.847656 67.59375 181.75 68.210938 C 183.25 69.246094 185.324219 68.890625 186.390625 67.414062 C 187.496094 65.886719 187.136719 63.757812 185.597656 62.675781 C 184.703125 62.050781 183.609375 61.917969 182.644531 62.222656 C 181.613281 62.546875 180.488281 62.371094 179.601562 61.75 Z M 172.984375 65.949219 L 173.089844 66.023438 C 173.765625 66.496094 174.242188 67.199219 174.449219 67.996094 C 174.570312 68.472656 174.867188 68.902344 175.316406 69.1875 C 176.199219 69.746094 177.378906 69.527344 177.996094 68.683594 C 178.667969 67.777344 178.453125 66.5 177.535156 65.859375 C 177.128906 65.574219 176.652344 65.460938 176.195312 65.503906 C 175.355469 65.585938 174.519531 65.347656 173.828125 64.863281 L 173.777344 64.824219 C 172.882812 64.199219 172.347656 63.191406 172.292969 62.101562 C 172.246094 61.089844 171.742188 60.109375 170.839844 59.488281 C 169.339844 58.453125 167.265625 58.808594 166.199219 60.289062 C 165.09375 61.816406 165.453125 63.945312 166.992188 65.023438 C 167.886719 65.652344 168.976562 65.785156 169.945312 65.480469 C 170.976562 65.152344 172.101562 65.328125 172.984375 65.949219 Z M 176.238281 71.359375 C 177.203125 71.054688 178.296875 71.183594 179.191406 71.8125 C 180.726562 72.890625 181.089844 75.023438 179.984375 76.550781 C 178.914062 78.027344 176.84375 78.382812 175.339844 77.347656 C 174.441406 76.726562 173.9375 75.746094 173.886719 74.734375 C 173.832031 73.648438 173.300781 72.636719 172.40625 72.011719 L 172.355469 71.976562 C 171.664062 71.492188 170.824219 71.25 169.988281 71.332031 C 169.527344 71.378906 169.050781 71.265625 168.644531 70.980469 C 167.726562 70.335938 167.515625 69.058594 168.183594 68.152344 C 168.804688 67.3125 169.984375 67.089844 170.863281 67.648438 C 171.316406 67.933594 171.609375 68.367188 171.730469 68.839844 C 171.9375 69.636719 172.417969 70.339844 173.089844 70.8125 L 173.195312 70.886719 C 174.082031 71.507812 175.207031 71.683594 176.238281 71.359375 " fill-opacity="1" fill-rule="nonzero"/></g><g fill="#1d2633" fill-opacity="1"><g transform="translate(44.903517, 203.11569)"><g><path d="M 2.984375 0 L 2.984375 -30.78125 L 8.625 -30.78125 L 23.078125 -9.09375 L 23.078125 -30.78125 L 28.71875 -30.78125 L 28.71875 0 L 23.078125 0 L 8.625 -21.625 L 8.625 0 Z M 2.984375 0 "/></g></g></g><g fill="#1d2633" fill-opacity="1"><g transform="translate(83.411442, 203.11569)"><g><path d="M 1.015625 0 L 12.265625 -30.78125 L 18.59375 -30.78125 L 29.859375 0 L 23.875 0 L 21.40625 -7.125 L 9.40625 -7.125 L 6.90625 0 Z M 10.953125 -11.515625 L 19.875 -11.515625 L 15.390625 -24.3125 Z M 10.953125 -11.515625 "/></g></g></g><g fill="#1d2633" fill-opacity="1"><g transform="translate(121.040219, 203.11569)"><g><path d="M 2.984375 0 L 2.984375 -30.78125 L 8.625 -30.78125 L 23.078125 -9.09375 L 23.078125 -30.78125 L 28.71875 -30.78125 L 28.71875 0 L 23.078125 0 L 8.625 -21.625 L 8.625 0 Z M 2.984375 0 "/></g></g></g><g fill="#1d2633" fill-opacity="1"><g transform="translate(159.548144, 203.11569)"><g><path d="M 17.40625 0.53125 C 14.332031 0.53125 11.644531 -0.140625 9.34375 -1.484375 C 7.039062 -2.835938 5.238281 -4.707031 3.9375 -7.09375 C 2.632812 -9.488281 1.984375 -12.253906 1.984375 -15.390625 C 1.984375 -18.523438 2.632812 -21.285156 3.9375 -23.671875 C 5.238281 -26.066406 7.039062 -27.9375 9.34375 -29.28125 C 11.644531 -30.632812 14.332031 -31.3125 17.40625 -31.3125 C 20.457031 -31.3125 23.140625 -30.632812 25.453125 -29.28125 C 27.773438 -27.9375 29.578125 -26.066406 30.859375 -23.671875 C 32.148438 -21.285156 32.796875 -18.523438 32.796875 -15.390625 C 32.796875 -12.253906 32.148438 -9.488281 30.859375 -7.09375 C 29.578125 -4.707031 27.773438 -2.835938 25.453125 -1.484375 C 23.140625 -0.140625 20.457031 0.53125 17.40625 0.53125 Z M 17.40625 -4.53125 C 20.34375 -4.53125 22.679688 -5.492188 24.421875 -7.421875 C 26.171875 -9.359375 27.046875 -12.015625 27.046875 -15.390625 C 27.046875 -18.765625 26.171875 -21.414062 24.421875 -23.34375 C 22.679688 -25.28125 20.34375 -26.25 17.40625 -26.25 C 14.476562 -26.25 12.132812 -25.28125 10.375 -23.34375 C 8.613281 -21.414062 7.734375 -18.765625 7.734375 -15.390625 C 7.734375 -12.015625 8.613281 -9.359375 10.375 -7.421875 C 12.132812 -5.492188 14.476562 -4.53125 17.40625 -4.53125 Z M 17.40625 -4.53125 "/></g></g></g><g fill="#66a80f" fill-opacity="1"><g transform="translate(201.137885, 203.11569)"><g><path d="M 16.4375 0.53125 C 13.539062 0.53125 11.003906 -0.125 8.828125 -1.4375 C 6.660156 -2.757812 4.976562 -4.601562 3.78125 -6.96875 C 2.582031 -9.332031 1.984375 -12.082031 1.984375 -15.21875 C 1.984375 -18.382812 2.601562 -21.175781 3.84375 -23.59375 C 5.09375 -26.007812 6.867188 -27.898438 9.171875 -29.265625 C 11.472656 -30.628906 14.207031 -31.3125 17.375 -31.3125 C 20.976562 -31.3125 23.96875 -30.445312 26.34375 -28.71875 C 28.71875 -26.988281 30.253906 -24.597656 30.953125 -21.546875 L 24.671875 -21.546875 C 24.203125 -22.984375 23.347656 -24.101562 22.109375 -24.90625 C 20.878906 -25.71875 19.300781 -26.125 17.375 -26.125 C 14.289062 -26.125 11.910156 -25.144531 10.234375 -23.1875 C 8.566406 -21.238281 7.734375 -18.566406 7.734375 -15.171875 C 7.734375 -11.765625 8.5625 -9.128906 10.21875 -7.265625 C 11.875 -5.410156 14.125 -4.484375 16.96875 -4.484375 C 19.757812 -4.484375 21.863281 -5.238281 23.28125 -6.75 C 24.695312 -8.257812 25.554688 -10.242188 25.859375 -12.703125 L 18.078125 -12.703125 L 18.078125 -16.921875 L 31.53125 -16.921875 L 31.53125 0 L 26.34375 0 L 25.890625 -4.046875 C 24.898438 -2.578125 23.65625 -1.445312 22.15625 -0.65625 C 20.664062 0.132812 18.757812 0.53125 16.4375 0.53125 Z M 16.4375 0.53125 "/></g></g></g><g fill="#66a80f" fill-opacity="1"><g transform="translate(241.931572, 203.11569)"><g><path d="M 2.984375 0 L 2.984375 -30.78125 L 23.078125 -30.78125 L 23.078125 -26.25 L 8.625 -26.25 L 8.625 -17.8125 L 21.765625 -17.8125 L 21.765625 -13.40625 L 8.625 -13.40625 L 8.625 -4.53125 L 23.078125 -4.53125 L 23.078125 0 Z M 2.984375 0 "/></g></g></g><g fill="#66a80f" fill-opacity="1"><g transform="translate(274.153624, 203.11569)"><g><path d="M 2.984375 0 L 2.984375 -30.78125 L 8.625 -30.78125 L 23.078125 -9.09375 L 23.078125 -30.78125 L 28.71875 -30.78125 L 28.71875 0 L 23.078125 0 L 8.625 -21.625 L 8.625 0 Z M 2.984375 0 "/></g></g></g><g fill="#66a80f" fill-opacity="1"><g transform="translate(312.661548, 203.11569)"><g><path d="M 2.984375 0 L 2.984375 -30.78125 L 23.078125 -30.78125 L 23.078125 -26.25 L 8.625 -26.25 L 8.625 -17.8125 L 21.765625 -17.8125 L 21.765625 -13.40625 L 8.625 -13.40625 L 8.625 -4.53125 L 23.078125 -4.53125 L 23.078125 0 Z M 2.984375 0 "/></g></g></g><g clip-path="url(#e35f70079d)"><path fill="#1d2633" d="M 179.394531 181.828125 L 179.496094 181.902344 C 180.171875 182.375 180.648438 183.078125 180.855469 183.875 C 180.980469 184.347656 181.273438 184.777344 181.722656 185.066406 C 182.605469 185.625 183.785156 185.402344 184.40625 184.5625 C 185.074219 183.652344 184.859375 182.378906 183.941406 181.734375 C 183.535156 181.449219 183.0625 181.335938 182.601562 181.382812 C 181.761719 181.460938 180.925781 181.222656 180.234375 180.738281 L 180.183594 180.703125 C 179.289062 180.078125 178.753906 179.066406 178.703125 177.980469 C 178.652344 176.964844 178.148438 175.988281 177.246094 175.367188 C 175.746094 174.332031 173.671875 174.6875 172.605469 176.164062 C 171.5 177.691406 171.859375 179.824219 173.398438 180.902344 C 174.292969 181.527344 175.386719 181.660156 176.351562 181.355469 C 177.382812 181.03125 178.507812 181.207031 179.394531 181.828125 Z M 179.601562 186.761719 L 179.5 186.691406 C 178.824219 186.214844 178.34375 185.515625 178.140625 184.714844 C 178.015625 184.242188 177.722656 183.8125 177.273438 183.527344 C 176.390625 182.96875 175.210938 183.1875 174.589844 184.03125 C 173.921875 184.9375 174.132812 186.210938 175.050781 186.855469 C 175.460938 187.140625 175.933594 187.253906 176.394531 187.210938 C 177.230469 187.128906 178.070312 187.367188 178.761719 187.851562 L 178.8125 187.890625 C 179.707031 188.515625 180.242188 189.523438 180.292969 190.613281 C 180.34375 191.625 180.847656 192.605469 181.75 193.226562 C 183.25 194.261719 185.324219 193.902344 186.390625 192.425781 C 187.496094 190.898438 187.136719 188.769531 185.597656 187.691406 C 184.703125 187.0625 183.609375 186.929688 182.644531 187.234375 C 181.613281 187.5625 180.488281 187.382812 179.601562 186.761719 Z M 172.984375 190.964844 L 173.089844 191.035156 C 173.765625 191.511719 174.242188 192.210938 174.449219 193.011719 C 174.570312 193.484375 174.867188 193.914062 175.316406 194.199219 C 176.199219 194.757812 177.378906 194.539062 177.996094 193.695312 C 178.667969 192.789062 178.453125 191.515625 177.535156 190.871094 C 177.128906 190.585938 176.652344 190.472656 176.195312 190.515625 C 175.355469 190.597656 174.519531 190.359375 173.828125 189.875 L 173.777344 189.835938 C 172.882812 189.210938 172.347656 188.203125 172.292969 187.113281 C 172.246094 186.101562 171.742188 185.121094 170.839844 184.5 C 169.339844 183.464844 167.265625 183.824219 166.199219 185.300781 C 165.09375 186.828125 165.453125 188.957031 166.992188 190.039062 C 167.886719 190.664062 168.976562 190.796875 169.945312 190.492188 C 170.976562 190.164062 172.101562 190.34375 172.984375 190.964844 Z M 176.238281 196.371094 C 177.203125 196.066406 178.296875 196.199219 179.191406 196.824219 C 180.726562 197.902344 181.089844 200.035156 179.984375 201.5625 C 178.914062 203.039062 176.84375 203.394531 175.339844 202.359375 C 174.441406 201.738281 173.9375 200.761719 173.886719 199.746094 C 173.832031 198.660156 173.300781 197.652344 172.40625 197.023438 L 172.355469 196.988281 C 171.664062 196.503906 170.824219 196.265625 169.988281 196.34375 C 169.527344 196.390625 169.050781 196.277344 168.644531 195.992188 C 167.726562 195.347656 167.515625 194.074219 168.183594 193.164062 C 168.804688 192.324219 169.984375 192.101562 170.863281 192.660156 C 171.316406 192.949219 171.609375 193.378906 171.730469 193.851562 C 171.9375 194.648438 172.417969 195.351562 173.089844 195.824219 L 173.195312 195.898438 C 174.082031 196.519531 175.207031 196.695312 176.238281 196.371094 " fill-opacity="1" fill-rule="nonzero"/></g><g fill="#66a80f" fill-opacity="1"><g transform="translate(44.903517, 265.572287)"><g><path d="M 2.984375 0 L 2.984375 -30.78125 L 8.625 -30.78125 L 23.078125 -9.09375 L 23.078125 -30.78125 L 28.71875 -30.78125 L 28.71875 0 L 23.078125 0 L 8.625 -21.625 L 8.625 0 Z M 2.984375 0 "/></g></g></g><g fill="#66a80f" fill-opacity="1"><g transform="translate(83.411442, 265.572287)"><g><path d="M 1.015625 0 L 12.265625 -30.78125 L 18.59375 -30.78125 L 29.859375 0 L 23.875 0 L 21.40625 -7.125 L 9.40625 -7.125 L 6.90625 0 Z M 10.953125 -11.515625 L 19.875 -11.515625 L 15.390625 -24.3125 Z M 10.953125 -11.515625 "/></g></g></g><g fill="#66a80f" fill-opacity="1"><g transform="translate(121.040219, 265.572287)"><g><path d="M 2.984375 0 L 2.984375 -30.78125 L 8.625 -30.78125 L 23.078125 -9.09375 L 23.078125 -30.78125 L 28.71875 -30.78125 L 28.71875 0 L 23.078125 0 L 8.625 -21.625 L 8.625 0 Z M 2.984375 0 "/></g></g></g><g fill="#66a80f" fill-opacity="1"><g transform="translate(159.548144, 265.572287)"><g><path d="M 17.40625 0.53125 C 14.332031 0.53125 11.644531 -0.140625 9.34375 -1.484375 C 7.039062 -2.835938 5.238281 -4.707031 3.9375 -7.09375 C 2.632812 -9.488281 1.984375 -12.253906 1.984375 -15.390625 C 1.984375 -18.523438 2.632812 -21.285156 3.9375 -23.671875 C 5.238281 -26.066406 7.039062 -27.9375 9.34375 -29.28125 C 11.644531 -30.632812 14.332031 -31.3125 17.40625 -31.3125 C 20.457031 -31.3125 23.140625 -30.632812 25.453125 -29.28125 C 27.773438 -27.9375 29.578125 -26.066406 30.859375 -23.671875 C 32.148438 -21.285156 32.796875 -18.523438 32.796875 -15.390625 C 32.796875 -12.253906 32.148438 -9.488281 30.859375 -7.09375 C 29.578125 -4.707031 27.773438 -2.835938 25.453125 -1.484375 C 23.140625 -0.140625 20.457031 0.53125 17.40625 0.53125 Z M 17.40625 -4.53125 C 20.34375 -4.53125 22.679688 -5.492188 24.421875 -7.421875 C 26.171875 -9.359375 27.046875 -12.015625 27.046875 -15.390625 C 27.046875 -18.765625 26.171875 -21.414062 24.421875 -23.34375 C 22.679688 -25.28125 20.34375 -26.25 17.40625 -26.25 C 14.476562 -26.25 12.132812 -25.28125 10.375 -23.34375 C 8.613281 -21.414062 7.734375 -18.765625 7.734375 -15.390625 C 7.734375 -12.015625 8.613281 -9.359375 10.375 -7.421875 C 12.132812 -5.492188 14.476562 -4.53125 17.40625 -4.53125 Z M 17.40625 -4.53125 "/></g></g></g><g fill="#1d2633" fill-opacity="1"><g transform="translate(201.137885, 265.572287)"><g><path d="M 16.4375 0.53125 C 13.539062 0.53125 11.003906 -0.125 8.828125 -1.4375 C 6.660156 -2.757812 4.976562 -4.601562 3.78125 -6.96875 C 2.582031 -9.332031 1.984375 -12.082031 1.984375 -15.21875 C 1.984375 -18.382812 2.601562 -21.175781 3.84375 -23.59375 C 5.09375 -26.007812 6.867188 -27.898438 9.171875 -29.265625 C 11.472656 -30.628906 14.207031 -31.3125 17.375 -31.3125 C 20.976562 -31.3125 23.96875 -30.445312 26.34375 -28.71875 C 28.71875 -26.988281 30.253906 -24.597656 30.953125 -21.546875 L 24.671875 -21.546875 C 24.203125 -22.984375 23.347656 -24.101562 22.109375 -24.90625 C 20.878906 -25.71875 19.300781 -26.125 17.375 -26.125 C 14.289062 -26.125 11.910156 -25.144531 10.234375 -23.1875 C 8.566406 -21.238281 7.734375 -18.566406 7.734375 -15.171875 C 7.734375 -11.765625 8.5625 -9.128906 10.21875 -7.265625 C 11.875 -5.410156 14.125 -4.484375 16.96875 -4.484375 C 19.757812 -4.484375 21.863281 -5.238281 23.28125 -6.75 C 24.695312 -8.257812 25.554688 -10.242188 25.859375 -12.703125 L 18.078125 -12.703125 L 18.078125 -16.921875 L 31.53125 -16.921875 L 31.53125 0 L 26.34375 0 L 25.890625 -4.046875 C 24.898438 -2.578125 23.65625 -1.445312 22.15625 -0.65625 C 20.664062 0.132812 18.757812 0.53125 16.4375 0.53125 Z M 16.4375 0.53125 "/></g></g></g><g fill="#1d2633" fill-opacity="1"><g transform="translate(241.931572, 265.572287)"><g><path d="M 2.984375 0 L 2.984375 -30.78125 L 23.078125 -30.78125 L 23.078125 -26.25 L 8.625 -26.25 L 8.625 -17.8125 L 21.765625 -17.8125 L 21.765625 -13.40625 L 8.625 -13.40625 L 8.625 -4.53125 L 23.078125 -4.53125 L 23.078125 0 Z M 2.984375 0 "/></g></g></g><g fill="#1d2633" fill-opacity="1"><g transform="translate(274.153624, 265.572287)"><g><path d="M 2.984375 0 L 2.984375 -30.78125 L 8.625 -30.78125 L 23.078125 -9.09375 L 23.078125 -30.78125 L 28.71875 -30.78125 L 28.71875 0 L 23.078125 0 L 8.625 -21.625 L 8.625 0 Z M 2.984375 0 "/></g></g></g><g fill="#1d2633" fill-opacity="1"><g transform="translate(312.661548, 265.572287)"><g><path d="M 2.984375 0 L 2.984375 -30.78125 L 23.078125 -30.78125 L 23.078125 -26.25 L 8.625 -26.25 L 8.625 -17.8125 L 21.765625 -17.8125 L 21.765625 -13.40625 L 8.625 -13.40625 L 8.625 -4.53125 L 23.078125 -4.53125 L 23.078125 0 Z M 2.984375 0 "/></g></g></g><g clip-path="url(#9f676e63f1)"><path fill="#66a80f" d="M 179.394531 244.285156 L 179.496094 244.359375 C 180.171875 244.832031 180.648438 245.53125 180.855469 246.332031 C 180.980469 246.804688 181.273438 247.234375 181.722656 247.519531 C 182.605469 248.082031 183.785156 247.859375 184.40625 247.019531 C 185.074219 246.109375 184.859375 244.835938 183.941406 244.191406 C 183.535156 243.90625 183.0625 243.792969 182.601562 243.839844 C 181.761719 243.917969 180.925781 243.679688 180.234375 243.195312 L 180.183594 243.160156 C 179.289062 242.53125 178.753906 241.523438 178.703125 240.433594 C 178.652344 239.421875 178.148438 238.445312 177.246094 237.824219 C 175.746094 236.789062 173.671875 237.144531 172.605469 238.621094 C 171.5 240.148438 171.859375 242.28125 173.398438 243.359375 C 174.292969 243.984375 175.386719 244.117188 176.351562 243.8125 C 177.382812 243.488281 178.507812 243.664062 179.394531 244.285156 Z M 179.601562 249.21875 L 179.5 249.148438 C 178.824219 248.671875 178.34375 247.972656 178.140625 247.171875 C 178.015625 246.699219 177.722656 246.269531 177.273438 245.984375 C 176.390625 245.425781 175.210938 245.644531 174.589844 246.484375 C 173.921875 247.394531 174.132812 248.667969 175.050781 249.3125 C 175.460938 249.597656 175.933594 249.710938 176.394531 249.667969 C 177.230469 249.585938 178.070312 249.824219 178.761719 250.308594 L 178.8125 250.347656 C 179.707031 250.972656 180.242188 251.980469 180.292969 253.070312 C 180.34375 254.082031 180.847656 255.0625 181.75 255.683594 C 183.25 256.71875 185.324219 256.359375 186.390625 254.882812 C 187.496094 253.355469 187.136719 251.226562 185.597656 250.144531 C 184.703125 249.519531 183.609375 249.386719 182.644531 249.691406 C 181.613281 250.019531 180.488281 249.839844 179.601562 249.21875 Z M 172.984375 253.421875 L 173.089844 253.492188 C 173.765625 253.964844 174.242188 254.667969 174.449219 255.464844 C 174.570312 255.941406 174.867188 256.371094 175.316406 256.65625 C 176.199219 257.214844 177.378906 256.996094 177.996094 256.152344 C 178.667969 255.246094 178.453125 253.972656 177.535156 253.328125 C 177.128906 253.042969 176.652344 252.929688 176.195312 252.972656 C 175.355469 253.054688 174.519531 252.816406 173.828125 252.332031 L 173.777344 252.292969 C 172.882812 251.667969 172.347656 250.660156 172.292969 249.570312 C 172.246094 248.558594 171.742188 247.578125 170.839844 246.957031 C 169.339844 245.921875 167.265625 246.28125 166.199219 247.757812 C 165.09375 249.285156 165.453125 251.414062 166.992188 252.492188 C 167.886719 253.121094 168.976562 253.253906 169.945312 252.949219 C 170.976562 252.621094 172.101562 252.800781 172.984375 253.421875 Z M 176.238281 258.828125 C 177.203125 258.523438 178.296875 258.65625 179.191406 259.28125 C 180.726562 260.359375 181.089844 262.492188 179.984375 264.019531 C 178.914062 265.496094 176.84375 265.851562 175.339844 264.816406 C 174.441406 264.195312 173.9375 263.21875 173.886719 262.203125 C 173.832031 261.117188 173.300781 260.105469 172.40625 259.480469 L 172.355469 259.445312 C 171.664062 258.960938 170.824219 258.722656 169.988281 258.800781 C 169.527344 258.847656 169.050781 258.734375 168.644531 258.449219 C 167.726562 257.804688 167.515625 256.527344 168.183594 255.621094 C 168.804688 254.78125 169.984375 254.558594 170.863281 255.117188 C 171.316406 255.402344 171.609375 255.835938 171.730469 256.308594 C 171.9375 257.105469 172.417969 257.808594 173.089844 258.28125 L 173.195312 258.355469 C 174.082031 258.976562 175.207031 259.152344 176.238281 258.828125 " fill-opacity="1" fill-rule="nonzero"/></g><g fill="#1d2633" fill-opacity="1"><g transform="translate(44.903517, 328.029002)"><g><path d="M 2.984375 0 L 2.984375 -30.78125 L 8.625 -30.78125 L 23.078125 -9.09375 L 23.078125 -30.78125 L 28.71875 -30.78125 L 28.71875 0 L 23.078125 0 L 8.625 -21.625 L 8.625 0 Z M 2.984375 0 "/></g></g></g><g fill="#1d2633" fill-opacity="1"><g transform="translate(83.411442, 328.029002)"><g><path d="M 1.015625 0 L 12.265625 -30.78125 L 18.59375 -30.78125 L 29.859375 0 L 23.875 0 L 21.40625 -7.125 L 9.40625 -7.125 L 6.90625 0 Z M 10.953125 -11.515625 L 19.875 -11.515625 L 15.390625 -24.3125 Z M 10.953125 -11.515625 "/></g></g></g><g fill="#1d2633" fill-opacity="1"><g transform="translate(121.040219, 328.029002)"><g><path d="M 2.984375 0 L 2.984375 -30.78125 L 8.625 -30.78125 L 23.078125 -9.09375 L 23.078125 -30.78125 L 28.71875 -30.78125 L 28.71875 0 L 23.078125 0 L 8.625 -21.625 L 8.625 0 Z M 2.984375 0 "/></g></g></g><g fill="#1d2633" fill-opacity="1"><g transform="translate(159.548144, 328.029002)"><g><path d="M 17.40625 0.53125 C 14.332031 0.53125 11.644531 -0.140625 9.34375 -1.484375 C 7.039062 -2.835938 5.238281 -4.707031 3.9375 -7.09375 C 2.632812 -9.488281 1.984375 -12.253906 1.984375 -15.390625 C 1.984375 -18.523438 2.632812 -21.285156 3.9375 -23.671875 C 5.238281 -26.066406 7.039062 -27.9375 9.34375 -29.28125 C 11.644531 -30.632812 14.332031 -31.3125 17.40625 -31.3125 C 20.457031 -31.3125 23.140625 -30.632812 25.453125 -29.28125 C 27.773438 -27.9375 29.578125 -26.066406 30.859375 -23.671875 C 32.148438 -21.285156 32.796875 -18.523438 32.796875 -15.390625 C 32.796875 -12.253906 32.148438 -9.488281 30.859375 -7.09375 C 29.578125 -4.707031 27.773438 -2.835938 25.453125 -1.484375 C 23.140625 -0.140625 20.457031 0.53125 17.40625 0.53125 Z M 17.40625 -4.53125 C 20.34375 -4.53125 22.679688 -5.492188 24.421875 -7.421875 C 26.171875 -9.359375 27.046875 -12.015625 27.046875 -15.390625 C 27.046875 -18.765625 26.171875 -21.414062 24.421875 -23.34375 C 22.679688 -25.28125 20.34375 -26.25 17.40625 -26.25 C 14.476562 -26.25 12.132812 -25.28125 10.375 -23.34375 C 8.613281 -21.414062 7.734375 -18.765625 7.734375 -15.390625 C 7.734375 -12.015625 8.613281 -9.359375 10.375 -7.421875 C 12.132812 -5.492188 14.476562 -4.53125 17.40625 -4.53125 Z M 17.40625 -4.53125 "/></g></g></g><g fill="#66a80f" fill-opacity="1"><g transform="translate(201.137885, 328.029002)"><g><path d="M 16.4375 0.53125 C 13.539062 0.53125 11.003906 -0.125 8.828125 -1.4375 C 6.660156 -2.757812 4.976562 -4.601562 3.78125 -6.96875 C 2.582031 -9.332031 1.984375 -12.082031 1.984375 -15.21875 C 1.984375 -18.382812 2.601562 -21.175781 3.84375 -23.59375 C 5.09375 -26.007812 6.867188 -27.898438 9.171875 -29.265625 C 11.472656 -30.628906 14.207031 -31.3125 17.375 -31.3125 C 20.976562 -31.3125 23.96875 -30.445312 26.34375 -28.71875 C 28.71875 -26.988281 30.253906 -24.597656 30.953125 -21.546875 L 24.671875 -21.546875 C 24.203125 -22.984375 23.347656 -24.101562 22.109375 -24.90625 C 20.878906 -25.71875 19.300781 -26.125 17.375 -26.125 C 14.289062 -26.125 11.910156 -25.144531 10.234375 -23.1875 C 8.566406 -21.238281 7.734375 -18.566406 7.734375 -15.171875 C 7.734375 -11.765625 8.5625 -9.128906 10.21875 -7.265625 C 11.875 -5.410156 14.125 -4.484375 16.96875 -4.484375 C 19.757812 -4.484375 21.863281 -5.238281 23.28125 -6.75 C 24.695312 -8.257812 25.554688 -10.242188 25.859375 -12.703125 L 18.078125 -12.703125 L 18.078125 -16.921875 L 31.53125 -16.921875 L 31.53125 0 L 26.34375 0 L 25.890625 -4.046875 C 24.898438 -2.578125 23.65625 -1.445312 22.15625 -0.65625 C 20.664062 0.132812 18.757812 0.53125 16.4375 0.53125 Z M 16.4375 0.53125 "/></g></g></g><g fill="#66a80f" fill-opacity="1"><g transform="translate(241.931572, 328.029002)"><g><path d="M 2.984375 0 L 2.984375 -30.78125 L 23.078125 -30.78125 L 23.078125 -26.25 L 8.625 -26.25 L 8.625 -17.8125 L 21.765625 -17.8125 L 21.765625 -13.40625 L 8.625 -13.40625 L 8.625 -4.53125 L 23.078125 -4.53125 L 23.078125 0 Z M 2.984375 0 "/></g></g></g><g fill="#66a80f" fill-opacity="1"><g transform="translate(274.153624, 328.029002)"><g><path d="M 2.984375 0 L 2.984375 -30.78125 L 8.625 -30.78125 L 23.078125 -9.09375 L 23.078125 -30.78125 L 28.71875 -30.78125 L 28.71875 0 L 23.078125 0 L 8.625 -21.625 L 8.625 0 Z M 2.984375 0 "/></g></g></g><g fill="#66a80f" fill-opacity="1"><g transform="translate(312.661548, 328.029002)"><g><path d="M 2.984375 0 L 2.984375 -30.78125 L 23.078125 -30.78125 L 23.078125 -26.25 L 8.625 -26.25 L 8.625 -17.8125 L 21.765625 -17.8125 L 21.765625 -13.40625 L 8.625 -13.40625 L 8.625 -4.53125 L 23.078125 -4.53125 L 23.078125 0 Z M 2.984375 0 "/></g></g></g><g clip-path="url(#ae5bfd2a0f)"><path fill="#1d2633" d="M 179.394531 306.742188 L 179.496094 306.8125 C 180.171875 307.289062 180.648438 307.988281 180.855469 308.789062 C 180.980469 309.261719 181.273438 309.691406 181.722656 309.976562 C 182.605469 310.539062 183.785156 310.316406 184.40625 309.476562 C 185.074219 308.566406 184.859375 307.292969 183.941406 306.648438 C 183.535156 306.363281 183.0625 306.25 182.601562 306.292969 C 181.761719 306.375 180.925781 306.136719 180.234375 305.652344 L 180.183594 305.617188 C 179.289062 304.988281 178.753906 303.980469 178.703125 302.890625 C 178.652344 301.878906 178.148438 300.902344 177.246094 300.28125 C 175.746094 299.246094 173.671875 299.601562 172.605469 301.078125 C 171.5 302.605469 171.859375 304.738281 173.398438 305.816406 C 174.292969 306.441406 175.386719 306.574219 176.351562 306.269531 C 177.382812 305.945312 178.507812 306.121094 179.394531 306.742188 Z M 179.601562 311.675781 L 179.5 311.601562 C 178.824219 311.128906 178.34375 310.429688 178.140625 309.628906 C 178.015625 309.15625 177.722656 308.726562 177.273438 308.441406 C 176.390625 307.878906 175.210938 308.101562 174.589844 308.941406 C 173.921875 309.851562 174.132812 311.125 175.050781 311.769531 C 175.460938 312.054688 175.933594 312.167969 176.394531 312.125 C 177.230469 312.042969 178.070312 312.28125 178.761719 312.765625 L 178.8125 312.800781 C 179.707031 313.429688 180.242188 314.4375 180.292969 315.527344 C 180.34375 316.539062 180.847656 317.515625 181.75 318.136719 C 183.25 319.171875 185.324219 318.816406 186.390625 317.339844 C 187.496094 315.8125 187.136719 313.679688 185.597656 312.601562 C 184.703125 311.976562 183.609375 311.84375 182.644531 312.148438 C 181.613281 312.472656 180.488281 312.296875 179.601562 311.675781 Z M 172.984375 315.875 L 173.089844 315.949219 C 173.765625 316.421875 174.242188 317.125 174.449219 317.921875 C 174.570312 318.398438 174.867188 318.828125 175.316406 319.113281 C 176.199219 319.671875 177.378906 319.449219 177.996094 318.609375 C 178.667969 317.703125 178.453125 316.425781 177.535156 315.785156 C 177.128906 315.5 176.652344 315.386719 176.195312 315.429688 C 175.355469 315.511719 174.519531 315.269531 173.828125 314.789062 L 173.777344 314.75 C 172.882812 314.125 172.347656 313.117188 172.292969 312.027344 C 172.246094 311.015625 171.742188 310.035156 170.839844 309.414062 C 169.339844 308.378906 167.265625 308.734375 166.199219 310.214844 C 165.09375 311.742188 165.453125 313.871094 166.992188 314.949219 C 167.886719 315.578125 168.976562 315.710938 169.945312 315.40625 C 170.976562 315.078125 172.101562 315.253906 172.984375 315.875 Z M 176.238281 321.285156 C 177.203125 320.980469 178.296875 321.109375 179.191406 321.738281 C 180.726562 322.816406 181.089844 324.949219 179.984375 326.476562 C 178.914062 327.953125 176.84375 328.308594 175.339844 327.273438 C 174.441406 326.652344 173.9375 325.671875 173.886719 324.660156 C 173.832031 323.574219 173.300781 322.5625 172.40625 321.9375 L 172.355469 321.902344 C 171.664062 321.417969 170.824219 321.175781 169.988281 321.257812 C 169.527344 321.304688 169.050781 321.191406 168.644531 320.90625 C 167.726562 320.261719 167.515625 318.984375 168.183594 318.078125 C 168.804688 317.238281 169.984375 317.015625 170.863281 317.574219 C 171.316406 317.859375 171.609375 318.292969 171.730469 318.765625 C 171.9375 319.5625 172.417969 320.265625 173.089844 320.738281 L 173.195312 320.8125 C 174.082031 321.433594 175.207031 321.609375 176.238281 321.285156 " fill-opacity="1" fill-rule="nonzero"/></g></svg>