<?xml version="1.0" standalone="no"?>
<!DOCTYPE svg PUBLIC "-//W3C//DTD SVG 20010904//EN"
 "http://www.w3.org/TR/2001/REC-SVG-20010904/DTD/svg10.dtd">
<svg version="1.0" xmlns="http://www.w3.org/2000/svg" height="40" viewBox="0 0 944.000000 1972.000000"
 preserveAspectRatio="xMidYMid meet">

<g transform="translate(0.000000,1972.000000) scale(0.100000,-0.100000)"
fill="#000000" stroke="none">
<path d="M1100 13500 l0 -6220 3618 2 3617 3 3 6218 2 6217 -3620 0 -3620 0 0
-6220z m3170 5727 c52 -26 64 -47 25 -47 -47 0 -148 -30 -208 -63 -105 -55
-166 -142 -245 -345 -73 -187 -166 -307 -280 -360 -49 -23 -70 -27 -147 -27
-74 0 -97 4 -132 23 -51 27 -90 81 -99 139 -6 42 -6 43 31 59 21 8 70 18 109
21 54 5 78 12 99 29 34 28 64 30 111 7 58 -27 75 -12 151 139 86 169 146 257
226 334 125 119 240 148 359 91z m1138 -3 c63 -28 168 -125 226 -209 22 -33
75 -125 116 -204 41 -79 83 -149 92 -155 13 -8 26 -7 50 3 61 25 92 25 124 -2
22 -19 45 -25 100 -30 39 -3 88 -13 109 -21 37 -16 37 -17 31 -59 -9 -58 -48
-112 -99 -139 -34 -19 -58 -23 -132 -23 -77 0 -98 4 -147 27 -115 54 -206 171
-283 367 -23 58 -54 130 -70 160 -34 68 -116 151 -182 184 -54 28 -156 57
-197 57 -57 0 -9 44 72 66 59 16 122 9 190 -22z m-323 -253 c245 -65 377 -206
405 -437 7 -58 13 -70 62 -126 153 -177 358 -282 516 -264 81 10 155 40 229
92 131 93 282 120 409 73 133 -50 245 -217 304 -453 37 -147 39 -184 16 -310
-14 -73 -17 -127 -13 -205 10 -218 71 -310 239 -365 107 -36 164 -71 249 -155
60 -60 85 -94 117 -161 64 -132 77 -197 76 -390 -1 -227 -39 -407 -129 -612
-166 -377 -480 -603 -898 -648 -125 -14 -282 -1 -330 27 -82 48 -128 161 -108
267 12 65 27 100 81 185 47 75 57 118 38 158 -28 59 -159 94 -226 59 -79 -42
-148 -159 -159 -268 -10 -111 47 -282 139 -415 84 -123 312 -194 554 -173 323
28 566 133 763 329 288 286 429 727 407 1271 -4 91 -11 196 -16 235 -5 38 -7
72 -5 74 15 15 107 -262 142 -428 24 -112 27 -148 27 -326 1 -153 -4 -221 -17
-288 -68 -335 -253 -634 -532 -858 -183 -147 -447 -298 -620 -353 -108 -35
-265 -64 -408 -75 -101 -8 -124 -13 -157 -35 -72 -47 -120 -167 -120 -296 l0
-65 63 -36 c212 -125 315 -335 278 -569 -26 -161 -100 -254 -267 -336 -141
-69 -311 -106 -567 -122 l-107 -7 151 -130 c99 -86 159 -131 177 -133 15 -1
71 8 124 22 271 69 496 236 602 448 72 143 89 222 90 410 1 87 4 158 8 158 16
0 108 -210 128 -294 62 -254 -6 -540 -185 -774 l-56 -73 38 16 c179 74 321
318 379 648 8 50 21 169 27 262 l12 170 50 17 c99 33 185 19 185 -30 0 -21
-33 -95 -58 -130 -13 -19 -21 -54 -26 -112 -9 -111 -50 -310 -87 -424 -34
-104 -109 -266 -162 -348 -53 -83 -160 -191 -240 -244 -40 -26 -74 -48 -76
-50 -2 -2 4 -22 14 -46 9 -24 19 -48 22 -54 3 -7 -37 -9 -130 -6 -296 10 -475
-49 -522 -172 -15 -39 -16 -53 -5 -118 7 -40 16 -77 20 -81 16 -18 395 33 537
73 167 46 238 95 273 190 25 66 55 97 77 78 7 -6 20 -35 29 -64 14 -49 14 -59
0 -107 -33 -112 -174 -214 -407 -292 -101 -34 -327 -87 -426 -100 -28 -4 -58
-14 -66 -23 -24 -27 -38 -95 -29 -138 10 -50 22 -52 171 -24 137 26 210 23
272 -12 60 -33 97 -83 109 -148 15 -78 25 -83 146 -76 l102 6 11 -31 c14 -40
14 -109 0 -146 -29 -77 -135 -142 -279 -171 l-92 -18 34 -26 c50 -38 137 -84
198 -104 83 -28 226 -26 313 5 92 31 202 106 281 192 65 71 65 71 72 43 4 -15
2 -66 -4 -112 -27 -200 -136 -320 -334 -367 -116 -27 -254 -16 -548 44 -80 16
-147 27 -149 25 -2 -2 3 -12 13 -23 28 -30 56 -128 65 -220 10 -112 0 -248
-38 -496 -40 -260 -71 -505 -71 -559 0 -23 -3 -45 -6 -49 -7 -7 -124 50 -124
60 0 3 11 94 25 202 38 303 57 540 58 726 l0 170 -41 124 c-48 141 -98 245
-150 314 -36 47 -113 107 -138 107 -7 0 -21 3 -31 7 -13 5 -10 -4 13 -32 79
-101 114 -215 121 -396 7 -169 -7 -289 -55 -474 -37 -140 -37 -141 -37 -350 0
-167 4 -225 18 -283 70 -289 216 -450 452 -499 l73 -15 52 36 c79 55 143 68
203 42 45 -19 71 -50 112 -134 25 -53 44 -78 67 -90 51 -27 74 -55 98 -118 52
-137 49 -264 -7 -382 -44 -92 -166 -206 -288 -269 -113 -58 -232 -102 -374
-137 -111 -29 -281 -59 -288 -52 -3 2 -7 22 -10 44 -5 39 -6 40 -42 36 -167
-20 -272 -30 -276 -25 -3 2 -5 17 -5 32 0 30 -15 39 -63 39 -93 0 -154 -47
-165 -126 l-7 -49 -175 -3 c-170 -3 -325 10 -361 28 -9 6 -31 23 -47 39 -36
36 -72 47 -111 33 -21 -8 -39 -7 -59 0 -38 15 -78 3 -114 -33 -16 -16 -38 -33
-47 -39 -36 -18 -191 -31 -361 -28 l-175 3 -5 41 c-11 80 -56 122 -143 131
-55 6 -103 -9 -92 -28 4 -5 4 -17 1 -27 -6 -19 -22 -18 -277 12 -36 4 -37 3
-42 -36 -3 -22 -8 -42 -11 -45 -14 -14 -328 57 -472 108 -292 102 -478 268
-514 460 -19 101 -6 196 44 305 18 39 34 57 67 75 35 20 51 38 84 101 47 90
69 116 112 134 60 26 124 12 203 -42 l52 -36 73 15 c237 49 385 213 452 502
14 64 18 121 18 290 0 188 -2 217 -22 280 -53 168 -67 269 -67 470 -1 153 3
203 17 254 22 76 58 152 99 204 31 39 28 44 -19 26 -113 -42 -200 -171 -285
-421 l-42 -123 1 -175 c1 -206 41 -650 79 -892 6 -37 5 -37 -54 -67 -33 -17
-62 -27 -66 -24 -3 4 -6 26 -6 49 0 52 -31 295 -70 550 -41 268 -52 400 -40
507 11 95 39 189 66 218 10 11 15 21 13 23 -2 2 -80 -11 -173 -29 -289 -57
-410 -67 -524 -40 -183 43 -291 149 -328 324 -13 65 -19 163 -9 173 3 2 45
-34 93 -81 147 -144 254 -194 417 -195 123 -1 199 22 312 96 l78 51 -91 18
c-50 10 -112 28 -138 40 -60 26 -125 84 -143 126 -16 39 -17 109 -2 152 l11
32 97 -7 c124 -8 135 -3 150 73 20 104 98 170 210 180 36 3 98 -3 172 -17 150
-28 162 -26 171 25 8 48 -8 118 -31 138 -9 8 -50 20 -91 27 -454 72 -765 223
-811 393 -12 46 3 124 31 159 l17 22 25 -27 c14 -14 30 -45 37 -67 26 -89 115
-148 292 -194 153 -41 503 -87 519 -69 17 19 29 149 19 188 -35 128 -224 193
-526 183 -93 -3 -133 -1 -130 6 3 6 13 30 22 54 10 24 16 44 14 46 -2 1 -36
23 -75 49 -204 134 -358 388 -443 732 -21 87 -51 274 -51 323 0 17 -18 65 -40
107 -44 84 -48 106 -23 131 14 13 29 16 84 11 36 -3 83 -12 103 -21 36 -15 36
-16 36 -73 0 -85 18 -275 35 -375 56 -324 200 -569 378 -643 l38 -16 -56 73
c-86 113 -160 267 -189 392 -30 128 -24 298 15 428 20 69 105 248 117 248 4 0
7 -71 8 -158 1 -188 19 -267 90 -410 106 -212 331 -379 602 -448 53 -14 109
-23 124 -22 18 2 78 47 177 133 l150 130 -112 7 c-240 15 -422 55 -562 123
-190 92 -257 190 -271 395 -14 205 86 391 269 500 l76 45 1 65 c0 129 -48 249
-120 296 -33 22 -56 27 -157 35 -143 11 -300 40 -408 75 -173 55 -435 204
-620 352 -276 221 -464 522 -530 852 -36 178 -30 453 16 664 29 133 121 398
134 385 2 -2 0 -36 -6 -74 -30 -229 -20 -570 22 -780 102 -508 412 -881 832
-1000 348 -98 676 -67 822 79 55 56 141 230 161 326 19 93 12 177 -22 251 -27
58 -82 122 -126 145 -65 34 -195 1 -228 -58 -20 -37 -1 -104 51 -181 54 -79
71 -128 72 -212 2 -84 -25 -149 -81 -195 -52 -43 -98 -53 -247 -53 -511 -2
-900 288 -1065 793 -53 163 -74 297 -74 475 0 186 12 251 74 383 33 69 55 99
122 166 86 86 151 124 270 161 106 32 174 113 204 240 19 83 14 267 -10 379
-14 63 -14 76 3 166 24 122 71 262 113 337 47 85 143 176 212 202 124 46 271
21 402 -69 169 -117 313 -128 489 -40 44 22 109 63 144 92 77 63 169 168 175
200 2 13 8 52 14 88 26 177 155 316 347 376 117 36 182 42 455 39 212 -3 256
-6 325 -24z m-2677 -651 c12 -12 22 -23 22 -26 0 -3 -17 -26 -39 -50 -123
-140 -180 -373 -151 -619 6 -55 14 -155 17 -222 l6 -121 -54 -57 c-88 -93
-134 -103 -161 -37 -24 59 -2 386 42 637 45 258 128 456 209 500 38 21 84 18
109 -5z m4733 4 c105 -54 203 -360 244 -759 43 -416 5 -504 -149 -346 -69 70
-69 68 -36 406 20 201 -1 349 -70 490 -21 44 -57 101 -79 127 -23 25 -41 49
-41 52 0 3 10 14 22 26 26 24 68 26 109 4z m-5172 -5349 c17 -68 76 -184 124
-246 50 -63 128 -118 202 -143 62 -20 139 -76 166 -119 25 -41 18 -73 -26
-114 -31 -30 -41 -33 -94 -33 -91 0 -180 -32 -241 -87 -99 -89 -145 -196 -138
-320 10 -165 101 -266 266 -292 109 -17 119 -47 40 -113 -68 -56 -130 -118
-144 -143 -10 -18 -16 -15 -79 45 -131 125 -225 272 -260 410 -25 93 -17 234
17 318 37 91 84 164 157 243 l64 70 0 67 c0 54 -5 77 -27 117 -64 119 -102
326 -67 368 21 26 28 21 40 -28z m5540 31 c37 -44 6 -227 -61 -364 -27 -55
-33 -78 -32 -129 1 -61 1 -62 65 -132 201 -220 242 -455 123 -693 -49 -98
-120 -192 -204 -272 -71 -67 -90 -78 -90 -52 0 22 -44 69 -109 117 -69 50 -91
82 -74 107 10 17 23 21 121 41 199 40 289 261 192 469 -64 139 -191 222 -340
222 -52 0 -64 4 -95 31 -43 38 -52 67 -31 106 29 57 72 86 219 152 94 42 162
114 222 232 25 51 50 112 56 135 12 46 20 52 38 30z"/>
<path d="M3986 18099 c-80 -28 -99 -42 -130 -100 -21 -38 -29 -69 -33 -127 -7
-100 6 -151 108 -409 241 -617 351 -1075 399 -1668 9 -112 13 -132 31 -147 42
-35 130 -16 181 38 61 65 66 123 48 495 -38 769 -103 1282 -194 1522 -107 282
-178 383 -288 406 -61 13 -52 14 -122 -10z"/>
<path d="M5320 18108 c-34 -8 -57 -23 -100 -67 -54 -56 -65 -75 -148 -266
-110 -251 -183 -768 -222 -1580 -18 -386 -14 -437 43 -502 52 -59 136 -81 184
-48 17 12 22 29 28 97 49 616 151 1064 367 1623 147 380 141 360 142 470 2
157 -39 224 -161 264 -70 23 -69 23 -133 9z"/>
<path d="M2755 17976 c-16 -7 -48 -32 -69 -54 -52 -54 -60 -121 -25 -197 28
-60 158 -194 247 -254 99 -67 226 -178 368 -322 269 -273 436 -500 580 -789
140 -282 204 -522 220 -822 7 -128 7 -129 35 -144 30 -15 58 -18 83 -8 32 12
13 350 -34 608 -101 557 -334 1063 -698 1517 -243 305 -451 465 -615 475 -40
3 -73 0 -92 -10z"/>
<path d="M6497 17966 c-127 -53 -251 -147 -382 -292 -310 -344 -561 -764 -705
-1180 -113 -329 -188 -755 -178 -1019 l3 -90 29 -3 c39 -5 85 16 91 42 2 11 7
75 10 141 29 544 303 1085 806 1595 115 116 272 252 359 310 91 61 221 194
249 255 35 76 27 143 -25 197 -21 22 -53 47 -71 54 -48 21 -120 17 -186 -10z"/>
<path d="M2615 17260 c-92 -29 -119 -131 -70 -265 35 -96 71 -129 368 -340
611 -433 828 -629 952 -860 l27 -50 -7 45 c-11 68 -71 232 -125 345 -153 315
-365 583 -748 945 -154 146 -211 180 -303 186 -35 2 -78 -1 -94 -6z"/>
<path d="M6665 17257 c-68 -23 -89 -38 -221 -162 -472 -443 -723 -790 -854
-1180 -50 -151 -51 -178 -3 -97 54 91 150 207 244 296 170 160 284 249 729
564 102 72 213 157 248 189 54 50 66 68 87 128 26 73 32 146 16 188 -6 14 -26
37 -45 52 -43 33 -137 43 -201 22z"/>
<path d="M2225 16582 c-44 -22 -101 -78 -132 -132 -92 -155 -62 -404 84 -697
45 -90 73 -131 152 -219 119 -133 202 -198 355 -274 99 -50 128 -60 170 -60
171 0 186 134 40 354 -78 119 -42 235 94 305 101 51 274 68 370 37 155 -52
252 -246 252 -506 l0 -97 30 -7 c77 -15 106 32 104 174 -2 110 -33 257 -70
336 -89 189 -320 314 -634 344 -136 13 -191 39 -288 137 -42 43 -99 104 -125
136 -126 150 -294 220 -402 169z"/>
<path d="M7060 16591 c-76 -23 -179 -98 -247 -178 -26 -32 -82 -92 -123 -134
-98 -98 -155 -126 -289 -139 -183 -17 -337 -64 -448 -137 -69 -45 -155 -139
-187 -205 -61 -125 -93 -403 -54 -474 20 -36 54 -49 92 -34 26 9 26 11 26 112
1 253 97 442 251 493 97 32 270 16 371 -36 136 -70 172 -186 94 -305 -146
-221 -133 -354 35 -354 49 0 72 8 175 60 157 79 237 141 353 272 75 85 108
132 150 216 178 352 186 626 24 784 -62 61 -145 82 -223 59z"/>
<path d="M4694 15369 c-25 -28 -87 -56 -146 -64 -44 -7 -49 -5 -83 29 -50 50
-85 49 -148 -7 -42 -37 -49 -48 -57 -98 -10 -67 2 -177 23 -210 17 -26 67
-153 67 -170 0 -6 -24 -9 -62 -7 l-62 3 -58 130 c-32 72 -70 140 -84 153 -74
65 -198 -18 -226 -152 -9 -41 -8 -64 5 -116 31 -129 45 -155 124 -232 176
-171 295 -329 377 -497 l41 -86 1 155 c3 356 98 604 272 707 41 25 45 25 75
11 52 -25 124 -95 160 -156 83 -137 120 -303 121 -543 l1 -166 57 109 c79 153
153 251 305 408 122 126 133 141 156 206 35 99 40 144 27 210 -10 47 -21 65
-64 110 -47 48 -57 54 -94 54 -61 0 -84 -27 -151 -175 l-58 -130 -62 -3 c-37
-2 -61 1 -61 7 0 16 45 131 69 178 18 33 22 58 22 130 1 108 -7 129 -64 176
-60 49 -94 49 -142 1 -34 -34 -39 -36 -83 -29 -59 8 -121 36 -146 64 -11 11
-22 21 -26 21 -4 0 -15 -10 -26 -21z"/>
<path d="M4688 14692 c-110 -121 -166 -351 -155 -632 9 -226 40 -395 102 -551
20 -51 48 -141 61 -198 12 -57 25 -105 27 -108 2 -2 7 20 11 49 9 71 41 184
77 271 65 159 93 344 93 607 0 189 -2 213 -27 302 -27 102 -78 211 -125 267
l-28 33 -36 -40z"/>
<path d="M3605 14445 c-49 -19 -81 -48 -108 -100 -19 -34 -22 -56 -22 -155 0
-135 16 -187 73 -242 31 -30 58 -42 162 -73 181 -53 260 -94 350 -185 75 -74
139 -178 169 -272 12 -35 17 -39 80 -58 38 -11 74 -20 81 -20 10 0 12 28 7
133 -16 390 -161 698 -417 886 -109 81 -143 94 -245 98 -62 2 -102 -2 -130
-12z"/>
<path d="M5620 14451 c-43 -13 -92 -42 -160 -92 -197 -144 -331 -366 -391
-644 -25 -116 -38 -375 -19 -375 7 0 43 9 81 20 63 19 68 23 80 58 50 158 183
318 319 384 41 20 120 50 175 66 139 41 167 54 199 93 51 60 60 93 61 224 0
106 -3 125 -22 162 -25 47 -71 84 -122 102 -38 12 -162 14 -201 2z"/>
<path d="M3485 13716 c-145 -28 -280 -108 -319 -190 -46 -97 8 -207 129 -267
94 -46 117 -40 220 61 113 110 149 125 290 125 84 -1 128 -6 188 -24 44 -12
81 -21 83 -19 7 7 -65 105 -113 155 -134 137 -301 192 -478 159z"/>
<path d="M5770 13720 c-148 -27 -281 -122 -383 -274 -15 -22 -25 -42 -23 -44
2 -2 39 7 83 19 60 18 104 23 188 24 141 0 175 -15 295 -130 76 -74 93 -85
123 -85 57 0 155 57 195 113 84 117 35 239 -127 317 -110 54 -254 78 -351 60z"/>
<path d="M4480 12960 c-428 -91 -749 -390 -847 -788 -26 -104 -23 -323 6 -432
24 -93 115 -285 160 -339 l29 -35 56 14 c31 7 56 17 56 23 0 5 -16 27 -35 49
-49 58 -109 179 -141 283 -23 78 -27 109 -28 225 -1 156 14 227 75 358 50 108
109 190 200 278 90 86 143 123 251 174 515 245 1140 38 1367 -452 61 -130 75
-201 75 -358 -1 -117 -4 -147 -28 -225 -31 -102 -78 -196 -136 -273 -22 -29
-40 -56 -40 -61 0 -4 25 -14 56 -21 l56 -14 29 35 c37 45 112 189 138 266 117
347 23 722 -250 993 -153 152 -383 268 -613 309 -96 17 -338 12 -436 -9z"/>
<path d="M4627 12739 c-295 -30 -553 -201 -672 -442 -63 -128 -80 -199 -79
-332 0 -167 41 -291 139 -430 72 -101 66 -99 173 -68 l92 26 -55 56 c-125 127
-176 251 -176 420 1 160 57 296 171 411 271 275 725 274 1000 0 114 -115 170
-251 170 -417 0 -160 -57 -293 -178 -417 l-52 -53 92 -27 93 -27 38 43 c22 24
57 73 79 110 127 214 139 461 33 685 -146 310 -502 500 -868 462z"/>
<path d="M4610 12366 c-134 -28 -256 -123 -313 -243 -29 -63 -32 -76 -32 -168
0 -92 3 -105 32 -168 160 -337 678 -338 844 -2 32 65 34 76 34 170 0 94 -2
105 -34 170 -94 190 -311 289 -531 241z"/>
<path d="M4237 11315 c-54 -15 -71 -25 -41 -25 31 0 105 -51 152 -105 76 -86
131 -234 132 -352 1 -181 -103 -399 -277 -583 -78 -82 -233 -219 -233 -205 0
4 20 32 44 63 66 87 184 269 221 342 150 300 127 527 -65 625 -77 39 -113 45
-177 28 -164 -43 -296 -158 -356 -309 -80 -205 -58 -537 58 -904 18 -58 41
-134 49 -169 32 -127 108 -223 203 -255 77 -26 87 -23 100 33 6 28 31 91 54
140 36 77 49 96 88 121 60 40 86 46 126 27 46 -22 83 -102 101 -218 20 -133
51 -171 122 -148 46 15 85 41 139 92 l42 40 60 -55 c70 -66 133 -94 173 -79
40 15 59 52 69 132 12 94 22 131 53 183 27 47 71 72 108 63 13 -4 43 -19 67
-34 36 -24 50 -43 88 -122 25 -52 50 -116 56 -143 13 -55 23 -58 100 -32 98
33 179 141 206 275 7 31 21 79 32 108 33 88 87 310 105 431 20 138 14 351 -11
445 -53 190 -192 330 -378 378 -64 17 -99 11 -177 -28 -156 -80 -204 -248
-132 -462 51 -151 127 -287 262 -468 38 -52 70 -98 70 -101 0 -13 -153 121
-230 202 -271 286 -346 587 -212 850 42 82 142 175 210 193 27 8 27 8 -13 21
-22 6 -79 14 -127 17 -77 5 -92 3 -142 -20 -43 -20 -63 -37 -85 -73 -78 -121
-70 -239 54 -799 57 -258 50 -292 -96 -453 -56 -62 -105 -112 -109 -112 -5 0
-53 50 -109 112 -80 88 -105 123 -116 162 -19 63 -19 124 1 206 52 220 117
558 121 635 14 232 -71 346 -257 344 -41 0 -97 -7 -123 -14z m-117 -367 c58
-40 72 -69 78 -154 6 -103 -12 -203 -47 -251 -15 -21 -66 -65 -112 -97 -110
-78 -127 -94 -150 -139 -18 -35 -23 -38 -57 -35 l-37 3 -30 177 c-27 163 -28
182 -16 240 23 114 90 196 205 249 75 35 122 36 166 7z m1364 -7 c87 -39 147
-97 181 -173 39 -87 41 -152 8 -338 l-28 -155 -37 -3 c-34 -3 -39 0 -58 37
-15 30 -51 64 -135 126 -63 46 -122 96 -131 110 -38 58 -59 255 -33 322 12 33
56 82 84 93 38 16 86 10 149 -19z"/>
<path d="M3676 9458 c-3 -13 -7 -70 -9 -128 -8 -181 -38 -237 -249 -456 -102
-107 -138 -150 -138 -169 0 -14 6 -25 13 -26 30 -3 73 4 110 17 22 8 43 14 48
14 18 0 49 -80 49 -129 0 -43 -4 -52 -35 -79 -19 -17 -52 -34 -72 -38 -52 -9
-128 -49 -147 -76 -39 -56 -3 -107 116 -165 117 -57 209 -84 308 -90 105 -7
159 7 210 53 l38 35 -5 79 c-6 78 -5 80 25 114 149 170 238 395 249 632 6 134
1 153 -50 184 -88 54 -164 -12 -183 -160 -9 -74 -29 -112 -57 -108 -31 4 -54
53 -76 159 -35 171 -104 359 -132 359 -5 0 -11 -10 -13 -22z"/>
<path d="M5726 9455 c-31 -47 -88 -230 -116 -372 -31 -158 -105 -165 -124 -13
-19 148 -95 214 -183 160 -51 -31 -56 -50 -50 -184 12 -238 91 -445 235 -614
l45 -54 -6 -78 c-6 -72 -4 -80 17 -103 47 -51 83 -62 196 -62 121 0 200 20
337 87 120 59 156 110 117 166 -19 27 -95 67 -147 76 -45 8 -103 56 -110 91
-6 36 10 105 32 134 18 23 19 23 67 8 65 -20 100 -26 115 -17 27 17 -6 68
-125 190 -218 223 -246 273 -254 467 -5 134 -17 163 -46 118z"/>
<path d="M4513 9188 c-17 -29 -66 -139 -107 -244 -42 -106 -95 -223 -118 -260
-67 -111 -101 -215 -102 -309 -1 -88 14 -129 64 -176 33 -31 50 -83 50 -156
l0 -53 48 0 c95 1 185 68 222 166 26 71 35 131 22 146 -59 73 -67 411 -16 676
8 41 14 104 13 140 -2 131 -26 153 -76 70z"/>
<path d="M4860 9214 c-14 -37 -12 -150 4 -240 44 -237 46 -501 5 -609 -29 -78
-28 -144 3 -215 44 -99 127 -159 221 -160 l47 0 0 53 c0 72 16 122 50 157 16
17 37 45 47 63 23 44 23 165 -1 237 -21 61 -79 181 -106 220 -10 14 -55 118
-100 230 -109 273 -145 330 -170 264z"/>
<path d="M2815 8833 c-14 -16 -58 -63 -99 -106 -95 -98 -120 -157 -114 -263
13 -210 195 -380 526 -491 96 -32 114 -35 189 -31 94 5 138 27 138 69 0 19
-16 32 -90 72 -168 91 -311 208 -379 312 -44 66 -76 161 -76 225 0 36 -6 59
-22 80 l-21 29 26 40 c30 45 27 68 -10 82 -36 13 -42 12 -68 -18z"/>
<path d="M6554 8850 c-32 -13 -37 -38 -14 -70 23 -33 26 -73 6 -89 -8 -7 -15
-40 -18 -86 -12 -184 -173 -370 -450 -520 -77 -42 -93 -55 -93 -74 0 -42 44
-64 138 -69 75 -4 93 -1 192 32 180 61 338 154 422 250 20 23 50 70 67 106 28
58 31 75 31 155 0 107 -16 141 -117 246 -35 36 -75 80 -89 98 -28 32 -39 36
-75 21z"/>
<path d="M1100 4665 l0 -2025 3620 0 3620 0 0 2025 0 2025 -3620 0 -3620 0 0
-2025z m4472 843 c146 -54 248 -150 323 -301 88 -177 126 -422 105 -666 -34
-402 -197 -655 -470 -727 -79 -21 -243 -23 -320 -5 -169 40 -319 168 -395 336
-56 124 -82 239 -94 408 -35 487 133 859 431 956 90 29 100 30 233 26 98 -2
132 -7 187 -27z m-3040 -595 c4 -595 4 -598 27 -668 18 -53 34 -81 70 -116 53
-54 95 -69 192 -69 162 0 241 77 274 266 12 70 15 190 15 635 l0 549 145 0
146 0 -3 -612 c-4 -604 -4 -614 -27 -688 -61 -201 -174 -323 -357 -386 -68
-24 -95 -28 -194 -27 -96 0 -128 4 -192 25 -149 49 -251 140 -318 280 -68 145
-70 164 -70 823 l0 585 144 0 145 0 3 -597z m2018 457 l0 -140 -290 0 -290 0
2 -201 3 -200 268 0 267 1 0 -145 0 -145 -270 0 -270 0 0 -355 0 -355 -145 0
-145 0 0 840 0 840 435 0 435 0 0 -140z m2305 120 c236 -57 345 -213 345 -495
0 -172 -45 -300 -139 -392 -95 -93 -218 -132 -423 -133 l-108 0 0 -320 0 -320
-145 0 -145 0 0 841 0 841 283 -5 c165 -3 303 -10 332 -17z"/>
<path d="M5285 5271 c-151 -40 -235 -195 -255 -475 -15 -223 10 -442 65 -558
59 -125 138 -178 264 -178 206 1 305 145 332 482 29 365 -47 628 -204 710 -43
21 -153 32 -202 19z"/>
<path d="M6530 4996 l0 -233 73 -6 c95 -6 179 6 217 33 48 34 63 74 68 175 10
206 -51 265 -273 265 l-85 0 0 -234z"/>
<path d="M10 1728 c0 -162 4 -299 10 -320 18 -65 70 -130 129 -160 95 -50 236
-33 309 35 38 35 71 110 82 184 5 37 10 175 10 306 l0 237 -70 0 -70 0 0 -267
c0 -291 -5 -330 -50 -375 -24 -24 -37 -28 -82 -28 -61 0 -90 16 -116 63 -15
28 -17 69 -20 320 l-3 287 -65 0 -64 0 0 -282z"/>
<path d="M1240 1940 l0 -70 65 0 65 0 0 70 0 70 -65 0 -65 0 0 -70z"/>
<path d="M3420 1940 l0 -71 68 3 67 3 3 68 3 67 -71 0 -70 0 0 -70z"/>
<path d="M4010 1863 l0 -147 -27 26 c-58 54 -101 61 -169 28 -78 -38 -124
-139 -124 -273 0 -75 27 -171 62 -218 58 -77 179 -78 237 -2 l20 28 1 -37 0
-38 65 0 65 0 0 390 0 390 -65 0 -65 0 0 -147z m-46 -207 c51 -50 57 -222 11
-292 -36 -55 -105 -49 -134 11 -19 40 -26 170 -12 223 7 24 21 52 32 63 26 26
74 25 103 -5z"/>
<path d="M5110 1865 c0 -131 -7 -172 -24 -130 -9 24 -68 55 -104 55 -51 0
-110 -35 -141 -85 -42 -67 -54 -121 -49 -229 3 -80 8 -103 34 -152 36 -72 80
-104 141 -104 54 0 79 12 115 54 l27 31 1 -37 0 -38 66 0 67 0 -6 68 c-4 37
-7 212 -7 390 l0 322 -60 0 -60 0 0 -145z m-54 -202 c70 -71 56 -304 -20 -333
-34 -12 -70 1 -92 36 -20 29 -31 167 -20 230 14 71 89 109 132 67z"/>
<path d="M6220 1620 l0 -390 65 0 65 0 0 170 0 170 125 0 125 0 0 60 0 60
-125 0 -125 0 0 95 0 95 135 0 135 0 0 65 0 65 -200 0 -200 0 0 -390z"/>
<path d="M7580 1864 l0 -146 -35 31 c-41 36 -73 46 -117 37 -59 -12 -96 -44
-130 -114 -31 -63 -33 -73 -33 -172 0 -99 2 -109 32 -170 38 -76 68 -101 129
-108 54 -6 97 11 129 52 l25 31 0 -37 0 -38 65 0 65 0 0 390 0 390 -65 0 -65
0 0 -146z m-38 -215 c11 -14 24 -55 30 -91 21 -122 -22 -231 -90 -231 -18 0
-40 7 -51 17 -55 50 -55 262 0 317 29 29 86 22 111 -12z"/>
<path d="M9320 1620 l0 -390 60 0 60 0 0 390 0 390 -60 0 -60 0 0 -390z"/>
<path d="M893 1776 c-18 -8 -38 -24 -45 -35 -17 -28 -28 -26 -28 4 0 24 -3 25
-60 25 l-60 0 0 -270 0 -270 59 0 59 0 3 188 c4 166 6 191 25 222 25 44 78 54
110 19 17 -19 19 -39 22 -225 l3 -204 65 0 65 0 -3 223 c-3 188 -6 227 -20
254 -37 67 -127 99 -195 69z"/>
<path d="M2133 1770 c-86 -39 -129 -148 -121 -309 8 -170 68 -241 203 -241
104 0 166 47 189 143 l6 27 -58 0 c-53 0 -60 -2 -70 -25 -14 -30 -54 -47 -89
-39 -28 8 -53 55 -53 104 l0 30 141 0 142 0 -5 83 c-6 91 -26 148 -66 191 -54
58 -141 72 -219 36z m131 -109 c9 -10 20 -35 23 -55 l6 -36 -78 0 -78 0 6 36
c3 20 14 45 23 55 22 25 76 25 98 0z"/>
<path d="M3030 1774 c-48 -21 -87 -60 -101 -101 -15 -47 -3 -117 26 -152 25
-29 34 -34 138 -71 61 -23 82 -48 73 -86 -13 -51 -109 -49 -122 2 -6 22 -11
24 -66 24 l-61 0 6 -37 c13 -76 70 -125 156 -131 131 -9 221 63 221 178 0 78
-44 129 -144 166 -90 34 -98 40 -94 78 3 28 7 31 40 34 30 3 40 -1 54 -22 14
-23 23 -26 71 -26 l56 0 -6 35 c-16 100 -141 155 -247 109z"/>
<path d="M4396 1780 c-54 -17 -106 -85 -106 -140 0 -18 6 -20 59 -20 53 0 60
2 67 23 26 85 114 68 114 -23 l0 -40 -42 0 c-95 0 -166 -41 -199 -115 -37 -80
-13 -191 50 -228 59 -35 148 -16 190 40 l20 28 1 -37 0 -38 55 0 55 0 0 208
c0 203 -1 209 -26 259 -19 40 -35 57 -68 72 -44 22 -117 26 -170 11z m134
-330 c0 -89 -54 -149 -105 -116 -26 17 -38 66 -25 101 11 28 59 54 103 55 25
0 27 -3 27 -40z"/>
<path d="M5504 1776 c-79 -35 -124 -120 -132 -246 -11 -199 49 -300 184 -308
116 -8 189 40 209 136 l7 32 -61 0 c-44 0 -61 -4 -61 -13 0 -8 -8 -21 -17 -30
-56 -49 -121 -16 -130 66 l-6 47 142 0 141 0 0 70 c0 118 -49 214 -126 246
-42 18 -109 17 -150 0z m125 -122 c12 -15 21 -40 21 -55 l0 -29 -76 0 -77 0 6
36 c8 49 33 74 73 74 23 0 38 -7 53 -26z"/>
<path d="M6855 1771 c-47 -21 -90 -78 -111 -147 -18 -62 -18 -197 1 -262 30
-98 89 -142 193 -142 102 0 165 48 186 143 l6 27 -58 0 c-53 0 -60 -2 -70 -25
-14 -30 -54 -47 -89 -39 -28 8 -53 55 -53 104 l0 30 140 0 140 0 0 63 c0 201
-133 317 -285 248z m129 -110 c9 -10 20 -35 23 -55 l6 -36 -78 0 -78 0 6 36
c3 20 14 45 23 55 22 25 76 25 98 0z"/>
<path d="M7975 1774 c-47 -24 -82 -62 -107 -118 -19 -43 -23 -68 -23 -161 0
-102 2 -114 30 -170 39 -79 83 -105 175 -105 49 0 75 6 105 23 42 24 85 86 85
125 0 20 -5 22 -55 22 -49 0 -57 -3 -67 -25 -21 -47 -103 -52 -126 -8 -5 10
-12 37 -16 61 l-6 42 145 0 145 0 0 37 c0 130 -49 240 -123 273 -51 24 -121
25 -162 4z m125 -114 c12 -12 20 -33 20 -55 l0 -35 -74 0 -73 0 7 40 c4 22 13
46 20 55 18 22 76 19 100 -5z"/>
<path d="M8870 1768 c-46 -24 -73 -60 -85 -115 l-7 -33 60 0 c60 0 61 0 79 38
34 70 103 48 103 -35 l0 -43 -38 0 c-69 0 -138 -27 -171 -67 -61 -74 -61 -200
0 -259 23 -22 40 -29 89 -32 59 -4 61 -4 100 36 l40 40 0 -34 0 -34 58 0 57 0
-3 212 c-3 195 -5 217 -25 258 -28 57 -87 90 -162 90 -33 0 -66 -8 -95 -22z
m150 -328 c0 -60 -15 -94 -47 -109 -25 -11 -59 -1 -75 23 -9 14 -10 69 -2 91
8 21 59 44 97 45 26 0 27 -2 27 -50z"/>
<path d="M2733 1760 c-17 -10 -39 -32 -47 -47 l-15 -28 -1 43 0 42 -60 0 -60
0 2 -267 3 -268 63 -3 62 -3 0 153 c0 84 5 170 11 190 11 43 48 68 99 68 l30
0 0 70 c0 70 0 70 -27 70 -16 0 -42 -9 -60 -20z"/>
<path d="M8584 1770 c-12 -4 -35 -25 -53 -46 l-31 -39 0 43 0 42 -61 0 c-52 0
-60 -2 -55 -16 3 -9 6 -130 6 -270 l0 -255 63 3 62 3 5 178 5 179 28 24 c18
15 41 24 63 24 l34 0 0 70 c0 66 -1 70 -22 69 -13 0 -32 -4 -44 -9z"/>
<path d="M1240 1500 l0 -270 65 0 65 0 0 270 0 270 -65 0 -65 0 0 -270z"/>
<path d="M1480 1763 c0 -5 34 -126 77 -271 l77 -263 70 3 70 3 78 265 c42 146
77 266 78 268 0 2 -28 2 -62 0 l-62 -3 -47 -173 c-26 -95 -49 -175 -51 -177
-2 -2 -19 55 -38 128 -18 73 -40 153 -47 180 l-14 47 -64 0 c-36 0 -65 -3 -65
-7z"/>
<path d="M3422 1503 l3 -268 63 -3 62 -3 0 271 0 270 -65 0 -65 0 2 -267z"/>
<path d="M3174 802 c-87 -31 -136 -82 -176 -181 -20 -50 -23 -74 -23 -211 0
-140 3 -161 24 -215 30 -75 108 -155 167 -173 69 -20 162 -15 219 12 126 60
182 195 173 418 -6 136 -31 209 -92 276 -73 80 -191 110 -292 74z m166 -130
c14 -10 36 -40 50 -68 23 -45 25 -60 25 -189 0 -159 -15 -216 -66 -260 -43
-36 -125 -36 -167 0 -48 40 -65 95 -70 231 -5 133 9 208 49 259 44 55 123 67
179 27z"/>
<path d="M1880 653 l0 -147 -27 26 c-58 53 -101 61 -167 28 -159 -78 -170
-432 -18 -532 55 -37 149 -17 191 39 l20 28 1 -37 0 -38 65 0 65 0 0 390 0
390 -65 0 -65 0 0 -147z m-45 -209 c30 -32 40 -77 39 -164 -2 -112 -50 -183
-111 -163 -47 16 -65 52 -70 144 -8 136 22 209 87 209 21 0 39 -9 55 -26z"/>
<path d="M5550 410 l0 -391 68 3 67 3 3 148 3 147 52 0 c173 0 267 100 255
270 -7 93 -37 146 -103 179 -45 24 -62 26 -197 29 l-148 4 0 -392z m279 241
c24 -24 36 -79 27 -126 -10 -50 -47 -75 -112 -75 l-54 0 0 110 0 110 60 0 c46
0 65 -5 79 -19z"/>
<path d="M7153 700 l-63 -29 0 -55 0 -56 -45 0 -45 0 0 -50 0 -50 45 0 45 0 0
-167 c0 -93 5 -185 10 -205 16 -55 51 -78 121 -78 83 0 89 4 89 59 0 46 -1 47
-28 43 -56 -8 -62 11 -62 189 l0 159 45 0 c43 0 44 1 51 35 10 54 1 65 -50 65
l-45 0 -3 84 -3 84 -62 -28z"/>
<path d="M2275 561 c-51 -23 -78 -53 -107 -116 -19 -42 -23 -67 -23 -160 0
-102 2 -114 30 -170 44 -86 67 -100 173 -100 76 0 91 3 121 24 33 24 70 89 71
124 0 14 -9 17 -55 17 -49 0 -57 -3 -67 -24 -6 -14 -23 -30 -39 -36 -54 -23
-92 9 -105 87 l-7 43 148 0 147 0 -7 77 c-12 132 -46 197 -118 232 -53 26
-109 26 -162 2z m111 -99 c18 -11 34 -48 34 -76 0 -26 -1 -26 -76 -26 -65 0
-75 2 -70 16 3 9 6 24 6 35 0 42 70 76 106 51z"/>
<path d="M4789 552 c-47 -24 -58 -37 -88 -95 -32 -62 -35 -74 -34 -160 1 -194
82 -294 233 -285 132 7 200 91 208 258 6 117 -14 185 -71 244 -69 72 -158 85
-248 38z m141 -92 c10 -5 26 -30 35 -55 23 -59 18 -209 -9 -249 -38 -58 -111
-54 -140 9 -19 39 -22 198 -5 242 22 58 69 80 119 53z"/>
<path d="M6640 564 c-48 -21 -68 -41 -96 -96 -49 -98 -50 -272 -2 -366 36 -70
83 -94 180 -90 59 2 83 8 104 24 40 29 64 65 74 107 l8 37 -57 0 c-51 0 -57
-3 -72 -29 -11 -18 -28 -31 -47 -36 -57 -12 -92 26 -92 101 l0 34 141 0 142 0
-6 79 c-5 79 -31 156 -65 195 -45 50 -145 69 -212 40z m125 -117 c8 -13 18
-37 21 -55 l7 -32 -77 0 -76 0 0 29 c0 70 90 112 125 58z"/>
<path d="M7587 570 c-50 -15 -98 -61 -126 -119 -23 -50 -26 -68 -25 -161 1
-117 12 -154 66 -216 41 -47 83 -64 153 -64 93 0 154 42 197 135 19 41 23 67
23 150 0 89 -4 106 -28 158 -51 103 -153 149 -260 117z m122 -123 c44 -47 51
-230 11 -295 -34 -55 -104 -50 -137 10 -13 25 -18 56 -18 123 0 50 3 101 7
115 19 68 93 93 137 47z"/>
<path d="M4474 554 c-17 -8 -40 -32 -52 -52 l-22 -37 0 48 0 47 -61 0 -62 0 6
-67 c4 -38 7 -159 7 -270 l0 -203 60 0 60 0 0 138 c1 75 5 157 9 182 11 55 48
90 97 90 l34 0 0 70 c0 66 -1 70 -22 70 -13 0 -37 -7 -54 -16z"/>
<path d="M6330 563 c-23 -9 -51 -35 -71 -68 l-19 -30 0 48 0 47 -61 0 c-52 0
-60 -2 -55 -16 3 -9 6 -130 6 -270 l0 -254 64 0 65 0 3 180 c3 205 8 217 87
227 l41 6 0 68 c0 65 -1 69 -22 68 -13 0 -30 -3 -38 -6z"/>
<path d="M3712 338 c3 -198 5 -226 22 -255 52 -85 187 -97 240 -21 16 22 16
22 22 -10 l7 -32 65 0 65 0 -7 31 c-3 17 -6 139 -6 270 l0 239 -65 0 -65 0 0
-185 c0 -198 -7 -232 -51 -256 -28 -15 -73 4 -88 37 -7 16 -11 95 -11 214 l0
190 -66 0 -65 0 3 -222z"/>
</g>
</svg>
