<?xml version="1.0" standalone="no"?>
<!DOCTYPE svg PUBLIC "-//W3C//DTD SVG 20010904//EN"
 "http://www.w3.org/TR/2001/REC-SVG-20010904/DTD/svg10.dtd">
<svg version="1.0" xmlns="http://www.w3.org/2000/svg"
 width="1224.000000pt" height="284.000000pt" viewBox="0 0 1224.000000 284.000000"
 preserveAspectRatio="xMidYMid meet">

<g transform="translate(0.000000,284.000000) scale(0.100000,-0.100000)"
fill="#000000" stroke="none">
<path d="M3673 1928 c4 -978 2 -927 62 -1156 65 -249 237 -474 465 -608 183
-108 460 -158 875 -158 465 -1 727 86 961 319 155 154 239 313 297 567 20 91
21 118 24 1016 l4 922 -430 0 -430 0 -3 -907 c-3 -897 -3 -909 -25 -970 -67
-199 -224 -302 -455 -303 -97 0 -167 14 -244 51 -67 32 -149 111 -183 177 -52
101 -51 90 -51 1054 l0 898 -436 0 -435 0 4 -902z"/>
<path d="M6940 1440 l0 -1390 435 0 435 0 0 570 0 570 540 0 540 0 0 280 0
280 -540 0 -540 0 0 245 0 245 635 0 635 0 0 295 0 295 -1070 0 -1070 0 0
-1390z"/>
<path d="M9550 1973 c0 -942 2 -971 60 -1191 38 -144 82 -237 160 -340 180
-239 390 -359 713 -406 376 -56 772 -41 1027 39 219 69 420 224 549 425 84
131 152 345 171 535 5 55 10 480 10 948 l0 847 -435 0 -435 0 0 -898 c0 -764
-2 -906 -15 -955 -55 -211 -218 -327 -460 -327 -240 0 -397 110 -464 325 -13
43 -16 171 -18 953 l-4 902 -429 0 -430 0 0 -857z"/>
<path d="M830 1887 l0 -933 63 -62 63 -62 350 0 350 0 62 63 62 63 0 534 0
535 108 108 107 107 295 0 295 0 -290 290 -290 290 -587 0 -588 0 0 -933z"/>
<path d="M262 2257 l-252 -252 0 -590 0 -590 413 -413 412 -412 180 0 180 0
423 423 422 422 0 535 0 536 43 42 43 42 349 0 349 0 -59 60 -59 60 -321 0
-320 0 -78 -78 -77 -77 0 -530 0 -530 -192 -192 -193 -193 -345 0 -345 0 -153
153 -152 152 0 843 c0 463 -3 842 -8 842 -4 0 -121 -114 -260 -253z"/>
<path d="M2172 1858 c-9 -9 -12 -142 -12 -538 l0 -525 -390 -390 c-214 -214
-390 -393 -390 -397 0 -5 138 -8 308 -8 l307 0 413 413 412 412 0 523 0 522
-318 0 c-234 0 -321 -3 -330 -12z"/>
</g>
</svg>
