<?xml version="1.0" standalone="no"?>
<!DOCTYPE svg PUBLIC "-//W3C//DTD SVG 20010904//EN"
 "http://www.w3.org/TR/2001/REC-SVG-20010904/DTD/svg10.dtd">
<svg version="1.0" xmlns="http://www.w3.org/2000/svg"
 width="300.000000pt" height="241.000000pt" viewBox="0 0 300.000000 241.000000"
 preserveAspectRatio="xMidYMid meet">

<g transform="translate(0.000000,241.000000) scale(0.100000,-0.100000)"
fill="#000000" stroke="none">
<path d="M902 1937 l-313 -462 3 -325 c3 -318 3 -326 27 -373 15 -31 35 -54
60 -68 l36 -20 -44 5 c-54 6 -88 30 -115 82 -20 37 -21 58 -24 372 l-3 332
-60 0 -59 0 0 -136 0 -136 -200 -296 -201 -297 355 -3 c336 -2 357 -1 409 18
64 24 122 77 148 134 17 37 19 72 19 379 l0 337 35 0 35 0 2 -266 3 -266 99
147 c55 80 103 148 106 150 4 3 7 -136 6 -308 l-1 -312 63 -3 62 -3 0 391 0
390 95 -6 95 -7 0 37 0 37 -94 -7 -93 -7 -6 69 c-4 38 -9 89 -13 114 -12 90
38 186 111 210 57 19 76 8 32 -17 -20 -12 -45 -36 -56 -54 -26 -42 -34 -123
-18 -182 l13 -49 97 146 c60 90 92 148 86 152 -7 4 -10 29 -7 65 l4 59 -32 0
c-31 0 -39 11 -185 220 -84 121 -156 220 -159 220 -3 -1 -146 -209 -318 -463z"/>
<path d="M2397 1946 c-87 -32 -141 -87 -192 -197 -31 -69 -65 -199 -65 -250
l0 -38 -62 -3 c-63 -3 -63 -3 -63 -33 0 -30 0 -30 63 -33 l62 -3 0 -382 -1
-382 60 -3 61 -3 2 388 3 388 30 2 c17 0 58 2 93 2 59 1 62 2 62 26 0 24 -2
24 -92 27 l-93 3 -9 75 c-20 170 -8 231 54 283 42 36 91 44 142 23 23 -9 42
-15 43 -13 1 1 5 32 8 70 l5 67 -37 0 c-20 -1 -53 -7 -74 -14z"/>
<path d="M1713 1467 c-3 -5 -4 -293 -2 -640 l4 -632 -23 -42 c-27 -51 -78 -92
-126 -100 -36 -6 -43 -16 -27 -41 7 -11 19 -12 65 -2 72 15 142 62 183 123 63
95 63 90 63 746 l0 596 -66 0 c-36 0 -68 -4 -71 -8z"/>
</g>
</svg>
