<?xml version="1.0" encoding="UTF-8"?> <svg xmlns="http://www.w3.org/2000/svg" width="450" height="130" fill="#29166f"><path d="M27.8 51.6l20-11 20-11.2 11.3 6.3 11.3 6.2 11.3-6.2 11.3-6.3 40 22.2a26.3 26.3 0 0 1 12.7 16 25.3 25.3 0 0 1-3.2 20.7 28.3 28.3 0 0 1-36.8 8.7L108 87.4l-17.6-9.8-17.6 9.8L55 97.1a28.3 28.3 0 0 1-36.8-8.9l-1-1.5c-3.3-6.1-4-13-2.2-19.1a26.3 26.3 0 0 1 12.7-16zM67.7 40L50 49.7l-17.6 9.7A17.2 17.2 0 0 0 24 70a16.6 16.6 0 0 0 2.2 13.7 18.5 18.5 0 0 0 24.1 5.6L81.8 72 113 54.5h.1l28.6 16c1.2.5 2 1.6 2.2 2.7.4 1.1.2 2.4-.4 3.5-.7 1-1.8 1.8-3 2.1a5 5 0 0 1-3.6-.4l-24-13.4-6.6 3.7-6.6 3.6 30.6 17a18.5 18.5 0 0 0 23.9-5.4c.4-.6.8-1.2 1-1.8 2.1-3.9 2.5-8.2 1.4-12.2-1.2-4.3-4.1-8.1-8.4-10.5l-17.6-9.7-17.6-9.8-34.6 19.3-34.7 19.2a5 5 0 0 1-6.6-1.7c-.6-1.1-.7-2.4-.4-3.5s1-2.2 2.2-2.8l21-11.6 20.8-11.6-6.6-3.6-6.5-3.7zm112.7 12.7V35.1h11.7v17.7c0 2 .2 3.4.7 4.2s1.3 1.2 2.5 1.2 2-.4 2.5-1.2.7-2.2.7-4.2V35h11.7v17.6c0 2.3-.2 4.2-.5 5.7s-.7 2.7-1.4 3.7c-1.3 2-3 3.6-5.3 4.7-2.3 1-4.8 1.6-7.7 1.6s-5.5-.6-7.7-1.6c-2.3-1.1-4-2.7-5.3-4.7-.7-1-1.2-2.2-1.5-3.7-.2-1.5-.4-3.4-.4-5.7zm-1.3 40.9v-11h2v11.1c0 .7.1 1.3.5 1.6.3.3.8.5 1.4.5.7 0 1.2-.2 1.5-.5s.5-.9.5-1.6V82.6h2v11c0 1.4-.3 2.5-1 3.1-.6.7-1.6 1-3 1-1.3 0-2.3-.3-3-1-.6-.6-1-1.7-1-3.1zm10.2 4V87.4h1.9v1c.2-.4.5-.6.9-.8.3-.2.7-.3 1.2-.3.7 0 1.3.2 1.6.6.4.4.6 1 .6 1.9v7.6h-1.9v-6.7c0-.7 0-1.2-.2-1.4s-.5-.4-1-.4c-.4 0-.7.2-.9.4-.2.3-.3.7-.3 1.2v7h-1.9zm8.2-13.1c0-.3 0-.6.3-.8.2-.3.5-.4.9-.4.3 0 .6.1.8.4.2.2.3.5.3.8s-.1.6-.3.8c-.3.3-.5.4-.8.4-.4 0-.7-.1-.9-.4-.2-.2-.3-.5-.3-.8zm.2 13v-10h1.9v10h-1.9zm3.2-10h2l1 5.2a14.7 14.7 0 0 1 .3 2.3 101.5 101.5 0 0 1 .3-2.2l1-5.3h2l-2.6 10h-1.4l-2.6-10zm9.1 4h2.8v-.3c0-.9 0-1.5-.3-1.8-.2-.4-.6-.6-1-.6-.5 0-.9.2-1.1.7a4 4 0 0 0-.4 2zm4.5 2.7v.1c0 1-.3 1.9-.8 2.5s-1.3 1-2.2 1c-1.1 0-2-.5-2.5-1.3-.5-.9-.7-2.2-.7-4s.2-3 .7-4c.6-.8 1.4-1.2 2.4-1.2 1.1 0 2 .4 2.4 1.2.5.7.8 2 .8 3.8v.6H210v.3c0 1 .1 1.8.4 2.2.2.5.6.8 1 .8a1 1 0 0 0 1-.5c.3-.4.4-.9.4-1.5h1.7zm1.9 3.3v-10h1.8V89c.2-.6.6-1 1-1.2.3-.3.8-.5 1.4-.5v2h-.3c-.7 0-1.2.1-1.6.5-.3.4-.5 1-.5 1.7v6h-1.8zm5-2l.9.4.7.2c.4 0 .8-.1 1-.4.2-.2.4-.5.4-.9s-.4-1-1-1.6l-.2-.1a7 7 0 0 1-1.4-1.6c-.2-.4-.3-.9-.3-1.3 0-.9.2-1.6.8-2.1.5-.5 1.2-.8 2-.8a3.3 3.3 0 0 1 1.6.4v1.9a2 2 0 0 0-1.5-.7c-.3 0-.6.1-.8.3-.3.3-.4.5-.4.9s.4 1 1 1.5l.3.3c.6.6 1 1 1.3 1.5l.3 1.5c0 .9-.3 1.5-.8 2-.5.6-1.2.8-2 .8a4.5 4.5 0 0 1-1.8-.4v-1.9zm6.2-11c0-.3 0-.6.3-.8.2-.3.5-.4.8-.4.4 0 .6.1.9.4.2.2.3.5.3.8s-.1.6-.3.8c-.3.3-.6.4-.9.4s-.6-.1-.8-.4c-.2-.2-.3-.5-.3-.8zm.2 13v-10h1.9v10h-1.9zm5.6-5c0 1.3.1 2.2.3 2.7.3.5.6.8 1.1.8s.9-.3 1-.8a8 8 0 0 0 .4-2.7 8 8 0 0 0-.3-2.7c-.2-.5-.6-.7-1-.7-.6 0-1 .2-1.2.7s-.3 1.4-.3 2.7zm2.7 5v-1c-.2.5-.5.7-.8 1l-1.2.2c-.8 0-1.5-.4-2-1.2-.3-.9-.5-2.2-.5-4 0-1.7.2-3 .6-3.9.4-.8 1-1.3 2-1.3.4 0 .8.1 1 .3.4.2.7.5 1 .9v-6.8h1.8v15.8h-2zm8.2 0v-1c-.2.5-.5.7-.8 1l-1.2.2c-.8 0-1.4-.4-1.9-1.3a9 9 0 0 1-.6-3.9c0-1.7.2-3 .6-3.9.5-.8 1.1-1.3 2-1.3.4 0 .8.1 1 .3.4.2.7.5 1 .9v-1h1.8v10h-1.9zm-2.7-5a8 8 0 0 0 .4 2.7c.2.5.5.8 1 .8s.9-.3 1-.8a8 8 0 0 0 .4-2.7 8 8 0 0 0-.3-2.7c-.2-.5-.6-.8-1-.8-.6 0-1 .3-1.2.8s-.3 1.4-.3 2.7zm8.2 0c0 1.3.1 2.2.4 2.7.2.5.5.8 1 .8s.9-.3 1-.8a8 8 0 0 0 .4-2.7 8 8 0 0 0-.3-2.7c-.2-.5-.6-.7-1-.7-.6 0-1 .2-1.1.7a8 8 0 0 0-.4 2.7zm2.7 5v-1c-.2.5-.5.7-.8 1l-1.1.2c-1 0-1.6-.4-2-1.2-.4-.9-.6-2.2-.6-4 0-1.7.2-3 .6-3.9.4-.8 1-1.3 2-1.3.4 0 .8.1 1 .3.4.2.7.5 1 .9v-6.8h1.8v15.8h-1.9zm5.3-6h2.8v-.3c0-.9 0-1.5-.3-1.8-.2-.4-.6-.6-1-.6-.5 0-.9.2-1.1.7a4 4 0 0 0-.4 2zm4.5 2.7v.1c0 1-.3 1.9-.8 2.5s-1.3 1-2.2 1c-1.1 0-2-.5-2.5-1.3-.5-.9-.7-2.2-.7-4s.2-3 .7-4c.6-.8 1.4-1.2 2.4-1.2 1.1 0 2 .4 2.4 1.2.6.7.8 2 .8 3.8v.6h-4.6v.3c0 1 .1 1.8.4 2.2.2.5.6.8 1 .8a1 1 0 0 0 1-.5c.3-.4.4-.9.4-1.5h1.7zm6 3.3V82.6h6v1.8h-4v4.4h3.7v1.8h-3.6v5h4v2h-6zm7.4-2l.8.4.8.2c.3 0 .7-.1 1-.4.2-.2.3-.5.3-.9s-.4-1-1-1.6l-.2-.1a7 7 0 0 1-1.4-1.6c-.2-.4-.3-.9-.3-1.3 0-.9.3-1.6.8-2.1s1.2-.8 2-.8a3.3 3.3 0 0 1 1.6.4v1.9a2 2 0 0 0-1.5-.7c-.3 0-.6.1-.8.3-.2.3-.4.5-.4.9s.4 1 1 1.5l.3.3c.6.6 1 1 1.3 1.5l.3 1.5c0 .9-.2 1.5-.8 2-.5.6-1.2.8-2 .8a4.4 4.4 0 0 1-1.8-.4v-1.9zm6.4 2V89h-1v-1.4h1v-2.7h1.8v2.7h1.4V89H284v8.6h-1.8zm8.6 0v-1c-.2.5-.5.7-.8 1l-1.1.2c-.9 0-1.5-.4-2-1.3a9 9 0 0 1-.6-3.9c0-1.7.2-3 .6-3.9.5-.8 1.1-1.3 2-1.3.4 0 .8.1 1 .3.4.2.7.5 1 .9v-1h1.8v10h-1.9zm-2.7-5a8 8 0 0 0 .4 2.7c.2.5.5.8 1 .8s.9-.3 1-.8a8 8 0 0 0 .4-2.7 8 8 0 0 0-.3-2.7c-.2-.5-.6-.8-1-.8-.6 0-1 .3-1.1.8a8 8 0 0 0-.4 2.7zm8.2 0c0 1.3.1 2.2.4 2.7.2.5.5.8 1 .8s.9-.3 1-.8a8 8 0 0 0 .4-2.7 8 8 0 0 0-.3-2.7c-.2-.5-.6-.7-1-.7-.6 0-1 .2-1.1.7a8 8 0 0 0-.4 2.7zm2.7 5v-1c-.2.5-.5.7-.8 1l-1.1.2c-1 0-1.6-.4-2-1.2-.4-.9-.6-2.2-.6-4 0-1.7.2-3 .6-3.9.4-.8 1-1.3 2-1.3.4 0 .8.1 1 .3.4.2.7.5 1 .9v-6.8h1.8v15.8h-1.9zm4-3v-7h1.9v7.2c0 .4.1.8.3 1 .2.3.5.4 1 .4.3 0 .6-.1.8-.4.2-.2.3-.6.3-1v-7.2h1.9v7c0 1.2-.2 2-.7 2.5s-1.3.7-2.4.7c-1 0-1.8-.2-2.3-.7s-.7-1.3-.7-2.4zm12.6 3v-1c-.2.5-.5.7-.8 1l-1.2.2c-.8 0-1.5-.4-1.9-1.3s-.7-2.2-.7-3.9.3-3 .7-3.9c.4-.8 1-1.3 2-1.3.4 0 .7.1 1 .3.4.2.7.5 1 .9v-1h1.8v10h-1.9zm-2.7-5a8 8 0 0 0 .3 2.7c.3.5.6.8 1.1.8s.8-.3 1-.8a8 8 0 0 0 .4-2.7 8 8 0 0 0-.3-2.7c-.2-.5-.6-.8-1.1-.8s-.9.3-1 .8c-.3.5-.4 1.4-.4 2.7zm6.8 5V81.7h1.8v15.8h-1.8zm9.7-5c0 1.3 0 2.2.3 2.7.2.5.5.8 1 .8s.9-.3 1.1-.8a8 8 0 0 0 .3-2.7 8 8 0 0 0-.3-2.7c-.2-.5-.6-.7-1-.7-.6 0-1 .2-1.1.7a8 8 0 0 0-.3 2.7zm2.7 5v-1c-.3.5-.6.7-1 1l-1 .2c-1 0-1.6-.4-2-1.2-.4-.9-.6-2.2-.6-4 0-1.7.2-3 .6-3.9.4-.8 1-1.3 2-1.3.4 0 .8.1 1.1.3l.9.9v-6.8h1.8v15.8H332zm5.2-6h2.8v-.3c0-.9 0-1.5-.3-1.8-.2-.4-.6-.6-1-.6-.5 0-.9.2-1.1.7a4 4 0 0 0-.4 2zm4.5 2.7v.1c0 1-.2 1.9-.8 2.5-.5.6-1.2 1-2.2 1s-2-.5-2.4-1.3c-.6-.9-.8-2.2-.8-4s.2-3 .8-4c.5-.8 1.3-1.2 2.3-1.2 1.2 0 2 .4 2.5 1.2.5.7.7 2 .7 3.8v.6h-4.6v.3c0 1 .1 1.8.4 2.2.2.5.6.8 1.1.8a1 1 0 0 0 1-.5c.2-.4.3-.9.3-1.5h1.7zm5.5 3.3l1.3-14.9h1.8l2 10.3 2.1-10.3h1.8l1.3 15h-1.9L355 87l-2 10.4h-1.3l-2-10.4-.6 10.4h-1.9zm13.5-5c0 1.2.1 2.1.4 2.7.2.5.6.8 1.1.8s1-.3 1.2-.8c.2-.6.4-1.5.4-2.7s-.2-2.1-.4-2.7c-.3-.6-.7-.9-1.2-.9s-.9.3-1.1.9c-.3.6-.4 1.5-.4 2.7zm-1.9 0c0-1.7.3-3 .9-3.9.6-.8 1.4-1.3 2.5-1.3s2 .5 2.5 1.3c.6 1 .9 2.2.9 3.9s-.3 3-.9 3.9c-.5.9-1.4 1.3-2.5 1.3-1 0-2-.4-2.5-1.3-.6-.9-.9-2.2-.9-3.9zm8.6 5v-10h1.8v1c.3-.4.6-.6 1-.8.3-.2.7-.3 1.1-.3.8 0 1.3.2 1.7.6.3.4.5 1 .5 1.9v7.6h-1.8v-6.7c0-.7-.1-1.2-.3-1.4s-.5-.4-1-.4c-.3 0-.6.2-.8.4-.3.3-.4.7-.4 1.2v7h-1.8zm8.5 0V89h-1v-1.4h1v-2.7h1.8v2.7h1.4V89h-1.4v8.6H376zm5.7-6h2.8v-.3c0-.9-.1-1.5-.3-1.8-.3-.4-.6-.6-1.1-.6s-.8.2-1 .7a4 4 0 0 0-.4 2zm4.5 2.7v.1c0 1-.3 1.9-.8 2.5-.6.6-1.3 1-2.2 1-1.1 0-2-.5-2.5-1.3-.5-.9-.8-2.2-.8-4s.3-3 .8-4c.5-.8 1.3-1.2 2.4-1.2s2 .4 2.4 1.2c.5.7.8 2 .8 3.8v.6h-4.6v.3c0 1 0 1.8.3 2.2.3.5.6.8 1.2.8a1 1 0 0 0 1-.5l.3-1.5h1.7zm1.3 1.2l.7.5.8.2c.4 0 .7-.1 1-.4.2-.2.4-.5.4-.9s-.4-1-1-1.6l-.3-.1a7 7 0 0 1-1.3-1.6c-.2-.4-.3-.9-.3-1.3 0-.9.2-1.6.8-2.1.5-.5 1.1-.8 2-.8a3.3 3.3 0 0 1 1.6.4v1.9a2 2 0 0 0-1.5-.7l-.9.3c-.2.3-.3.5-.3.9s.3 1 1 1.5l.3.3c.6.6 1 1 1.2 1.5.3.5.4 1 .4 1.5 0 .9-.3 1.5-.8 2-.5.6-1.2.8-2 .8a4.4 4.4 0 0 1-1.8-.4v-1.9zm16.7 1.8a4.6 4.6 0 0 1-2.1.5c-1.5 0-2.7-.6-3.4-1.9-.8-1.2-1.2-3-1.2-5.6s.4-4.5 1.2-5.8a4 4 0 0 1 3.6-2 4.6 4.6 0 0 1 1.9.4v2l-.8-.4a3 3 0 0 0-.8-.1c-1 0-1.8.5-2.3 1.4-.5 1-.8 2.4-.8 4.5 0 1.9.3 3.3.7 4.2.5 1 1.2 1.4 2.2 1.4l.9-.1a5 5 0 0 0 .9-.5v2zm1.6.3V81.7h1.9v15.8h-1.9zm8.3 0v-1c-.2.5-.5.7-.8 1l-1.1.2c-.9 0-1.5-.4-2-1.3a9 9 0 0 1-.6-3.9c0-1.7.2-3 .6-3.9.5-.8 1.1-1.3 2-1.3.4 0 .8.1 1 .3.4.2.7.5 1 .9v-1h1.8v10H414zm-2.7-5a8 8 0 0 0 .4 2.7c.2.5.5.8 1 .8s.9-.3 1-.8a8 8 0 0 0 .4-2.7 8 8 0 0 0-.3-2.7c-.2-.5-.6-.8-1-.8-.6 0-1 .3-1.1.8-.3.5-.4 1.4-.4 2.7zm6.8 5v-10h1.8V89c.3-.6.6-1 1-1.2.4-.3.9-.5 1.4-.5v2h-.3c-.7 0-1.2.1-1.5.5-.4.4-.6 1-.6 1.7v6h-1.8zm7-5c0 1.2.2 2.1.4 2.7.2.5.6.8 1.1.8.6 0 1-.3 1.2-.8.2-.6.4-1.5.4-2.7s-.2-2.1-.4-2.7c-.3-.6-.6-.9-1.2-.9-.5 0-.9.3-1.1.9s-.4 1.5-.4 2.7zm-1.8 0c0-1.7.2-3 .8-3.9.6-.8 1.4-1.3 2.5-1.3s2 .5 2.5 1.3c.6 1 1 2.2 1 3.9s-.4 3-1 3.9c-.5.9-1.4 1.3-2.5 1.3-1 0-1.9-.4-2.5-1.3s-.8-2.2-.8-3.9zm8 3l.7.4.8.2c.4 0 .7-.1 1-.4.2-.2.3-.5.3-.9s-.3-1-1-1.6l-.2-.1a7 7 0 0 1-1.3-1.6c-.2-.4-.4-.9-.4-1.3 0-.9.3-1.6.8-2.1s1.2-.8 2-.8a3.3 3.3 0 0 1 1.6.4v1.9a2 2 0 0 0-1.4-.7c-.4 0-.7.1-.9.3-.2.3-.3.5-.3.9s.3 1 1 1.5l.2.3c.6.6 1 1 1.3 1.5.2.5.4 1 .4 1.5 0 .9-.3 1.5-.8 2-.5.6-1.2.8-2.1.8a4.4 4.4 0 0 1-1.8-.4v-1.9zM177.8 77.3h258v1.2h-258v-1.2zm37.7-9.9V44.6h10.8v3.2c1-1.3 2-2.3 3.2-3a8 8 0 0 1 4-.9c2.4 0 4.3.8 5.7 2.2a8.3 8.3 0 0 1 2.2 6v15.4h-11.2V56c0-1.2 0-2-.3-2.4-.2-.4-.7-.6-1.3-.6s-1.1.2-1.4.7a4 4 0 0 0-.5 2.3v11.5h-11.2zm42.3-30a5 5 0 0 1-1.6 4c-1.1.9-2.6 1.4-4.4 1.4s-3.3-.5-4.4-1.5a5 5 0 0 1-1.7-3.9c0-1.6.6-2.9 1.7-3.8 1-1 2.5-1.4 4.4-1.4s3.3.5 4.4 1.4c1 1 1.6 2.2 1.6 3.8zm-11.6 30V44.6h11.1v23h-11zm16.2 0V44.6H273V48a9.2 9.2 0 0 1 2.8-3c1.1-.7 2.3-1 3.7-1 1.6 0 2.9.4 4 1.2 1 .8 2 2 2.6 3.7.8-1.6 2-2.8 3.2-3.7a7.6 7.6 0 0 1 4.2-1.2c2.3 0 4 .8 5.4 2.2 1.3 1.5 2 3.5 2 6v15.4h-10.7V56c0-1.2-.2-2-.4-2.4s-.5-.6-1-.6c-.7 0-1.1.3-1.4.8-.3.4-.4 1.2-.4 2.2v11.5h-10.6V56a6 6 0 0 0-.3-2.3c-.2-.5-.6-.7-1.1-.7-.6 0-1 .3-1.4.8-.3.4-.4 1.2-.4 2.2v11.5h-10.8zm55.5-8.2c.8 0 1.5-.3 2-.9s.7-1.3.7-2.3c0-.9-.2-1.7-.7-2.2-.5-.6-1.1-.9-2-.9-.8 0-1.4.3-2 .9-.4.5-.7 1.3-.7 2.2 0 1 .3 1.7.8 2.3s1.1.9 2 .9zm13.4-3.2c0 1.8-.4 3.4-1 5a12.6 12.6 0 0 1-7.4 6.5c-1.5.5-3.2.8-5 .8s-3.4-.3-5-.8a12.8 12.8 0 0 1-7.2-6.5 11.5 11.5 0 0 1 0-10 12.4 12.4 0 0 1 7.3-6.4c1.5-.5 3.1-.8 5-.8 1.7 0 3.4.3 5 .8 1.5.6 2.9 1.3 4 2.4a12 12 0 0 1 4.3 9zm3.8 11.4V44.6H346v3.2c1-1.3 2-2.3 3.2-3a8 8 0 0 1 3.9-.9c2.4 0 4.4.8 5.8 2.2a8.3 8.3 0 0 1 2.1 6v15.4h-11V56c0-1.2-.1-2-.4-2.4-.2-.4-.6-.6-1.2-.6s-1.1.2-1.5.7a4 4 0 0 0-.5 2.3v11.5h-11.1zm32 0V53.1H364v-8.5h3.1v-7.5h11.2v7.5h3.1v8.5h-3.1v14.4H367zm43.2-9.6h-15.8v.4c0 1.1.2 2 .6 2.6.4.5 1 .8 2 .8.4 0 .9-.1 1.3-.4a3 3 0 0 0 .9-1.3l10.3.6c-1 2.5-2.5 4.4-4.7 5.8-2.2 1.3-4.9 2-8 2a15 15 0 0 1-5-.8 12.7 12.7 0 0 1-7.3-6.5 11.5 11.5 0 0 1 0-10 12.4 12.4 0 0 1 7.3-6.4c1.5-.5 3.2-.8 5-.8 2.4 0 4.6.5 6.6 1.5s3.5 2.4 4.8 4.3c.7 1 1.2 2 1.5 3.1.4 1.2.5 2.5.5 3.8V58zm-15.7-5h5c0-.9-.3-1.5-.7-2-.4-.4-1-.6-1.8-.6-.7 0-1.3.2-1.7.7-.4.4-.7 1-.8 2zm16.8 13l3-7c1.1.7 2.2 1.4 3.3 1.8a7 7 0 0 0 2.6.6c.6 0 1 0 1.3-.3.3-.2.5-.5.5-1s-.7-1-2-1.2l-1-.2a9.4 9.4 0 0 1-4.7-2.4c-1-1-1.5-2.4-1.5-4.1a7 7 0 0 1 3-5.9c2-1.5 4.6-2.3 7.8-2.3a23 23 0 0 1 8.8 1.8l-2.7 6.9c-1-.7-2-1.2-2.8-1.5-.9-.4-1.6-.6-2.2-.6-.5 0-.9.1-1.2.3a1 1 0 0 0-.5.9c0 .6 1 1 2.7 1.4l1 .2c2.2.6 3.8 1.3 4.9 2.4 1 1 1.5 2.3 1.5 4 0 2.6-1 4.6-3 6.3a13 13 0 0 1-8.3 2.4 23.2 23.2 0 0 1-10.5-2.5z"></path></svg> 