<?xml version="1.0" standalone="no"?>
<!DOCTYPE svg PUBLIC "-//W3C//DTD SVG 20010904//EN"
 "http://www.w3.org/TR/2001/REC-SVG-20010904/DTD/svg10.dtd">
<svg version="1.0" xmlns="http://www.w3.org/2000/svg"
 width="300.000000pt" height="163.000000pt" viewBox="0 0 300.000000 163.000000"
 preserveAspectRatio="xMidYMid meet">

<g transform="translate(0.000000,163.000000) scale(0.100000,-0.100000)"
fill="#000000" stroke="none">
<path d="M1656 1529 c-92 -54 -173 -99 -178 -99 -5 0 -82 43 -170 95 -88 52
-164 95 -170 95 -5 0 -142 -80 -306 -177 -330 -197 -384 -239 -435 -342 -28
-57 -32 -76 -32 -146 0 -73 4 -88 38 -157 94 -191 323 -294 495 -222 18 7 148
84 289 170 142 86 267 161 279 166 19 9 60 -13 305 -162 326 -198 362 -212
477 -191 132 24 261 121 318 237 26 53 29 69 29 159 0 90 -3 105 -29 154 -50
96 -111 144 -400 316 -148 88 -286 170 -305 181 l-36 22 -169 -99z m-405 -111
c94 -57 100 -62 83 -75 -10 -8 -136 -82 -279 -165 -311 -181 -325 -191 -325
-225 0 -33 26 -63 55 -63 12 0 247 131 521 291 274 161 506 294 515 296 17 5
538 -304 580 -344 15 -13 39 -47 54 -75 24 -43 27 -58 23 -118 -3 -57 -9 -76
-40 -122 -42 -64 -109 -112 -187 -135 -96 -27 -98 -27 -624 296 l-28 17 102
62 c56 34 106 62 112 62 5 0 87 -47 181 -104 225 -136 212 -130 247 -116 34
14 46 44 29 75 -7 13 -107 80 -232 155 -187 113 -223 131 -241 122 -12 -5
-213 -125 -447 -267 -561 -341 -504 -310 -575 -309 -45 0 -74 7 -115 28 -187
93 -233 294 -97 424 36 35 553 351 574 352 7 0 58 -28 114 -62z"/>
<path d="M812 434 c-27 -18 -29 -55 -4 -77 24 -22 55 -21 75 1 22 25 21 48 -3
72 -24 24 -38 25 -68 4z"/>
<path d="M2 261 c3 -177 9 -195 78 -235 45 -27 151 -28 202 -2 64 31 78 76 78
249 l0 147 -50 0 -50 0 0 -117 c0 -140 -10 -185 -46 -201 -35 -16 -48 -15 -75
7 -23 18 -24 27 -29 163 l-5 143 -53 3 -54 3 4 -160z"/>
<path d="M2250 331 c0 -30 -4 -40 -20 -44 -15 -4 -20 -14 -20 -40 0 -26 5 -36
20 -40 18 -5 20 -14 20 -101 l0 -96 45 0 45 0 0 100 0 100 30 0 c28 0 30 2 30
40 0 38 -2 40 -30 40 -28 0 -30 2 -30 40 l0 40 -45 0 -45 0 0 -39z"/>
<path d="M587 290 c-16 -5 -35 -14 -43 -21 -11 -9 -14 -8 -14 5 0 13 -11 16
-50 16 l-50 0 0 -140 0 -140 50 0 50 0 0 89 c0 98 11 121 55 121 35 0 45 -28
45 -125 l0 -86 48 3 47 3 3 82 c5 133 -17 181 -88 196 -14 3 -38 1 -53 -3z"/>
<path d="M1117 290 c-16 -5 -35 -14 -43 -21 -11 -9 -14 -8 -14 5 0 13 -11 16
-50 16 l-50 0 0 -140 0 -140 50 0 50 0 0 86 c0 95 10 124 43 124 40 0 47 -18
47 -117 l0 -93 50 0 50 0 0 93 c0 98 7 117 45 117 38 0 45 -19 45 -117 l0 -93
50 0 50 0 0 99 c0 54 -5 113 -11 131 -21 58 -109 74 -158 29 -21 -19 -21 -19
-48 0 -35 24 -70 31 -106 21z"/>
<path d="M1607 289 c-78 -18 -117 -65 -117 -139 0 -90 60 -143 164 -143 74 1
119 21 146 66 26 41 26 112 1 153 -31 52 -120 80 -194 63z m95 -96 c40 -36 10
-103 -45 -103 -58 0 -88 60 -50 102 20 22 70 23 95 1z"/>
<path d="M2027 290 c-16 -5 -35 -14 -43 -21 -11 -9 -14 -8 -14 5 0 14 -9 17
-47 14 l-48 -3 -3 -138 -3 -137 51 0 50 0 0 88 c0 96 12 122 58 122 32 0 42
-30 42 -124 l0 -86 50 0 50 0 0 95 c0 118 -15 160 -64 180 -39 17 -40 17 -79
5z"/>
<path d="M2522 290 c-105 -25 -143 -167 -65 -242 47 -45 146 -54 209 -20 25
13 56 57 47 66 -12 12 -78 5 -97 -9 -11 -8 -30 -15 -43 -15 -23 0 -63 32 -63
50 0 6 42 10 105 10 l105 0 0 33 c0 37 -29 90 -62 110 -30 20 -94 27 -136 17z
m96 -73 c25 -19 11 -27 -49 -27 -55 0 -60 2 -48 16 26 32 64 36 97 11z"/>
<path d="M2859 291 c-49 -16 -68 -31 -79 -67 -11 -32 -10 -39 7 -62 11 -15 38
-31 66 -39 49 -14 62 -37 28 -48 -11 -3 -36 1 -55 9 -35 15 -37 14 -52 -9 -23
-35 -13 -50 40 -64 104 -26 198 31 181 109 -8 36 -23 49 -77 65 -57 16 -58 40
-2 39 35 0 44 4 58 27 15 26 15 28 -1 33 -40 11 -89 14 -114 7z"/>
<path d="M800 285 c0 -3 -1 -65 -1 -137 l0 -133 45 -3 46 -3 0 140 0 141 -45
0 c-25 0 -45 -2 -45 -5z"/>
</g>
</svg>
